<?xml version="1.0" encoding="UTF-8" standalone="no"?>
<!DOCTYPE svg PUBLIC "-//W3C//DTD SVG 1.1//EN"
 "http://www.w3.org/Graphics/SVG/1.1/DTD/svg11.dtd">
<!-- Generated by graphviz version 2.40.1 (20161225.0304)
 -->
<!-- Title: %3 Pages: 1 -->
<svg width="782pt" height="710pt"
 viewBox="0.00 0.00 782.00 710.20" xmlns="http://www.w3.org/2000/svg" xmlns:xlink="http://www.w3.org/1999/xlink">
<g id="graph0" class="graph" transform="scale(1 1) rotate(0) translate(4 706.2)">
<title>%3</title>
<polygon fill="#ffffff" stroke="transparent" points="-4,4 -4,-706.2 778,-706.2 778,4 -4,4"/>
<!-- sigma -->
<g id="node1" class="node">
<title>sigma</title>
<polygon fill="none" stroke="#000000" points="411.2009,-652.9 411.2009,-701.7 608.7991,-701.7 608.7991,-652.9 411.2009,-652.9"/>
<text text-anchor="middle" x="510" y="-685.1" font-family="Times,serif" font-size="14.00" fill="#000000">a, i, u, l, r, m, n, ŋ, p, t, k, b, d, g</text>
<polyline fill="none" stroke="#000000" points="411.2009,-676.9 608.7991,-676.9 "/>
</g>
<!-- consonants -->
<g id="node2" class="node">
<title>consonants</title>
<polygon fill="none" stroke="#000000" points="331.2535,-549.5 331.2535,-599.1 490.7465,-599.1 490.7465,-549.5 331.2535,-549.5"/>
<text text-anchor="middle" x="411" y="-582.5" font-family="Times,serif" font-size="14.00" fill="#000000">l, r, m, n, ŋ, p, t, k, b, d, g</text>
<polyline fill="none" stroke="#000000" points="331.2535,-574.3 490.7465,-574.3 "/>
<text text-anchor="middle" x="411" y="-557.7" font-family="Times,serif" font-size="14.00" fill="#000000">+cons</text>
</g>
<!-- sigma&#45;&gt;consonants -->
<g id="edge1" class="edge">
<title>sigma:feats&#45;&gt;consonants:segs</title>
<path fill="none" stroke="#000000" d="M411,-665.3C384.9896,-665.3 405.107,-636.4701 409.9987,-609.4871"/>
<polygon fill="#000000" stroke="#000000" points="413.5049,-609.5945 411,-599.3 406.5385,-608.9096 413.5049,-609.5945"/>
<text text-anchor="middle" x="423.7769" y="-621.8" font-family="Times,serif" font-size="14.00" fill="#000000">+cons</text>
</g>
<!-- vowels -->
<g id="node3" class="node">
<title>vowels</title>
<polygon fill="none" stroke="#000000" points="637,-429.3 637,-495.7 691,-495.7 691,-429.3 637,-429.3"/>
<text text-anchor="middle" x="663.5526" y="-479.1" font-family="Times,serif" font-size="14.00" fill="#000000">a, i, u</text>
<polyline fill="none" stroke="#000000" points="637,-470.9 690.1052,-470.9 "/>
<text text-anchor="middle" x="663.5526" y="-454.3" font-family="Times,serif" font-size="14.00" fill="#000000">+son</text>
<text text-anchor="middle" x="663.5526" y="-437.5" font-family="Times,serif" font-size="14.00" fill="#000000">&#45;cons</text>
</g>
<!-- sigma&#45;&gt;vowels -->
<g id="edge2" class="edge">
<title>sigma:feats&#45;&gt;vowels:segs</title>
<path fill="none" stroke="#000000" d="M609,-665.3C633.4596,-665.3 658.9562,-548.3334 663.3402,-505.7516"/>
<polygon fill="#000000" stroke="#000000" points="666.8504,-505.7042 664,-495.5 659.8649,-505.2545 666.8504,-505.7042"/>
<text text-anchor="middle" x="671.1599" y="-570.1" font-family="Times,serif" font-size="14.00" fill="#000000">&#45;cons</text>
</g>
<!-- sonorants -->
<g id="node4" class="node">
<title>sonorants</title>
<polygon fill="none" stroke="#000000" points="511.6462,-549.5 511.6462,-599.1 628.3538,-599.1 628.3538,-549.5 511.6462,-549.5"/>
<text text-anchor="middle" x="570" y="-582.5" font-family="Times,serif" font-size="14.00" fill="#000000">a, i, u, l, r, m, n, ŋ</text>
<polyline fill="none" stroke="#000000" points="511.6462,-574.3 628.3538,-574.3 "/>
<text text-anchor="middle" x="570" y="-557.7" font-family="Times,serif" font-size="14.00" fill="#000000">+son</text>
</g>
<!-- sigma&#45;&gt;sonorants -->
<g id="edge4" class="edge">
<title>sigma:feats&#45;&gt;sonorants:segs</title>
<path fill="none" stroke="#000000" d="M510,-653.3C510,-642.012 502.5944,-609.3556 505.4897,-594.1998"/>
<polygon fill="#000000" stroke="#000000" points="508.3412,-596.2431 512,-586.3 502.9392,-591.7912 508.3412,-596.2431"/>
<text text-anchor="middle" x="520.6696" y="-621.8" font-family="Times,serif" font-size="14.00" fill="#000000">+son</text>
</g>
<!-- obstruents -->
<g id="node5" class="node">
<title>obstruents</title>
<polygon fill="none" stroke="#000000" points="227.0547,-316.5 227.0547,-382.9 316.9453,-382.9 316.9453,-316.5 227.0547,-316.5"/>
<text text-anchor="middle" x="272" y="-366.3" font-family="Times,serif" font-size="14.00" fill="#000000">p, t, k, b, d, g</text>
<polyline fill="none" stroke="#000000" points="227.0547,-358.1 316.9453,-358.1 "/>
<text text-anchor="middle" x="272" y="-341.5" font-family="Times,serif" font-size="14.00" fill="#000000">&#45;son</text>
<text text-anchor="middle" x="272" y="-324.7" font-family="Times,serif" font-size="14.00" fill="#000000">&#45;cons</text>
</g>
<!-- sigma&#45;&gt;obstruents -->
<g id="edge5" class="edge">
<title>sigma:feats&#45;&gt;obstruents:segs</title>
<path fill="none" stroke="#000000" d="M411,-665.3C260.2447,-665.3 81.2353,-384.3475 216.6985,-371.1779"/>
<polygon fill="#000000" stroke="#000000" points="217.173,-374.6597 227,-370.7 216.8485,-367.6673 217.173,-374.6597"/>
<text text-anchor="middle" x="223.0526" y="-518.4" font-family="Times,serif" font-size="14.00" fill="#000000">&#45;son</text>
</g>
<!-- consonants&#45;&gt;obstruents -->
<g id="edge6" class="edge">
<title>consonants:feats&#45;&gt;obstruents:segs</title>
<path fill="none" stroke="#00ff00" stroke-dasharray="5,2" d="M331,-562.3C296.3334,-562.3 275.6711,-437.6694 272.445,-392.8558"/>
<polygon fill="#00ff00" stroke="#00ff00" points="275.9345,-392.5372 272,-382.7 268.9412,-392.8437 275.9345,-392.5372"/>
</g>
<!-- sonCons -->
<g id="node6" class="node">
<title>sonCons</title>
<polygon fill="none" stroke="#000000" points="540.6988,-429.3 540.6988,-495.7 619.3012,-495.7 619.3012,-429.3 540.6988,-429.3"/>
<text text-anchor="middle" x="580" y="-479.1" font-family="Times,serif" font-size="14.00" fill="#000000">l, r, m, n, ŋ</text>
<polyline fill="none" stroke="#000000" points="540.6988,-470.9 619.3012,-470.9 "/>
<text text-anchor="middle" x="580" y="-454.3" font-family="Times,serif" font-size="14.00" fill="#000000">+son</text>
<text text-anchor="middle" x="580" y="-437.5" font-family="Times,serif" font-size="14.00" fill="#000000">+cons</text>
</g>
<!-- consonants&#45;&gt;sonCons -->
<g id="edge7" class="edge">
<title>consonants:feats&#45;&gt;sonCons:segs</title>
<path fill="none" stroke="#000000" d="M491,-562.3C498.9615,-562.3 497.1768,-554.4292 503,-549 512.4942,-540.1483 518.6031,-541.6668 526,-531 530.5337,-524.462 530.5808,-502.7838 534.3588,-491.107"/>
<polygon fill="#000000" stroke="#000000" points="537.0599,-493.3349 541,-483.5 531.7867,-488.7312 537.0599,-493.3349"/>
</g>
<!-- labials -->
<g id="node10" class="node">
<title>labials</title>
<polygon fill="none" stroke="#000000" points="307.5547,-429.3 307.5547,-495.7 362.4453,-495.7 362.4453,-429.3 307.5547,-429.3"/>
<text text-anchor="middle" x="335" y="-479.1" font-family="Times,serif" font-size="14.00" fill="#000000">m, p, b</text>
<polyline fill="none" stroke="#000000" points="307.5547,-470.9 362.4453,-470.9 "/>
<text text-anchor="middle" x="335" y="-454.3" font-family="Times,serif" font-size="14.00" fill="#000000">+cons</text>
<text text-anchor="middle" x="335" y="-437.5" font-family="Times,serif" font-size="14.00" fill="#000000">+LAB</text>
</g>
<!-- consonants&#45;&gt;labials -->
<g id="edge12" class="edge">
<title>consonants:feats&#45;&gt;labials:segs</title>
<path fill="none" stroke="#000000" d="M331,-562.3C325.0889,-562.3 330.7795,-554.907 331,-549 331.7436,-529.0817 334.0392,-521.741 334.7724,-505.9401"/>
<polygon fill="#000000" stroke="#000000" points="338.2811,-505.5739 335,-495.5 331.2828,-505.4213 338.2811,-505.5739"/>
<text text-anchor="middle" x="351.9452" y="-518.4" font-family="Times,serif" font-size="14.00" fill="#000000">+LAB</text>
</g>
<!-- coronals -->
<g id="node11" class="node">
<title>coronals</title>
<polygon fill="none" stroke="#000000" points="451.7791,-429.3 451.7791,-495.7 522.2209,-495.7 522.2209,-429.3 451.7791,-429.3"/>
<text text-anchor="middle" x="487" y="-479.1" font-family="Times,serif" font-size="14.00" fill="#000000">n, l, r, t, d</text>
<polyline fill="none" stroke="#000000" points="451.7791,-470.9 522.2209,-470.9 "/>
<text text-anchor="middle" x="487" y="-454.3" font-family="Times,serif" font-size="14.00" fill="#000000">+cons</text>
<text text-anchor="middle" x="487" y="-437.5" font-family="Times,serif" font-size="14.00" fill="#000000">+COR</text>
</g>
<!-- consonants&#45;&gt;coronals -->
<g id="edge13" class="edge">
<title>consonants:feats&#45;&gt;coronals:segs</title>
<path fill="none" stroke="#000000" d="M491,-562.3C496.9111,-562.3 491.274,-554.9048 491,-549 490.6275,-540.9741 489.9604,-539.0094 489.3256,-531 488.3887,-519.1784 487.549,-514.0145 487.1877,-505.5008"/>
<polygon fill="#000000" stroke="#000000" points="490.6871,-505.4325 487,-495.5 483.6884,-505.564 490.6871,-505.4325"/>
<text text-anchor="middle" x="507.3372" y="-518.4" font-family="Times,serif" font-size="14.00" fill="#000000">+COR</text>
</g>
<!-- dorsals -->
<g id="node12" class="node">
<title>dorsals</title>
<polygon fill="none" stroke="#000000" points="380,-429.3 380,-495.7 434,-495.7 434,-429.3 380,-429.3"/>
<text text-anchor="middle" x="406.7222" y="-479.1" font-family="Times,serif" font-size="14.00" fill="#000000">ŋ, k ,g</text>
<polyline fill="none" stroke="#000000" points="380,-470.9 433.4444,-470.9 "/>
<text text-anchor="middle" x="406.7222" y="-454.3" font-family="Times,serif" font-size="14.00" fill="#000000">+cons</text>
<text text-anchor="middle" x="406.7222" y="-437.5" font-family="Times,serif" font-size="14.00" fill="#000000">+DOR</text>
</g>
<!-- consonants&#45;&gt;dorsals -->
<g id="edge14" class="edge">
<title>consonants:feats&#45;&gt;dorsals:segs</title>
<path fill="none" stroke="#000000" d="M411,-549.3C411,-529.0693 408.1523,-521.7466 407.2625,-505.5496"/>
<polygon fill="#000000" stroke="#000000" points="410.76,-505.4052 407,-495.5 403.7624,-505.588 410.76,-505.4052"/>
<text text-anchor="middle" x="428.7222" y="-518.4" font-family="Times,serif" font-size="14.00" fill="#000000">+DOR</text>
</g>
<!-- sonorants&#45;&gt;vowels -->
<g id="edge3" class="edge">
<title>sonorants:feats&#45;&gt;vowels:segs</title>
<path fill="none" stroke="#00ff00" stroke-dasharray="5,2" d="M628,-562.3C642.1137,-562.3 628.0927,-511.7695 630.9965,-491.6362"/>
<polygon fill="#00ff00" stroke="#00ff00" points="633.8789,-493.6247 637,-483.5 628.2462,-489.4685 633.8789,-493.6247"/>
</g>
<!-- sonorants&#45;&gt;sonCons -->
<g id="edge8" class="edge">
<title>sonorants:feats&#45;&gt;sonCons:segs</title>
<path fill="none" stroke="#000000" d="M570,-549.3C570,-528.7794 577.1191,-521.9006 579.3439,-505.643"/>
<polygon fill="#000000" stroke="#000000" points="582.8471,-505.7051 580,-495.5 575.8617,-505.2532 582.8471,-505.7051"/>
</g>
<!-- voiced -->
<g id="node13" class="node">
<title>voiced</title>
<polygon fill="none" stroke="#000000" points="216,-162.7 216,-245.9 270,-245.9 270,-162.7 216,-162.7"/>
<text text-anchor="middle" x="243" y="-229.3" font-family="Times,serif" font-size="14.00" fill="#000000">b, d, g</text>
<polyline fill="none" stroke="#000000" points="216,-221.1 270,-221.1 "/>
<text text-anchor="middle" x="243" y="-204.5" font-family="Times,serif" font-size="14.00" fill="#000000">&#45;son</text>
<text text-anchor="middle" x="243" y="-187.7" font-family="Times,serif" font-size="14.00" fill="#000000">&#45;cons</text>
<text text-anchor="middle" x="243" y="-170.9" font-family="Times,serif" font-size="14.00" fill="#000000">+vcd</text>
</g>
<!-- obstruents&#45;&gt;voiced -->
<g id="edge15" class="edge">
<title>obstruents:feats&#45;&gt;voiced:segs</title>
<path fill="none" stroke="#000000" d="M272,-316.7C272,-286.5616 248.9968,-281.107 243.9649,-256.3682"/>
<polygon fill="#000000" stroke="#000000" points="247.4381,-255.9205 243,-246.3 240.47,-256.5883 247.4381,-255.9205"/>
<text text-anchor="middle" x="277.0546" y="-277" font-family="Times,serif" font-size="14.00" fill="#000000">+vcd</text>
</g>
<!-- voiceless -->
<g id="node14" class="node">
<title>voiceless</title>
<polygon fill="none" stroke="#000000" points="144,-162.7 144,-245.9 198,-245.9 198,-162.7 144,-162.7"/>
<text text-anchor="middle" x="170.9453" y="-229.3" font-family="Times,serif" font-size="14.00" fill="#000000">p, t, k</text>
<polyline fill="none" stroke="#000000" points="144,-221.1 197.8906,-221.1 "/>
<text text-anchor="middle" x="170.9453" y="-204.5" font-family="Times,serif" font-size="14.00" fill="#000000">&#45;son</text>
<text text-anchor="middle" x="170.9453" y="-187.7" font-family="Times,serif" font-size="14.00" fill="#000000">&#45;cons</text>
<text text-anchor="middle" x="170.9453" y="-170.9" font-family="Times,serif" font-size="14.00" fill="#000000">&#45;vcd</text>
</g>
<!-- obstruents&#45;&gt;voiceless -->
<g id="edge16" class="edge">
<title>obstruents:feats&#45;&gt;voiceless:segs</title>
<path fill="none" stroke="#000000" d="M227,-337.7C222.0856,-337.7 209.8786,-268.1154 202.2864,-242.5648"/>
<polygon fill="#000000" stroke="#000000" points="205.3755,-240.9061 198,-233.3 199.0225,-243.8454 205.3755,-240.9061"/>
<text text-anchor="middle" x="224.4376" y="-277" font-family="Times,serif" font-size="14.00" fill="#000000">&#45;vcd</text>
</g>
<!-- labObstr -->
<g id="node15" class="node">
<title>labObstr</title>
<polygon fill="none" stroke="#000000" points="72,-162.7 72,-245.9 126,-245.9 126,-162.7 72,-162.7"/>
<text text-anchor="middle" x="98.9452" y="-229.3" font-family="Times,serif" font-size="14.00" fill="#000000">p, b</text>
<polyline fill="none" stroke="#000000" points="72,-221.1 125.8904,-221.1 "/>
<text text-anchor="middle" x="98.9452" y="-204.5" font-family="Times,serif" font-size="14.00" fill="#000000">&#45;son</text>
<text text-anchor="middle" x="98.9452" y="-187.7" font-family="Times,serif" font-size="14.00" fill="#000000">&#45;cons</text>
<text text-anchor="middle" x="98.9452" y="-170.9" font-family="Times,serif" font-size="14.00" fill="#000000">+LAB</text>
</g>
<!-- obstruents&#45;&gt;labObstr -->
<g id="edge20" class="edge">
<title>obstruents:feats&#45;&gt;labObstr</title>
<path fill="none" stroke="#000000" d="M227,-337.7C190.5881,-337.7 205.7735,-295.114 177,-272.8 160.9516,-260.3544 150.8146,-267.5414 135,-254.8 134.4026,-254.3187 133.8106,-253.8251 133.2241,-253.3202"/>
<polygon fill="#000000" stroke="#000000" points="135.5295,-250.6798 125.9246,-246.208 130.6445,-255.6934 135.5295,-250.6798"/>
</g>
<!-- corObstr -->
<g id="node16" class="node">
<title>corObstr</title>
<polygon fill="none" stroke="#000000" points="360,-162.7 360,-245.9 414,-245.9 414,-162.7 360,-162.7"/>
<text text-anchor="middle" x="386.8372" y="-229.3" font-family="Times,serif" font-size="14.00" fill="#000000">t, d</text>
<polyline fill="none" stroke="#000000" points="360,-221.1 413.6744,-221.1 "/>
<text text-anchor="middle" x="386.8372" y="-204.5" font-family="Times,serif" font-size="14.00" fill="#000000">&#45;son</text>
<text text-anchor="middle" x="386.8372" y="-187.7" font-family="Times,serif" font-size="14.00" fill="#000000">&#45;cons</text>
<text text-anchor="middle" x="386.8372" y="-170.9" font-family="Times,serif" font-size="14.00" fill="#000000">+COR</text>
</g>
<!-- obstruents&#45;&gt;corObstr -->
<g id="edge22" class="edge">
<title>obstruents:feats&#45;&gt;corObstr</title>
<path fill="none" stroke="#000000" d="M317,-337.7C355.5346,-337.7 372.9,-293.5143 380.6992,-256.0027"/>
<polygon fill="#000000" stroke="#000000" points="384.1445,-256.6196 382.5691,-246.1426 377.2671,-255.3153 384.1445,-256.6196"/>
</g>
<!-- dorObstr -->
<g id="node17" class="node">
<title>dorObstr</title>
<polygon fill="none" stroke="#000000" points="288,-162.7 288,-245.9 342,-245.9 342,-162.7 288,-162.7"/>
<text text-anchor="middle" x="314.7222" y="-229.3" font-family="Times,serif" font-size="14.00" fill="#000000">k, g</text>
<polyline fill="none" stroke="#000000" points="288,-221.1 341.4444,-221.1 "/>
<text text-anchor="middle" x="314.7222" y="-204.5" font-family="Times,serif" font-size="14.00" fill="#000000">&#45;son</text>
<text text-anchor="middle" x="314.7222" y="-187.7" font-family="Times,serif" font-size="14.00" fill="#000000">&#45;cons</text>
<text text-anchor="middle" x="314.7222" y="-170.9" font-family="Times,serif" font-size="14.00" fill="#000000">+DOR</text>
</g>
<!-- obstruents&#45;&gt;dorObstr -->
<g id="edge24" class="edge">
<title>obstruents:feats&#45;&gt;dorObstr</title>
<path fill="none" stroke="#000000" d="M272,-316.7C272,-300.9025 287.8874,-303.7058 295,-289.6 300.2438,-279.2004 304.1399,-267.3908 307.0255,-255.9449"/>
<polygon fill="#000000" stroke="#000000" points="310.4766,-256.5551 309.3097,-246.0247 303.655,-254.9844 310.4766,-256.5551"/>
</g>
<!-- nasals -->
<g id="node7" class="node">
<title>nasals</title>
<polygon fill="none" stroke="#000000" points="508.9744,-162.7 508.9744,-245.9 565.0256,-245.9 565.0256,-162.7 508.9744,-162.7"/>
<text text-anchor="middle" x="537" y="-229.3" font-family="Times,serif" font-size="14.00" fill="#000000">m, n, ŋ</text>
<polyline fill="none" stroke="#000000" points="508.9744,-221.1 565.0256,-221.1 "/>
<text text-anchor="middle" x="537" y="-204.5" font-family="Times,serif" font-size="14.00" fill="#000000">+son</text>
<text text-anchor="middle" x="537" y="-187.7" font-family="Times,serif" font-size="14.00" fill="#000000">+cons</text>
<text text-anchor="middle" x="537" y="-170.9" font-family="Times,serif" font-size="14.00" fill="#000000">+nas</text>
</g>
<!-- sonCons&#45;&gt;nasals -->
<g id="edge9" class="edge">
<title>sonCons:feats&#45;&gt;nasals:segs</title>
<path fill="none" stroke="#000000" d="M541,-450.5C520.3899,-450.5 533.9168,-300.7873 536.5739,-256.3011"/>
<polygon fill="#000000" stroke="#000000" points="540.0711,-256.44 537,-246.3 533.0774,-256.1419 540.0711,-256.44"/>
<text text-anchor="middle" x="545.2769" y="-345.5" font-family="Times,serif" font-size="14.00" fill="#000000">+nas</text>
</g>
<!-- liquids -->
<g id="node8" class="node">
<title>liquids</title>
<polygon fill="none" stroke="#000000" points="648,-154.3 648,-254.3 702,-254.3 702,-154.3 648,-154.3"/>
<text text-anchor="middle" x="674.8372" y="-237.7" font-family="Times,serif" font-size="14.00" fill="#000000">l, r</text>
<polyline fill="none" stroke="#000000" points="648,-229.5 701.6744,-229.5 "/>
<text text-anchor="middle" x="674.8372" y="-212.9" font-family="Times,serif" font-size="14.00" fill="#000000">+son</text>
<text text-anchor="middle" x="674.8372" y="-196.1" font-family="Times,serif" font-size="14.00" fill="#000000">+cons</text>
<text text-anchor="middle" x="674.8372" y="-179.3" font-family="Times,serif" font-size="14.00" fill="#000000">&#45;nas</text>
<text text-anchor="middle" x="674.8372" y="-162.5" font-family="Times,serif" font-size="14.00" fill="#000000">+COR</text>
</g>
<!-- sonCons&#45;&gt;liquids -->
<g id="edge10" class="edge">
<title>sonCons:feats&#45;&gt;liquids:segs</title>
<path fill="none" stroke="#000000" d="M619,-450.5C629.441,-450.5 623.8197,-438.3677 628,-428.8 635.2456,-412.2166 639.26,-408.9627 645,-391.8 663.7155,-335.8408 673.8179,-318.7597 674.9023,-264.4933"/>
<polygon fill="#000000" stroke="#000000" points="678.4039,-264.3331 675,-254.3 671.4042,-264.266 678.4039,-264.3331"/>
<text text-anchor="middle" x="681.6599" y="-345.5" font-family="Times,serif" font-size="14.00" fill="#000000">&#45;nas</text>
</g>
<!-- corSon -->
<g id="node9" class="node">
<title>corSon</title>
<polygon fill="none" stroke="#000000" points="582,-308.1 582,-391.3 636,-391.3 636,-308.1 582,-308.1"/>
<text text-anchor="middle" x="608.8372" y="-374.7" font-family="Times,serif" font-size="14.00" fill="#000000">n, l, r</text>
<polyline fill="none" stroke="#000000" points="582,-366.5 635.6744,-366.5 "/>
<text text-anchor="middle" x="608.8372" y="-349.9" font-family="Times,serif" font-size="14.00" fill="#000000">+son</text>
<text text-anchor="middle" x="608.8372" y="-333.1" font-family="Times,serif" font-size="14.00" fill="#000000">+cons</text>
<text text-anchor="middle" x="608.8372" y="-316.3" font-family="Times,serif" font-size="14.00" fill="#000000">+COR</text>
</g>
<!-- sonCons&#45;&gt;corSon -->
<g id="edge18" class="edge">
<title>sonCons:feats&#45;&gt;corSon:segs</title>
<path fill="none" stroke="#000000" d="M580,-429.5C580,-412.4611 598.7781,-412.0789 606.1133,-401.5464"/>
<polygon fill="#000000" stroke="#000000" points="609.5453,-402.2808 609,-391.7 602.828,-400.3115 609.5453,-402.2808"/>
</g>
<!-- m -->
<g id="node20" class="node">
<title>m</title>
<polygon fill="none" stroke="#000000" points="432,-.5 432,-100.5 486,-100.5 486,-.5 432,-.5"/>
<text text-anchor="middle" x="458.9452" y="-83.9" font-family="Times,serif" font-size="14.00" fill="#000000">m</text>
<polyline fill="none" stroke="#000000" points="432,-75.7 485.8904,-75.7 "/>
<text text-anchor="middle" x="458.9452" y="-59.1" font-family="Times,serif" font-size="14.00" fill="#000000">+son</text>
<text text-anchor="middle" x="458.9452" y="-42.3" font-family="Times,serif" font-size="14.00" fill="#000000">+cons</text>
<text text-anchor="middle" x="458.9452" y="-25.5" font-family="Times,serif" font-size="14.00" fill="#000000">+nas</text>
<text text-anchor="middle" x="458.9452" y="-8.7" font-family="Times,serif" font-size="14.00" fill="#000000">+LAB</text>
</g>
<!-- nasals&#45;&gt;m -->
<g id="edge28" class="edge">
<title>nasals:feats&#45;&gt;m:segs</title>
<path fill="none" stroke="#000000" d="M537,-162.3C537,-161.806 505.323,-115.6901 491.896,-96.6163"/>
<polygon fill="#000000" stroke="#000000" points="494.7091,-94.5335 486,-88.5 489.0457,-98.6477 494.7091,-94.5335"/>
</g>
<!-- n -->
<g id="node21" class="node">
<title>n</title>
<polygon fill="none" stroke="#000000" points="576,-.5 576,-100.5 630,-100.5 630,-.5 576,-.5"/>
<text text-anchor="middle" x="602.8372" y="-83.9" font-family="Times,serif" font-size="14.00" fill="#000000">n</text>
<polyline fill="none" stroke="#000000" points="576,-75.7 629.6744,-75.7 "/>
<text text-anchor="middle" x="602.8372" y="-59.1" font-family="Times,serif" font-size="14.00" fill="#000000">+son</text>
<text text-anchor="middle" x="602.8372" y="-42.3" font-family="Times,serif" font-size="14.00" fill="#000000">+cons</text>
<text text-anchor="middle" x="602.8372" y="-25.5" font-family="Times,serif" font-size="14.00" fill="#000000">+nas</text>
<text text-anchor="middle" x="602.8372" y="-8.7" font-family="Times,serif" font-size="14.00" fill="#000000">+COR</text>
</g>
<!-- nasals&#45;&gt;n -->
<g id="edge30" class="edge">
<title>nasals:feats&#45;&gt;n:segs</title>
<path fill="none" stroke="#000000" d="M537,-162.3C537,-158.6409 558.3949,-114.807 569.6991,-96.4774"/>
<polygon fill="#000000" stroke="#000000" points="572.5483,-98.5168 576,-88.5 567.0551,-94.178 572.5483,-98.5168"/>
</g>
<!-- N -->
<g id="node22" class="node">
<title>N</title>
<polygon fill="none" stroke="#000000" points="504,-.5 504,-100.5 558,-100.5 558,-.5 504,-.5"/>
<text text-anchor="middle" x="530.7222" y="-83.9" font-family="Times,serif" font-size="14.00" fill="#000000">ŋ</text>
<polyline fill="none" stroke="#000000" points="504,-75.7 557.4444,-75.7 "/>
<text text-anchor="middle" x="530.7222" y="-59.1" font-family="Times,serif" font-size="14.00" fill="#000000">+son</text>
<text text-anchor="middle" x="530.7222" y="-42.3" font-family="Times,serif" font-size="14.00" fill="#000000">+cons</text>
<text text-anchor="middle" x="530.7222" y="-25.5" font-family="Times,serif" font-size="14.00" fill="#000000">+nas</text>
<text text-anchor="middle" x="530.7222" y="-8.7" font-family="Times,serif" font-size="14.00" fill="#000000">+DOR</text>
</g>
<!-- nasals&#45;&gt;N -->
<g id="edge32" class="edge">
<title>nasals:feats&#45;&gt;N:segs</title>
<path fill="none" stroke="#000000" d="M537,-162.3C537,-138.4771 532.5285,-130.2951 531.3058,-110.749"/>
<polygon fill="#000000" stroke="#000000" points="534.7968,-110.3911 531,-100.5 527.7999,-110.6 534.7968,-110.3911"/>
</g>
<!-- l -->
<g id="node18" class="node">
<title>l</title>
<polygon fill="none" stroke="#000000" points="648,-.5 648,-100.5 702,-100.5 702,-.5 648,-.5"/>
<text text-anchor="middle" x="674.7769" y="-83.9" font-family="Times,serif" font-size="14.00" fill="#000000">l</text>
<polyline fill="none" stroke="#000000" points="648,-75.7 701.5538,-75.7 "/>
<text text-anchor="middle" x="674.7769" y="-59.1" font-family="Times,serif" font-size="14.00" fill="#000000">+son</text>
<text text-anchor="middle" x="674.7769" y="-42.3" font-family="Times,serif" font-size="14.00" fill="#000000">+cons</text>
<text text-anchor="middle" x="674.7769" y="-25.5" font-family="Times,serif" font-size="14.00" fill="#000000">&#45;nas</text>
<text text-anchor="middle" x="674.7769" y="-8.7" font-family="Times,serif" font-size="14.00" fill="#000000">+lat</text>
</g>
<!-- liquids&#45;&gt;l -->
<g id="edge25" class="edge">
<title>liquids:feats&#45;&gt;l:segs</title>
<path fill="none" stroke="#000000" d="M675,-154.3C675,-134.125 675,-126.717 675,-110.5317"/>
<polygon fill="#000000" stroke="#000000" points="678.5001,-110.5 675,-100.5 671.5001,-110.5 678.5001,-110.5"/>
<text text-anchor="middle" x="685.9452" y="-123.2" font-family="Times,serif" font-size="14.00" fill="#000000">+lat</text>
</g>
<!-- r -->
<g id="node19" class="node">
<title>r</title>
<polygon fill="none" stroke="#000000" points="720,-.5 720,-100.5 774,-100.5 774,-.5 720,-.5"/>
<text text-anchor="middle" x="746.7769" y="-83.9" font-family="Times,serif" font-size="14.00" fill="#000000">r</text>
<polyline fill="none" stroke="#000000" points="720,-75.7 773.5538,-75.7 "/>
<text text-anchor="middle" x="746.7769" y="-59.1" font-family="Times,serif" font-size="14.00" fill="#000000">+son</text>
<text text-anchor="middle" x="746.7769" y="-42.3" font-family="Times,serif" font-size="14.00" fill="#000000">+cons</text>
<text text-anchor="middle" x="746.7769" y="-25.5" font-family="Times,serif" font-size="14.00" fill="#000000">&#45;nas</text>
<text text-anchor="middle" x="746.7769" y="-8.7" font-family="Times,serif" font-size="14.00" fill="#000000">&#45;lat</text>
</g>
<!-- liquids&#45;&gt;r -->
<g id="edge26" class="edge">
<title>liquids:feats&#45;&gt;r:segs</title>
<path fill="none" stroke="#000000" d="M675,-154.3C675,-140.1178 689.5948,-144.2295 701,-135.8 718.4862,-122.8761 739.2125,-124.9771 745.2625,-110.4694"/>
<polygon fill="#000000" stroke="#000000" points="748.731,-110.9525 747,-100.5 741.835,-109.7506 748.731,-110.9525"/>
<text text-anchor="middle" x="746.3282" y="-123.2" font-family="Times,serif" font-size="14.00" fill="#000000">&#45;lat</text>
</g>
<!-- corSon&#45;&gt;liquids -->
<g id="edge11" class="edge">
<title>corSon:feats&#45;&gt;liquids:segs</title>
<path fill="none" stroke="#00ff00" stroke-dasharray="5,2" d="M609,-307.7C609,-298.2865 615.1578,-297.6727 620,-289.6 630.4063,-272.251 626.0258,-251.1984 638.0866,-244.474"/>
<polygon fill="#00ff00" stroke="#00ff00" points="638.9819,-247.861 648,-242.3 637.4824,-241.0234 638.9819,-247.861"/>
</g>
<!-- corSon&#45;&gt;n -->
<g id="edge29" class="edge">
<title>corSon:feats&#45;&gt;n:segs</title>
<path fill="none" stroke="#000000" d="M609,-307.7C609,-219.0813 603.4483,-194.4756 603.0254,-110.7329"/>
<polygon fill="#000000" stroke="#000000" points="606.525,-110.4912 603,-100.5 599.525,-110.5087 606.525,-110.4912"/>
</g>
<!-- labials&#45;&gt;labObstr -->
<g id="edge19" class="edge">
<title>labials:feats&#45;&gt;labObstr</title>
<path fill="none" stroke="#000000" d="M308,-450.5C206.586,-450.5 144.1438,-327.5909 116.2302,-255.4576"/>
<polygon fill="#000000" stroke="#000000" points="119.4892,-254.1805 112.6788,-246.0645 112.9415,-256.6561 119.4892,-254.1805"/>
</g>
<!-- labials&#45;&gt;m -->
<g id="edge27" class="edge">
<title>labials:feats&#45;&gt;m:segs</title>
<path fill="none" stroke="#000000" d="M362,-450.5C364.847,-450.5 422.2525,-257.5471 423,-254.8 440.5511,-190.3018 457.2191,-172.6717 458.8667,-110.8204"/>
<polygon fill="#000000" stroke="#000000" points="462.3705,-110.5444 459,-100.5 455.371,-110.4539 462.3705,-110.5444"/>
</g>
<!-- coronals&#45;&gt;corSon -->
<g id="edge17" class="edge">
<title>coronals:feats&#45;&gt;corSon:segs</title>
<path fill="none" stroke="#000000" d="M487,-429.5C487,-409.6459 551.5457,-402.9104 568,-391.8 570.9794,-389.7882 572.42,-387.1424 573.7297,-384.7555"/>
<polygon fill="#000000" stroke="#000000" points="575.9993,-387.4317 582,-378.7 571.8639,-381.7838 575.9993,-387.4317"/>
</g>
<!-- coronals&#45;&gt;corObstr -->
<g id="edge21" class="edge">
<title>coronals:feats&#45;&gt;corObstr</title>
<path fill="none" stroke="#000000" d="M487,-429.5C487,-361.9233 448.923,-291.9958 419.761,-248.3498"/>
<polygon fill="#000000" stroke="#000000" points="422.5828,-246.2752 414.0614,-239.9795 416.7969,-250.2151 422.5828,-246.2752"/>
</g>
<!-- dorsals&#45;&gt;dorObstr -->
<g id="edge23" class="edge">
<title>dorsals:feats&#45;&gt;dorObstr</title>
<path fill="none" stroke="#000000" d="M380,-450.5C375.0126,-450.5 344.7413,-328.0921 327.322,-255.8999"/>
<polygon fill="#000000" stroke="#000000" points="330.6975,-254.967 324.9533,-246.0645 323.892,-256.606 330.6975,-254.967"/>
</g>
<!-- dorsals&#45;&gt;N -->
<g id="edge31" class="edge">
<title>dorsals:feats&#45;&gt;N:segs</title>
<path fill="none" stroke="#000000" d="M433,-450.5C451.653,-450.5 478.1899,-150.6248 498.2595,-96.741"/>
<polygon fill="#000000" stroke="#000000" points="501.1561,-98.706 504,-88.5 495.4123,-94.705 501.1561,-98.706"/>
</g>
<!-- b -->
<g id="node23" class="node">
<title>b</title>
<polygon fill="none" stroke="#000000" points="72,-.5 72,-100.5 126,-100.5 126,-.5 72,-.5"/>
<text text-anchor="middle" x="98.9452" y="-83.9" font-family="Times,serif" font-size="14.00" fill="#000000">b</text>
<polyline fill="none" stroke="#000000" points="72,-75.7 125.8904,-75.7 "/>
<text text-anchor="middle" x="98.9452" y="-59.1" font-family="Times,serif" font-size="14.00" fill="#000000">&#45;son</text>
<text text-anchor="middle" x="98.9452" y="-42.3" font-family="Times,serif" font-size="14.00" fill="#000000">+cons</text>
<text text-anchor="middle" x="98.9452" y="-25.5" font-family="Times,serif" font-size="14.00" fill="#000000">+vcd</text>
<text text-anchor="middle" x="98.9452" y="-8.7" font-family="Times,serif" font-size="14.00" fill="#000000">+LAB</text>
</g>
<!-- voiced&#45;&gt;b -->
<g id="edge34" class="edge">
<title>voiced:feats&#45;&gt;b:segs</title>
<path fill="none" stroke="#000000" d="M216,-192.3C198.4276,-192.3 216.7504,-168.4191 207,-153.8 199.403,-142.4096 193.0576,-143.8738 182,-135.8 161.0086,-120.4728 153.256,-119.5009 135,-101 133.6477,-99.6295 132.8856,-98.0412 132.3365,-96.4659"/>
<polygon fill="#000000" stroke="#000000" points="134.9644,-94.1472 126,-88.5 129.4861,-98.5049 134.9644,-94.1472"/>
</g>
<!-- d -->
<g id="node25" class="node">
<title>d</title>
<polygon fill="none" stroke="#000000" points="360,-.5 360,-100.5 414,-100.5 414,-.5 360,-.5"/>
<text text-anchor="middle" x="386.8372" y="-83.9" font-family="Times,serif" font-size="14.00" fill="#000000">d</text>
<polyline fill="none" stroke="#000000" points="360,-75.7 413.6744,-75.7 "/>
<text text-anchor="middle" x="386.8372" y="-59.1" font-family="Times,serif" font-size="14.00" fill="#000000">&#45;son</text>
<text text-anchor="middle" x="386.8372" y="-42.3" font-family="Times,serif" font-size="14.00" fill="#000000">+cons</text>
<text text-anchor="middle" x="386.8372" y="-25.5" font-family="Times,serif" font-size="14.00" fill="#000000">+vcd</text>
<text text-anchor="middle" x="386.8372" y="-8.7" font-family="Times,serif" font-size="14.00" fill="#000000">+COR</text>
</g>
<!-- voiced&#45;&gt;d -->
<g id="edge38" class="edge">
<title>voiced:feats&#45;&gt;d:segs</title>
<path fill="none" stroke="#000000" d="M243,-162.3C243,-148.5018 340.7318,-110.2172 351,-101 352.4328,-99.7139 353.23,-98.1624 353.7882,-96.5966"/>
<polygon fill="#000000" stroke="#000000" points="356.6898,-98.5645 360,-88.5 351.136,-94.3035 356.6898,-98.5645"/>
</g>
<!-- g -->
<g id="node27" class="node">
<title>g</title>
<polygon fill="none" stroke="#000000" points="288,-.5 288,-100.5 342,-100.5 342,-.5 288,-.5"/>
<text text-anchor="middle" x="314.7222" y="-83.9" font-family="Times,serif" font-size="14.00" fill="#000000">g</text>
<polyline fill="none" stroke="#000000" points="288,-75.7 341.4444,-75.7 "/>
<text text-anchor="middle" x="314.7222" y="-59.1" font-family="Times,serif" font-size="14.00" fill="#000000">&#45;son</text>
<text text-anchor="middle" x="314.7222" y="-42.3" font-family="Times,serif" font-size="14.00" fill="#000000">+cons</text>
<text text-anchor="middle" x="314.7222" y="-25.5" font-family="Times,serif" font-size="14.00" fill="#000000">+vcd</text>
<text text-anchor="middle" x="314.7222" y="-8.7" font-family="Times,serif" font-size="14.00" fill="#000000">+DOR</text>
</g>
<!-- voiced&#45;&gt;g -->
<g id="edge42" class="edge">
<title>voiced:feats&#45;&gt;g:segs</title>
<path fill="none" stroke="#000000" d="M243,-162.3C243,-160.4054 269.5229,-115.5514 281.8919,-96.7129"/>
<polygon fill="#000000" stroke="#000000" points="284.8407,-98.6129 288,-88.5 279.2238,-94.4354 284.8407,-98.6129"/>
</g>
<!-- p -->
<g id="node24" class="node">
<title>p</title>
<polygon fill="none" stroke="#000000" points="0,-.5 0,-100.5 54,-100.5 54,-.5 0,-.5"/>
<text text-anchor="middle" x="26.9452" y="-83.9" font-family="Times,serif" font-size="14.00" fill="#000000">p</text>
<polyline fill="none" stroke="#000000" points="0,-75.7 53.8904,-75.7 "/>
<text text-anchor="middle" x="26.9452" y="-59.1" font-family="Times,serif" font-size="14.00" fill="#000000">&#45;son</text>
<text text-anchor="middle" x="26.9452" y="-42.3" font-family="Times,serif" font-size="14.00" fill="#000000">+cons</text>
<text text-anchor="middle" x="26.9452" y="-25.5" font-family="Times,serif" font-size="14.00" fill="#000000">&#45;vcd</text>
<text text-anchor="middle" x="26.9452" y="-8.7" font-family="Times,serif" font-size="14.00" fill="#000000">+LAB</text>
</g>
<!-- voiceless&#45;&gt;p -->
<g id="edge36" class="edge">
<title>voiceless:feats&#45;&gt;p:segs</title>
<path fill="none" stroke="#000000" d="M144,-192.3C126.4276,-192.3 144.6866,-168.4615 135,-153.8 113.1257,-120.6911 90.9369,-129.1818 63,-101 61.6445,-99.6326 60.8811,-98.0456 60.3316,-96.4707"/>
<polygon fill="#000000" stroke="#000000" points="62.9606,-94.1532 54,-88.5 57.4794,-98.5072 62.9606,-94.1532"/>
</g>
<!-- t -->
<g id="node26" class="node">
<title>t</title>
<polygon fill="none" stroke="#000000" points="216,-.5 216,-100.5 270,-100.5 270,-.5 216,-.5"/>
<text text-anchor="middle" x="242.8372" y="-83.9" font-family="Times,serif" font-size="14.00" fill="#000000">t</text>
<polyline fill="none" stroke="#000000" points="216,-75.7 269.6744,-75.7 "/>
<text text-anchor="middle" x="242.8372" y="-59.1" font-family="Times,serif" font-size="14.00" fill="#000000">&#45;son</text>
<text text-anchor="middle" x="242.8372" y="-42.3" font-family="Times,serif" font-size="14.00" fill="#000000">+cons</text>
<text text-anchor="middle" x="242.8372" y="-25.5" font-family="Times,serif" font-size="14.00" fill="#000000">&#45;vcd</text>
<text text-anchor="middle" x="242.8372" y="-8.7" font-family="Times,serif" font-size="14.00" fill="#000000">+COR</text>
</g>
<!-- voiceless&#45;&gt;t -->
<g id="edge40" class="edge">
<title>voiceless:feats&#45;&gt;t:segs</title>
<path fill="none" stroke="#000000" d="M171,-162.3C171,-144.3443 223.2114,-127.445 238.7117,-109.8029"/>
<polygon fill="#000000" stroke="#000000" points="241.9922,-111.0468 243,-100.5 235.6351,-108.1164 241.9922,-111.0468"/>
</g>
<!-- k -->
<g id="node28" class="node">
<title>k</title>
<polygon fill="none" stroke="#000000" points="144,-.5 144,-100.5 198,-100.5 198,-.5 144,-.5"/>
<text text-anchor="middle" x="170.7222" y="-83.9" font-family="Times,serif" font-size="14.00" fill="#000000">k</text>
<polyline fill="none" stroke="#000000" points="144,-75.7 197.4444,-75.7 "/>
<text text-anchor="middle" x="170.7222" y="-59.1" font-family="Times,serif" font-size="14.00" fill="#000000">&#45;son</text>
<text text-anchor="middle" x="170.7222" y="-42.3" font-family="Times,serif" font-size="14.00" fill="#000000">+cons</text>
<text text-anchor="middle" x="170.7222" y="-25.5" font-family="Times,serif" font-size="14.00" fill="#000000">+vcd</text>
<text text-anchor="middle" x="170.7222" y="-8.7" font-family="Times,serif" font-size="14.00" fill="#000000">+DOR</text>
</g>
<!-- voiceless&#45;&gt;k -->
<g id="edge44" class="edge">
<title>voiceless:feats&#45;&gt;k:segs</title>
<path fill="none" stroke="#000000" d="M171,-162.3C171,-138.5885 171,-130.2293 171,-110.7157"/>
<polygon fill="#000000" stroke="#000000" points="174.5001,-110.5 171,-100.5 167.5001,-110.5 174.5001,-110.5"/>
</g>
<!-- labObstr&#45;&gt;b -->
<g id="edge33" class="edge">
<title>labObstr:feats&#45;&gt;b:segs</title>
<path fill="none" stroke="#000000" d="M99,-162.3C99,-138.5885 99,-130.2293 99,-110.7157"/>
<polygon fill="#000000" stroke="#000000" points="102.5001,-110.5 99,-100.5 95.5001,-110.5 102.5001,-110.5"/>
</g>
<!-- labObstr&#45;&gt;p -->
<g id="edge35" class="edge">
<title>labObstr:feats&#45;&gt;p:segs</title>
<path fill="none" stroke="#000000" d="M99,-162.3C99,-139.4716 72.1452,-150.8725 55,-135.8 43.0152,-125.264 32.3509,-121.8201 28.513,-110.7225"/>
<polygon fill="#000000" stroke="#000000" points="31.9265,-109.8798 27,-100.5 25.0019,-110.9047 31.9265,-109.8798"/>
</g>
<!-- corObstr&#45;&gt;d -->
<g id="edge37" class="edge">
<title>corObstr:feats&#45;&gt;d:segs</title>
<path fill="none" stroke="#000000" d="M387,-162.3C387,-138.5885 387,-130.2293 387,-110.7157"/>
<polygon fill="#000000" stroke="#000000" points="390.5001,-110.5 387,-100.5 383.5001,-110.5 390.5001,-110.5"/>
</g>
<!-- corObstr&#45;&gt;t -->
<g id="edge39" class="edge">
<title>corObstr:feats&#45;&gt;t:segs</title>
<path fill="none" stroke="#000000" d="M360,-192.3C342.4276,-192.3 361.9259,-167.5628 351,-153.8 320.1887,-114.9887 253.8628,-148.2337 244.1873,-110.9106"/>
<polygon fill="#000000" stroke="#000000" points="247.6106,-110.039 243,-100.5 240.6557,-110.8322 247.6106,-110.039"/>
</g>
<!-- dorObstr&#45;&gt;g -->
<g id="edge41" class="edge">
<title>dorObstr:feats&#45;&gt;g:segs</title>
<path fill="none" stroke="#000000" d="M315,-162.3C315,-138.5885 315,-130.2293 315,-110.7157"/>
<polygon fill="#000000" stroke="#000000" points="318.5001,-110.5 315,-100.5 311.5001,-110.5 318.5001,-110.5"/>
</g>
<!-- dorObstr&#45;&gt;k -->
<g id="edge43" class="edge">
<title>dorObstr:feats&#45;&gt;k:segs</title>
<path fill="none" stroke="#000000" d="M288,-192.3C270.4276,-192.3 289.9259,-167.5628 279,-153.8 264.5044,-135.5407 193.312,-128.9566 175.1986,-109.8721"/>
<polygon fill="#000000" stroke="#000000" points="178.2825,-108.1951 171,-100.5 171.8943,-111.057 178.2825,-108.1951"/>
</g>
</g>
</svg>
