<?xml version="1.0" encoding="UTF-8" standalone="no"?>
<!DOCTYPE svg PUBLIC "-//W3C//DTD SVG 1.1//EN"
 "http://www.w3.org/Graphics/SVG/1.1/DTD/svg11.dtd">
<!-- Generated by graphviz version 2.40.1 (20161225.0304)
 -->
<!-- Title: %3 Pages: 1 -->
<svg width="816pt" height="996pt"
 viewBox="0.00 0.00 816.00 995.80" xmlns="http://www.w3.org/2000/svg" xmlns:xlink="http://www.w3.org/1999/xlink">
<g id="graph0" class="graph" transform="scale(1 1) rotate(0) translate(4 991.8)">
<title>%3</title>
<polygon fill="#ffffff" stroke="transparent" points="-4,4 -4,-991.8 812,-991.8 812,4 -4,4"/>
<!-- SIGMA -->
<g id="node1" class="node">
<title>SIGMA</title>
<polygon fill="none" stroke="#000000" stroke-width="2" points="469,-870.5 469,-987.3 523,-987.3 523,-870.5 469,-870.5"/>
<text text-anchor="middle" x="495.5256" y="-970.7" font-family="Times,serif" font-size="14.00" fill="#000000">i a u</text>
<text text-anchor="middle" x="495.5256" y="-953.9" font-family="Times,serif" font-size="14.00" fill="#000000">l r</text>
<text text-anchor="middle" x="495.5256" y="-937.1" font-family="Times,serif" font-size="14.00" fill="#000000">m n ŋ</text>
<text text-anchor="middle" x="495.5256" y="-920.3" font-family="Times,serif" font-size="14.00" fill="#000000">b d g</text>
<text text-anchor="middle" x="495.5256" y="-903.5" font-family="Times,serif" font-size="14.00" fill="#000000">p t k</text>
<polyline fill="none" stroke="#000000" stroke-width="2" points="469,-895.3 522.0512,-895.3 "/>
<text text-anchor="middle" x="495.5256" y="-878.7" font-family="Times,serif" font-size="14.00" fill="#000000"> </text>
</g>
<!-- CONS -->
<g id="node2" class="node">
<title>CONS</title>
<polygon fill="none" stroke="#000000" stroke-width="2" points="409,-716.7 409,-816.7 463,-816.7 463,-716.7 409,-716.7"/>
<text text-anchor="middle" x="435.7769" y="-800.1" font-family="Times,serif" font-size="14.00" fill="#000000">l r</text>
<text text-anchor="middle" x="435.7769" y="-783.3" font-family="Times,serif" font-size="14.00" fill="#000000">m n ŋ</text>
<text text-anchor="middle" x="435.7769" y="-766.5" font-family="Times,serif" font-size="14.00" fill="#000000">b d g</text>
<text text-anchor="middle" x="435.7769" y="-749.7" font-family="Times,serif" font-size="14.00" fill="#000000">p t k</text>
<polyline fill="none" stroke="#000000" stroke-width="2" points="409,-741.5 462.5538,-741.5 "/>
<text text-anchor="middle" x="435.7769" y="-724.9" font-family="Times,serif" font-size="14.00" fill="#000000">+cons</text>
</g>
<!-- SIGMA&#45;&gt;CONS -->
<g id="edge1" class="edge">
<title>SIGMA&#45;&gt;CONS</title>
<path fill="none" stroke="#ff0000" d="M474.3386,-870.3421C469.0749,-856.1125 463.4392,-840.8772 458.153,-826.587"/>
<polygon fill="#ff0000" stroke="#ff0000" points="461.3102,-825.0333 454.5581,-816.8688 454.7449,-827.4619 461.3102,-825.0333"/>
<text text-anchor="middle" x="482.7769" y="-839.4" font-family="Times,serif" font-size="14.00" fill="#ff0000">+cons</text>
</g>
<!-- SON -->
<g id="node3" class="node">
<title>SON</title>
<polygon fill="none" stroke="#000000" stroke-width="2" points="559,-725.1 559,-808.3 613,-808.3 613,-725.1 559,-725.1"/>
<text text-anchor="middle" x="585.5256" y="-791.7" font-family="Times,serif" font-size="14.00" fill="#000000">i a u</text>
<text text-anchor="middle" x="585.5256" y="-774.9" font-family="Times,serif" font-size="14.00" fill="#000000">l r</text>
<text text-anchor="middle" x="585.5256" y="-758.1" font-family="Times,serif" font-size="14.00" fill="#000000">m n ŋ</text>
<polyline fill="none" stroke="#000000" stroke-width="2" points="559,-749.9 612.0512,-749.9 "/>
<text text-anchor="middle" x="585.5256" y="-733.3" font-family="Times,serif" font-size="14.00" fill="#000000">+son</text>
</g>
<!-- SIGMA&#45;&gt;SON -->
<g id="edge2" class="edge">
<title>SIGMA&#45;&gt;SON</title>
<path fill="none" stroke="#ff0000" d="M523.003,-880.2347C534.0037,-860.409 546.7223,-837.4871 557.8389,-817.4526"/>
<polygon fill="#ff0000" stroke="#ff0000" points="561.0304,-818.9145 562.8218,-808.4722 554.9095,-815.5181 561.0304,-818.9145"/>
<text text-anchor="middle" x="559.6696" y="-839.4" font-family="Times,serif" font-size="14.00" fill="#ff0000">+son</text>
</g>
<!-- OBSTR -->
<g id="node4" class="node">
<title>OBSTR</title>
<polygon fill="none" stroke="#000000" stroke-width="2" points="228,-400.7 228,-483.9 282,-483.9 282,-400.7 228,-400.7"/>
<text text-anchor="middle" x="254.7769" y="-467.3" font-family="Times,serif" font-size="14.00" fill="#000000">b d g</text>
<text text-anchor="middle" x="254.7769" y="-450.5" font-family="Times,serif" font-size="14.00" fill="#000000">p t k</text>
<polyline fill="none" stroke="#000000" stroke-width="2" points="228,-442.3 281.5538,-442.3 "/>
<text text-anchor="middle" x="254.7769" y="-425.7" font-family="Times,serif" font-size="14.00" fill="#000000">&#45;son</text>
<text text-anchor="middle" x="254.7769" y="-408.9" font-family="Times,serif" font-size="14.00" fill="#000000">+cons</text>
</g>
<!-- SIGMA&#45;&gt;OBSTR -->
<g id="edge17" class="edge">
<title>SIGMA&#45;&gt;OBSTR</title>
<path fill="none" stroke="#0000ff" d="M468.8128,-910.1897C415.374,-871.5273 298.1046,-776.8795 255,-663.4 234.1547,-608.5215 238.2152,-540.3046 244.8636,-494.2712"/>
<polygon fill="#0000ff" stroke="#0000ff" points="248.3482,-494.6381 246.4068,-484.2227 241.4293,-493.5755 248.3482,-494.6381"/>
<text text-anchor="middle" x="283.0526" y="-685.6" font-family="Times,serif" font-size="14.00" fill="#0000ff">&#45;son</text>
</g>
<!-- VOWL -->
<g id="node5" class="node">
<title>VOWL</title>
<polygon fill="none" stroke="#000000" stroke-width="2" points="631,-579.7 631,-629.3 685,-629.3 685,-579.7 631,-579.7"/>
<text text-anchor="middle" x="657.6696" y="-612.7" font-family="Times,serif" font-size="14.00" fill="#000000">i a u</text>
<polyline fill="none" stroke="#000000" stroke-width="2" points="631,-604.5 684.3392,-604.5 "/>
<text text-anchor="middle" x="657.6696" y="-587.9" font-family="Times,serif" font-size="14.00" fill="#000000">+son</text>
</g>
<!-- SIGMA&#45;&gt;VOWL -->
<g id="edge16" class="edge">
<title>SIGMA&#45;&gt;VOWL</title>
<path fill="none" stroke="#0000ff" d="M523.0394,-912.9236C552.4658,-894.0021 598.4554,-859.6327 622,-817.2 653.308,-760.776 658.7805,-683.9567 659.0121,-639.7529"/>
<polygon fill="#0000ff" stroke="#0000ff" points="662.5113,-639.5006 658.974,-629.5137 655.5113,-639.5267 662.5113,-639.5006"/>
<text text-anchor="middle" x="668.1599" y="-762.5" font-family="Times,serif" font-size="14.00" fill="#0000ff">&#45;cons</text>
</g>
<!-- CONS&#45;&gt;OBSTR -->
<g id="edge3" class="edge">
<title>CONS&#45;&gt;OBSTR</title>
<path fill="none" stroke="#00ff00" stroke-dasharray="1,5" d="M411.3984,-716.3042C385.4378,-664.0619 342.5966,-580.4455 301,-510.8 296.9199,-503.9686 292.4447,-496.8768 287.9379,-489.9591"/>
<polygon fill="#00ff00" stroke="#00ff00" points="290.6684,-487.7422 282.2398,-481.3226 284.8255,-491.5971 290.6684,-487.7422"/>
</g>
<!-- LAB -->
<g id="node9" class="node">
<title>LAB</title>
<polygon fill="none" stroke="#000000" stroke-width="2" points="95,-392.3 95,-492.3 149,-492.3 149,-392.3 95,-392.3"/>
<text text-anchor="middle" x="121.7769" y="-475.7" font-family="Times,serif" font-size="14.00" fill="#000000">m</text>
<text text-anchor="middle" x="121.7769" y="-458.9" font-family="Times,serif" font-size="14.00" fill="#000000">b</text>
<text text-anchor="middle" x="121.7769" y="-442.1" font-family="Times,serif" font-size="14.00" fill="#000000">p</text>
<polyline fill="none" stroke="#000000" stroke-width="2" points="95,-433.9 148.5538,-433.9 "/>
<text text-anchor="middle" x="121.7769" y="-417.3" font-family="Times,serif" font-size="14.00" fill="#000000">+cons</text>
<text text-anchor="middle" x="121.7769" y="-400.5" font-family="Times,serif" font-size="14.00" fill="#000000">+lab</text>
</g>
<!-- CONS&#45;&gt;LAB -->
<g id="edge4" class="edge">
<title>CONS&#45;&gt;LAB</title>
<path fill="none" stroke="#ff0000" d="M408.9504,-750.4843C378.8145,-731.6945 329.5328,-698.7562 293.0002,-663.4 238.5076,-610.6622 186.8226,-539.9203 154.8236,-492.8076"/>
<polygon fill="#ff0000" stroke="#ff0000" points="157.5754,-490.6282 149.0816,-484.2953 151.7723,-494.5428 157.5754,-490.6282"/>
<text text-anchor="middle" x="305.4999" y="-600.3" font-family="Times,serif" font-size="14.00" fill="#ff0000">+lab</text>
</g>
<!-- COR -->
<g id="node10" class="node">
<title>COR</title>
<polygon fill="none" stroke="#000000" stroke-width="2" points="465,-546.1 465,-662.9 519,-662.9 519,-546.1 465,-546.1"/>
<text text-anchor="middle" x="491.7769" y="-646.3" font-family="Times,serif" font-size="14.00" fill="#000000">l r</text>
<text text-anchor="middle" x="491.7769" y="-629.5" font-family="Times,serif" font-size="14.00" fill="#000000">n</text>
<text text-anchor="middle" x="491.7769" y="-612.7" font-family="Times,serif" font-size="14.00" fill="#000000">d</text>
<text text-anchor="middle" x="491.7769" y="-595.9" font-family="Times,serif" font-size="14.00" fill="#000000">t</text>
<polyline fill="none" stroke="#000000" stroke-width="2" points="465,-587.7 518.5538,-587.7 "/>
<text text-anchor="middle" x="491.7769" y="-571.1" font-family="Times,serif" font-size="14.00" fill="#000000">+cons</text>
<text text-anchor="middle" x="491.7769" y="-554.3" font-family="Times,serif" font-size="14.00" fill="#000000">+cor</text>
</g>
<!-- CONS&#45;&gt;COR -->
<g id="edge5" class="edge">
<title>CONS&#45;&gt;COR</title>
<path fill="none" stroke="#ff0000" d="M453.4118,-716.268C458.179,-702.4602 463.4264,-687.2615 468.4746,-672.6398"/>
<polygon fill="#ff0000" stroke="#ff0000" points="471.8009,-673.7297 471.7561,-663.1349 465.1842,-671.4452 471.8009,-673.7297"/>
<text text-anchor="middle" x="476.8849" y="-685.6" font-family="Times,serif" font-size="14.00" fill="#ff0000">+cor</text>
</g>
<!-- DOR -->
<g id="node11" class="node">
<title>DOR</title>
<polygon fill="none" stroke="#000000" stroke-width="2" points="393,-392.3 393,-492.3 447,-492.3 447,-392.3 393,-392.3"/>
<text text-anchor="middle" x="419.7769" y="-475.7" font-family="Times,serif" font-size="14.00" fill="#000000">ŋ</text>
<text text-anchor="middle" x="419.7769" y="-458.9" font-family="Times,serif" font-size="14.00" fill="#000000">g</text>
<text text-anchor="middle" x="419.7769" y="-442.1" font-family="Times,serif" font-size="14.00" fill="#000000">k</text>
<polyline fill="none" stroke="#000000" stroke-width="2" points="393,-433.9 446.5538,-433.9 "/>
<text text-anchor="middle" x="419.7769" y="-417.3" font-family="Times,serif" font-size="14.00" fill="#000000">+cons</text>
<text text-anchor="middle" x="419.7769" y="-400.5" font-family="Times,serif" font-size="14.00" fill="#000000">+dor</text>
</g>
<!-- CONS&#45;&gt;DOR -->
<g id="edge6" class="edge">
<title>CONS&#45;&gt;DOR</title>
<path fill="none" stroke="#ff0000" d="M432.6074,-716.5352C431.5217,-699.6566 430.364,-680.7168 429.4448,-663.4 426.554,-608.9414 423.9653,-546.9003 422.2324,-502.4276"/>
<polygon fill="#ff0000" stroke="#ff0000" points="425.7272,-502.2239 421.8432,-492.3667 418.7324,-502.4945 425.7272,-502.2239"/>
<text text-anchor="middle" x="442.2776" y="-600.3" font-family="Times,serif" font-size="14.00" fill="#ff0000">+dor</text>
</g>
<!-- SONCONS -->
<g id="node15" class="node">
<title>SONCONS</title>
<polygon fill="none" stroke="#000000" points="559,-562.9 559,-646.1 613,-646.1 613,-562.9 559,-562.9"/>
<text text-anchor="middle" x="585.7769" y="-629.5" font-family="Times,serif" font-size="14.00" fill="#000000">l r</text>
<text text-anchor="middle" x="585.7769" y="-612.7" font-family="Times,serif" font-size="14.00" fill="#000000">m n ŋ</text>
<polyline fill="none" stroke="#000000" points="559,-604.5 612.5538,-604.5 "/>
<text text-anchor="middle" x="585.7769" y="-587.9" font-family="Times,serif" font-size="14.00" fill="#000000">+son</text>
<text text-anchor="middle" x="585.7769" y="-571.1" font-family="Times,serif" font-size="14.00" fill="#000000">+cons</text>
</g>
<!-- CONS&#45;&gt;SONCONS -->
<g id="edge13" class="edge">
<title>CONS&#45;&gt;SONCONS</title>
<path fill="none" stroke="#000000" stroke-dasharray="1,5" d="M463.1639,-737.3268C488.0414,-710.4259 524.9704,-670.4934 551.8389,-641.4395"/>
<polygon fill="#000000" stroke="#000000" points="554.5652,-643.6465 558.7852,-633.9283 549.426,-638.8937 554.5652,-643.6465"/>
</g>
<!-- SON&#45;&gt;VOWL -->
<g id="edge7" class="edge">
<title>SON&#45;&gt;VOWL</title>
<path fill="none" stroke="#00ff00" stroke-dasharray="1,5" d="M604.5418,-724.9295C616.4385,-698.1289 631.6913,-663.7676 642.8574,-638.6129"/>
<polygon fill="#00ff00" stroke="#00ff00" points="646.063,-640.0178 646.9213,-629.4578 639.6651,-637.1778 646.063,-640.0178"/>
</g>
<!-- SON&#45;&gt;SONCONS -->
<g id="edge12" class="edge">
<title>SON&#45;&gt;SONCONS</title>
<path fill="none" stroke="#000000" stroke-dasharray="1,5" d="M586,-724.9295C586,-704.0233 586,-678.5164 586,-656.3678"/>
<polygon fill="#000000" stroke="#000000" points="589.5001,-656.1289 586,-646.129 582.5001,-656.129 589.5001,-656.1289"/>
</g>
<!-- VCLS -->
<g id="node7" class="node">
<title>VCLS</title>
<polygon fill="none" stroke="#000000" stroke-width="2" points="189,-179.5 189,-262.7 243,-262.7 243,-179.5 189,-179.5"/>
<text text-anchor="middle" x="215.7769" y="-246.1" font-family="Times,serif" font-size="14.00" fill="#000000">p t k</text>
<polyline fill="none" stroke="#000000" stroke-width="2" points="189,-237.9 242.5538,-237.9 "/>
<text text-anchor="middle" x="215.7769" y="-221.3" font-family="Times,serif" font-size="14.00" fill="#000000">&#45;son</text>
<text text-anchor="middle" x="215.7769" y="-204.5" font-family="Times,serif" font-size="14.00" fill="#000000">+cons</text>
<text text-anchor="middle" x="215.7769" y="-187.7" font-family="Times,serif" font-size="14.00" fill="#000000">&#45;vcd</text>
</g>
<!-- OBSTR&#45;&gt;VCLS -->
<g id="edge9" class="edge">
<title>OBSTR&#45;&gt;VCLS</title>
<path fill="none" stroke="#0000ff" d="M250.1412,-400.6319C246.2718,-369.826 240.3015,-326.9261 233,-289.6 231.9415,-284.1887 230.7298,-278.5632 229.4515,-272.966"/>
<polygon fill="#0000ff" stroke="#0000ff" points="232.7974,-271.9049 227.0974,-262.9741 225.984,-273.5102 232.7974,-271.9049"/>
<text text-anchor="middle" x="259.4376" y="-327.5" font-family="Times,serif" font-size="14.00" fill="#0000ff">&#45;vcd</text>
</g>
<!-- VCD -->
<g id="node8" class="node">
<title>VCD</title>
<polygon fill="none" stroke="#000000" stroke-width="2" points="117,-179.5 117,-262.7 171,-262.7 171,-179.5 117,-179.5"/>
<text text-anchor="middle" x="143.7769" y="-246.1" font-family="Times,serif" font-size="14.00" fill="#000000">b d g</text>
<polyline fill="none" stroke="#000000" stroke-width="2" points="117,-237.9 170.5538,-237.9 "/>
<text text-anchor="middle" x="143.7769" y="-221.3" font-family="Times,serif" font-size="14.00" fill="#000000">&#45;son</text>
<text text-anchor="middle" x="143.7769" y="-204.5" font-family="Times,serif" font-size="14.00" fill="#000000">+cons</text>
<text text-anchor="middle" x="143.7769" y="-187.7" font-family="Times,serif" font-size="14.00" fill="#000000">+vcd</text>
</g>
<!-- OBSTR&#45;&gt;VCD -->
<g id="edge8" class="edge">
<title>OBSTR&#45;&gt;VCD</title>
<path fill="none" stroke="#ff0000" d="M227.7681,-412.044C218.4037,-400.6154 208.3978,-387.1393 200.8908,-373.8 182.8621,-341.7646 168.4785,-302.9101 158.6843,-272.4119"/>
<polygon fill="#ff0000" stroke="#ff0000" points="162.0072,-271.3111 155.6669,-262.8228 155.33,-273.4123 162.0072,-271.3111"/>
<text text-anchor="middle" x="215.0546" y="-327.5" font-family="Times,serif" font-size="14.00" fill="#ff0000">+vcd</text>
</g>
<!-- LABOBSTR -->
<g id="node16" class="node">
<title>LABOBSTR</title>
<polygon fill="none" stroke="#000000" points="45,-171.1 45,-271.1 99,-271.1 99,-171.1 45,-171.1"/>
<text text-anchor="middle" x="71.7769" y="-254.5" font-family="Times,serif" font-size="14.00" fill="#000000">b</text>
<text text-anchor="middle" x="71.7769" y="-237.7" font-family="Times,serif" font-size="14.00" fill="#000000">p</text>
<polyline fill="none" stroke="#000000" points="45,-229.5 98.5538,-229.5 "/>
<text text-anchor="middle" x="71.7769" y="-212.9" font-family="Times,serif" font-size="14.00" fill="#000000">&#45;son</text>
<text text-anchor="middle" x="71.7769" y="-196.1" font-family="Times,serif" font-size="14.00" fill="#000000">+cons</text>
<text text-anchor="middle" x="71.7769" y="-179.3" font-family="Times,serif" font-size="14.00" fill="#000000">+lab</text>
</g>
<!-- OBSTR&#45;&gt;LABOBSTR -->
<g id="edge19" class="edge">
<title>OBSTR&#45;&gt;LABOBSTR</title>
<path fill="none" stroke="#000000" stroke-dasharray="1,5" d="M227.8673,-426.4853C207.9808,-413.9658 181.2139,-395.0865 162,-373.8 158.1741,-369.5614 128.5249,-318.8967 104.2859,-277.0714"/>
<polygon fill="#000000" stroke="#000000" points="107.2469,-275.2003 99.2069,-268.3003 101.1892,-278.7081 107.2469,-275.2003"/>
</g>
<!-- COROBSTR -->
<g id="node17" class="node">
<title>COROBSTR</title>
<polygon fill="none" stroke="#000000" points="333,-171.1 333,-271.1 387,-271.1 387,-171.1 333,-171.1"/>
<text text-anchor="middle" x="359.7769" y="-254.5" font-family="Times,serif" font-size="14.00" fill="#000000">d</text>
<text text-anchor="middle" x="359.7769" y="-237.7" font-family="Times,serif" font-size="14.00" fill="#000000">t</text>
<polyline fill="none" stroke="#000000" points="333,-229.5 386.5538,-229.5 "/>
<text text-anchor="middle" x="359.7769" y="-212.9" font-family="Times,serif" font-size="14.00" fill="#000000">&#45;son</text>
<text text-anchor="middle" x="359.7769" y="-196.1" font-family="Times,serif" font-size="14.00" fill="#000000">+cons</text>
<text text-anchor="middle" x="359.7769" y="-179.3" font-family="Times,serif" font-size="14.00" fill="#000000">+cor</text>
</g>
<!-- OBSTR&#45;&gt;COROBSTR -->
<g id="edge21" class="edge">
<title>OBSTR&#45;&gt;COROBSTR</title>
<path fill="none" stroke="#000000" stroke-dasharray="1,5" d="M282.1449,-402.8555C288.0518,-393.5285 294.0176,-383.476 299,-373.8 314.3227,-344.0425 328.4052,-309.5125 339.1695,-280.8234"/>
<polygon fill="#000000" stroke="#000000" points="342.4934,-281.9263 342.6898,-271.3333 335.9303,-279.4918 342.4934,-281.9263"/>
</g>
<!-- DOROBSTR -->
<g id="node18" class="node">
<title>DOROBSTR</title>
<polygon fill="none" stroke="#000000" points="261,-171.1 261,-271.1 315,-271.1 315,-171.1 261,-171.1"/>
<text text-anchor="middle" x="287.7769" y="-254.5" font-family="Times,serif" font-size="14.00" fill="#000000">g</text>
<text text-anchor="middle" x="287.7769" y="-237.7" font-family="Times,serif" font-size="14.00" fill="#000000">k</text>
<polyline fill="none" stroke="#000000" points="261,-229.5 314.5538,-229.5 "/>
<text text-anchor="middle" x="287.7769" y="-212.9" font-family="Times,serif" font-size="14.00" fill="#000000">&#45;son</text>
<text text-anchor="middle" x="287.7769" y="-196.1" font-family="Times,serif" font-size="14.00" fill="#000000">+cons</text>
<text text-anchor="middle" x="287.7769" y="-179.3" font-family="Times,serif" font-size="14.00" fill="#000000">+dor</text>
</g>
<!-- OBSTR&#45;&gt;DOROBSTR -->
<g id="edge23" class="edge">
<title>OBSTR&#45;&gt;DOROBSTR</title>
<path fill="none" stroke="#000000" stroke-dasharray="1,5" d="M273.2391,-400.5395C276.352,-391.8507 279.1678,-382.6435 281,-373.8 287.2334,-343.7126 289.2603,-309.6059 289.6106,-281.2699"/>
<polygon fill="#000000" stroke="#000000" points="293.1113,-281.1293 289.6685,-271.1095 286.1115,-281.0894 293.1113,-281.1293"/>
</g>
<!-- NAS -->
<g id="node6" class="node">
<title>NAS</title>
<polygon fill="none" stroke="#000000" stroke-width="2" points="754,-290.1 754,-373.3 808,-373.3 808,-290.1 754,-290.1"/>
<text text-anchor="middle" x="780.7769" y="-356.7" font-family="Times,serif" font-size="14.00" fill="#000000">m n ŋ</text>
<polyline fill="none" stroke="#000000" stroke-width="2" points="754,-348.5 807.5538,-348.5 "/>
<text text-anchor="middle" x="780.7769" y="-331.9" font-family="Times,serif" font-size="14.00" fill="#000000">+son</text>
<text text-anchor="middle" x="780.7769" y="-315.1" font-family="Times,serif" font-size="14.00" fill="#000000">+cons</text>
<text text-anchor="middle" x="780.7769" y="-298.3" font-family="Times,serif" font-size="14.00" fill="#000000">+nas</text>
</g>
<!-- N -->
<g id="node22" class="node">
<title>N</title>
<polygon fill="none" stroke="#000000" points="754,-8.9 754,-108.9 808,-108.9 808,-8.9 754,-8.9"/>
<text text-anchor="middle" x="780.7769" y="-92.3" font-family="Times,serif" font-size="14.00" fill="#000000">n</text>
<polyline fill="none" stroke="#000000" points="754,-84.1 807.5538,-84.1 "/>
<text text-anchor="middle" x="780.7769" y="-67.5" font-family="Times,serif" font-size="14.00" fill="#000000">+son</text>
<text text-anchor="middle" x="780.7769" y="-50.7" font-family="Times,serif" font-size="14.00" fill="#000000">+cons</text>
<text text-anchor="middle" x="780.7769" y="-33.9" font-family="Times,serif" font-size="14.00" fill="#000000">+cor</text>
<text text-anchor="middle" x="780.7769" y="-17.1" font-family="Times,serif" font-size="14.00" fill="#000000">+nas</text>
</g>
<!-- NAS&#45;&gt;N -->
<g id="edge32" class="edge">
<title>NAS&#45;&gt;N</title>
<path fill="none" stroke="#000000" stroke-dasharray="1,5" d="M781,-289.9706C781,-244.354 781,-170.8621 781,-119.0277"/>
<polygon fill="#000000" stroke="#000000" points="784.5001,-118.9642 781,-108.9643 777.5001,-118.9643 784.5001,-118.9642"/>
</g>
<!-- P -->
<g id="node23" class="node">
<title>P</title>
<polygon fill="none" stroke="#000000" points="0,-8.9 0,-108.9 54,-108.9 54,-8.9 0,-8.9"/>
<text text-anchor="middle" x="26.7769" y="-92.3" font-family="Times,serif" font-size="14.00" fill="#000000">p</text>
<polyline fill="none" stroke="#000000" points="0,-84.1 53.5538,-84.1 "/>
<text text-anchor="middle" x="26.7769" y="-67.5" font-family="Times,serif" font-size="14.00" fill="#000000">&#45;son</text>
<text text-anchor="middle" x="26.7769" y="-50.7" font-family="Times,serif" font-size="14.00" fill="#000000">+cons</text>
<text text-anchor="middle" x="26.7769" y="-33.9" font-family="Times,serif" font-size="14.00" fill="#000000">+lab</text>
<text text-anchor="middle" x="26.7769" y="-17.1" font-family="Times,serif" font-size="14.00" fill="#000000">&#45;vcd</text>
</g>
<!-- VCLS&#45;&gt;P -->
<g id="edge33" class="edge">
<title>VCLS&#45;&gt;P</title>
<path fill="none" stroke="#000000" stroke-dasharray="1,5" d="M189.0219,-179.2577C186.1777,-176.1359 183.1615,-173.1971 180,-170.6 135.9172,-134.3869 105.7755,-155.5484 63,-117.8 62.312,-117.1929 61.633,-116.5694 60.963,-115.931"/>
<polygon fill="#000000" stroke="#000000" points="63.5086,-113.5288 54.1337,-108.593 58.3843,-118.2977 63.5086,-113.5288"/>
</g>
<!-- T -->
<g id="node24" class="node">
<title>T</title>
<polygon fill="none" stroke="#000000" points="394,-8.9 394,-108.9 448,-108.9 448,-8.9 394,-8.9"/>
<text text-anchor="middle" x="420.7769" y="-92.3" font-family="Times,serif" font-size="14.00" fill="#000000">t</text>
<polyline fill="none" stroke="#000000" points="394,-84.1 447.5538,-84.1 "/>
<text text-anchor="middle" x="420.7769" y="-67.5" font-family="Times,serif" font-size="14.00" fill="#000000">&#45;son</text>
<text text-anchor="middle" x="420.7769" y="-50.7" font-family="Times,serif" font-size="14.00" fill="#000000">+cons</text>
<text text-anchor="middle" x="420.7769" y="-33.9" font-family="Times,serif" font-size="14.00" fill="#000000">+cor</text>
<text text-anchor="middle" x="420.7769" y="-17.1" font-family="Times,serif" font-size="14.00" fill="#000000">&#45;vcd</text>
</g>
<!-- VCLS&#45;&gt;T -->
<g id="edge36" class="edge">
<title>VCLS&#45;&gt;T</title>
<path fill="none" stroke="#000000" stroke-dasharray="1,5" d="M242.9263,-179.1941C245.7818,-176.0861 248.8147,-173.1679 252,-170.6 257.7894,-165.9329 369.11,-122.3394 375,-117.8 379.1332,-114.6146 383.103,-110.9762 386.8589,-107.106"/>
<polygon fill="#000000" stroke="#000000" points="389.6868,-109.1974 393.8045,-99.4354 384.4979,-104.4989 389.6868,-109.1974"/>
</g>
<!-- K -->
<g id="node25" class="node">
<title>K</title>
<polygon fill="none" stroke="#000000" points="312,-8.9 312,-108.9 366,-108.9 366,-8.9 312,-8.9"/>
<text text-anchor="middle" x="338.7769" y="-92.3" font-family="Times,serif" font-size="14.00" fill="#000000">k</text>
<polyline fill="none" stroke="#000000" points="312,-84.1 365.5538,-84.1 "/>
<text text-anchor="middle" x="338.7769" y="-67.5" font-family="Times,serif" font-size="14.00" fill="#000000">&#45;son</text>
<text text-anchor="middle" x="338.7769" y="-50.7" font-family="Times,serif" font-size="14.00" fill="#000000">+cons</text>
<text text-anchor="middle" x="338.7769" y="-33.9" font-family="Times,serif" font-size="14.00" fill="#000000">+dor</text>
<text text-anchor="middle" x="338.7769" y="-17.1" font-family="Times,serif" font-size="14.00" fill="#000000">&#45;vcd</text>
</g>
<!-- VCLS&#45;&gt;K -->
<g id="edge39" class="edge">
<title>VCLS&#45;&gt;K</title>
<path fill="none" stroke="#000000" stroke-dasharray="1,5" d="M243.1463,-181.7889C246.0584,-177.9486 249.0398,-174.1598 252,-170.6 272.8603,-145.514 283.0392,-143.6076 303,-117.8 303.9394,-116.5854 304.875,-115.3448 305.8047,-114.084"/>
<polygon fill="#000000" stroke="#000000" points="308.9354,-115.7174 311.8355,-105.5272 303.2137,-111.6847 308.9354,-115.7174"/>
</g>
<!-- B -->
<g id="node26" class="node">
<title>B</title>
<polygon fill="none" stroke="#000000" points="72,-8.9 72,-108.9 126,-108.9 126,-8.9 72,-8.9"/>
<text text-anchor="middle" x="98.7769" y="-92.3" font-family="Times,serif" font-size="14.00" fill="#000000">b</text>
<polyline fill="none" stroke="#000000" points="72,-84.1 125.5538,-84.1 "/>
<text text-anchor="middle" x="98.7769" y="-67.5" font-family="Times,serif" font-size="14.00" fill="#000000">&#45;son</text>
<text text-anchor="middle" x="98.7769" y="-50.7" font-family="Times,serif" font-size="14.00" fill="#000000">+cons</text>
<text text-anchor="middle" x="98.7769" y="-33.9" font-family="Times,serif" font-size="14.00" fill="#000000">+lab</text>
<text text-anchor="middle" x="98.7769" y="-17.1" font-family="Times,serif" font-size="14.00" fill="#000000">+vcd</text>
</g>
<!-- VCD&#45;&gt;B -->
<g id="edge42" class="edge">
<title>VCD&#45;&gt;B</title>
<path fill="none" stroke="#000000" stroke-dasharray="1,5" d="M132.4114,-179.3295C127.2865,-160.8572 121.1652,-138.7931 115.5705,-118.6274"/>
<polygon fill="#000000" stroke="#000000" points="118.919,-117.6047 112.873,-108.9044 112.1738,-119.4762 118.919,-117.6047"/>
</g>
<!-- D -->
<g id="node27" class="node">
<title>D</title>
<polygon fill="none" stroke="#000000" points="240,-8.9 240,-108.9 294,-108.9 294,-8.9 240,-8.9"/>
<text text-anchor="middle" x="266.7769" y="-92.3" font-family="Times,serif" font-size="14.00" fill="#000000">d</text>
<polyline fill="none" stroke="#000000" points="240,-84.1 293.5538,-84.1 "/>
<text text-anchor="middle" x="266.7769" y="-67.5" font-family="Times,serif" font-size="14.00" fill="#000000">&#45;son</text>
<text text-anchor="middle" x="266.7769" y="-50.7" font-family="Times,serif" font-size="14.00" fill="#000000">+cons</text>
<text text-anchor="middle" x="266.7769" y="-33.9" font-family="Times,serif" font-size="14.00" fill="#000000">+cor</text>
<text text-anchor="middle" x="266.7769" y="-17.1" font-family="Times,serif" font-size="14.00" fill="#000000">+vcd</text>
</g>
<!-- VCD&#45;&gt;D -->
<g id="edge44" class="edge">
<title>VCD&#45;&gt;D</title>
<path fill="none" stroke="#000000" stroke-dasharray="1,5" d="M171.1463,-181.7889C174.0584,-177.9486 177.0398,-174.1598 180,-170.6 200.8603,-145.514 211.0392,-143.6076 231,-117.8 231.9394,-116.5854 232.875,-115.3448 233.8047,-114.084"/>
<polygon fill="#000000" stroke="#000000" points="236.9354,-115.7174 239.8355,-105.5272 231.2137,-111.6847 236.9354,-115.7174"/>
</g>
<!-- G -->
<g id="node28" class="node">
<title>G</title>
<polygon fill="none" stroke="#000000" points="144.1678,-17.3 144.1678,-100.5 221.8322,-100.5 221.8322,-17.3 144.1678,-17.3"/>
<text text-anchor="middle" x="183" y="-83.9" font-family="Times,serif" font-size="14.00" fill="#000000">g</text>
<polyline fill="none" stroke="#000000" points="144.1678,-75.7 221.8322,-75.7 "/>
<text text-anchor="middle" x="183" y="-59.1" font-family="Times,serif" font-size="14.00" fill="#000000">&#45;son</text>
<text text-anchor="middle" x="183" y="-42.3" font-family="Times,serif" font-size="14.00" fill="#000000">+cons</text>
<text text-anchor="middle" x="183" y="-25.5" font-family="Times,serif" font-size="14.00" fill="#000000">+dorb+vcd</text>
</g>
<!-- VCD&#45;&gt;G -->
<g id="edge46" class="edge">
<title>VCD&#45;&gt;G</title>
<path fill="none" stroke="#000000" stroke-dasharray="1,5" d="M154.0435,-179.3295C159.093,-158.3287 165.2587,-132.6855 170.6009,-110.4673"/>
<polygon fill="#000000" stroke="#000000" points="174.0557,-111.0701 172.9906,-100.529 167.2497,-109.4336 174.0557,-111.0701"/>
</g>
<!-- LAB&#45;&gt;LABOBSTR -->
<g id="edge18" class="edge">
<title>LAB&#45;&gt;LABOBSTR</title>
<path fill="none" stroke="#000000" stroke-dasharray="1,5" d="M110.6542,-392.1063C103.2328,-359.274 93.4957,-316.1969 85.651,-281.4922"/>
<polygon fill="#000000" stroke="#000000" points="89.006,-280.4597 83.3873,-271.4774 82.1783,-282.0031 89.006,-280.4597"/>
</g>
<!-- M -->
<g id="node19" class="node">
<title>M</title>
<polygon fill="none" stroke="#000000" points="466,-17.3 466,-100.5 520,-100.5 520,-17.3 466,-17.3"/>
<text text-anchor="middle" x="492.7769" y="-83.9" font-family="Times,serif" font-size="14.00" fill="#000000">m</text>
<polyline fill="none" stroke="#000000" points="466,-75.7 519.5538,-75.7 "/>
<text text-anchor="middle" x="492.7769" y="-59.1" font-family="Times,serif" font-size="14.00" fill="#000000">+son</text>
<text text-anchor="middle" x="492.7769" y="-42.3" font-family="Times,serif" font-size="14.00" fill="#000000">+cons</text>
<text text-anchor="middle" x="492.7769" y="-25.5" font-family="Times,serif" font-size="14.00" fill="#000000">+lab</text>
</g>
<!-- LAB&#45;&gt;M -->
<g id="edge24" class="edge">
<title>LAB&#45;&gt;M</title>
<path fill="none" stroke="#000000" stroke-dasharray="1,5" d="M128.9706,-392.009C136.5826,-357.3937 152.3814,-313.4978 185,-289.6 222.9613,-261.7879 357.5366,-298.7134 396,-271.6 448.9135,-234.3005 473.5467,-160.9042 484.5987,-110.8753"/>
<polygon fill="#000000" stroke="#000000" points="488.0661,-111.3931 486.6943,-100.8875 481.2153,-109.9556 488.0661,-111.3931"/>
</g>
<!-- LAB&#45;&gt;P -->
<g id="edge34" class="edge">
<title>LAB&#45;&gt;P</title>
<path fill="none" stroke="#000000" stroke-dasharray="1,5" d="M94.9308,-401.5541C74.4194,-368.1868 47.8169,-318.9276 36,-271.6 23.4422,-221.3053 21.9431,-162.2756 23.1546,-119.179"/>
<polygon fill="#000000" stroke="#000000" points="26.6542,-119.2464 23.4939,-109.1339 19.6582,-119.01 26.6542,-119.2464"/>
</g>
<!-- COR&#45;&gt;COROBSTR -->
<g id="edge20" class="edge">
<title>COR&#45;&gt;COROBSTR</title>
<path fill="none" stroke="#000000" stroke-dasharray="1,5" d="M464.9509,-551.6094C463.3598,-549.5207 461.7086,-547.5067 460,-545.6 432.5523,-514.9692 404.6451,-528.3725 384,-492.8 346.3851,-427.9877 346.1033,-339.482 351.3724,-281.3415"/>
<polygon fill="#000000" stroke="#000000" points="354.8732,-281.5051 352.3746,-271.2091 347.9072,-280.816 354.8732,-281.5051"/>
</g>
<!-- CORSONCONS -->
<g id="node20" class="node">
<title>CORSONCONS</title>
<polygon fill="none" stroke="#000000" points="634,-392.3 634,-492.3 688,-492.3 688,-392.3 634,-392.3"/>
<text text-anchor="middle" x="660.7769" y="-475.7" font-family="Times,serif" font-size="14.00" fill="#000000">l r</text>
<text text-anchor="middle" x="660.7769" y="-458.9" font-family="Times,serif" font-size="14.00" fill="#000000">n</text>
<polyline fill="none" stroke="#000000" points="634,-450.7 687.5538,-450.7 "/>
<text text-anchor="middle" x="660.7769" y="-434.1" font-family="Times,serif" font-size="14.00" fill="#000000">+son</text>
<text text-anchor="middle" x="660.7769" y="-417.3" font-family="Times,serif" font-size="14.00" fill="#000000">+cons</text>
<text text-anchor="middle" x="660.7769" y="-400.5" font-family="Times,serif" font-size="14.00" fill="#000000">+cor</text>
</g>
<!-- COR&#45;&gt;CORSONCONS -->
<g id="edge27" class="edge">
<title>COR&#45;&gt;CORSONCONS</title>
<path fill="none" stroke="#000000" stroke-dasharray="1,5" d="M519.1923,-576.3876C528.8309,-566.556 539.8129,-555.5037 550,-545.6 575.1578,-521.1422 604.208,-494.1504 626.2778,-473.893"/>
<polygon fill="#000000" stroke="#000000" points="628.7664,-476.3599 633.7753,-467.0238 624.0376,-471.1986 628.7664,-476.3599"/>
</g>
<!-- COR&#45;&gt;T -->
<g id="edge37" class="edge">
<title>COR&#45;&gt;T</title>
<path fill="none" stroke="#000000" stroke-dasharray="1,5" d="M484.3681,-545.8523C470.7981,-441.574 442.6109,-224.9692 428.8712,-119.3864"/>
<polygon fill="#000000" stroke="#000000" points="432.309,-118.681 427.5478,-109.2163 425.3675,-119.5844 432.309,-118.681"/>
</g>
<!-- DOR&#45;&gt;DOROBSTR -->
<g id="edge22" class="edge">
<title>DOR&#45;&gt;DOROBSTR</title>
<path fill="none" stroke="#000000" stroke-dasharray="1,5" d="M392.9693,-397.0031C371.951,-361.7815 342.7177,-312.7937 320.4377,-275.4577"/>
<polygon fill="#000000" stroke="#000000" points="323.351,-273.5096 315.221,-266.7159 317.3399,-277.0967 323.351,-273.5096"/>
</g>
<!-- NG -->
<g id="node21" class="node">
<title>NG</title>
<polygon fill="none" stroke="#000000" points="538,-17.3 538,-100.5 592,-100.5 592,-17.3 538,-17.3"/>
<text text-anchor="middle" x="564.7769" y="-83.9" font-family="Times,serif" font-size="14.00" fill="#000000">ŋ</text>
<polyline fill="none" stroke="#000000" points="538,-75.7 591.5538,-75.7 "/>
<text text-anchor="middle" x="564.7769" y="-59.1" font-family="Times,serif" font-size="14.00" fill="#000000">+son</text>
<text text-anchor="middle" x="564.7769" y="-42.3" font-family="Times,serif" font-size="14.00" fill="#000000">+cons</text>
<text text-anchor="middle" x="564.7769" y="-25.5" font-family="Times,serif" font-size="14.00" fill="#000000">+dor</text>
</g>
<!-- DOR&#45;&gt;NG -->
<g id="edge29" class="edge">
<title>DOR&#45;&gt;NG</title>
<path fill="none" stroke="#000000" stroke-dasharray="1,5" d="M438.9562,-392.1771C466.6166,-319.0394 517.7705,-183.7814 545.6512,-110.0609"/>
<polygon fill="#000000" stroke="#000000" points="548.9978,-111.1061 549.2616,-100.5146 542.4504,-108.6299 548.9978,-111.1061"/>
</g>
<!-- DOR&#45;&gt;K -->
<g id="edge40" class="edge">
<title>DOR&#45;&gt;K</title>
<path fill="none" stroke="#000000" stroke-dasharray="1,5" d="M421.2428,-392.1783C421.3199,-336.855 417.591,-245.6914 396,-170.6 390.2109,-150.4659 380.7203,-129.686 371.1289,-111.5905"/>
<polygon fill="#000000" stroke="#000000" points="373.9768,-109.5013 366.1231,-102.3901 367.828,-112.8468 373.9768,-109.5013"/>
</g>
<!-- LIQD -->
<g id="node12" class="node">
<title>LIQD</title>
<polygon fill="none" stroke="#000000" stroke-width="2" points="634,-171.1 634,-271.1 688,-271.1 688,-171.1 634,-171.1"/>
<text text-anchor="middle" x="660.7769" y="-254.5" font-family="Times,serif" font-size="14.00" fill="#000000">l r</text>
<polyline fill="none" stroke="#000000" stroke-width="2" points="634,-246.3 687.5538,-246.3 "/>
<text text-anchor="middle" x="660.7769" y="-229.7" font-family="Times,serif" font-size="14.00" fill="#000000">+son</text>
<text text-anchor="middle" x="660.7769" y="-212.9" font-family="Times,serif" font-size="14.00" fill="#000000">+cons</text>
<text text-anchor="middle" x="660.7769" y="-196.1" font-family="Times,serif" font-size="14.00" fill="#000000">+cor</text>
<text text-anchor="middle" x="660.7769" y="-179.3" font-family="Times,serif" font-size="14.00" fill="#000000">&#45;nas</text>
</g>
<!-- L -->
<g id="node13" class="node">
<title>L</title>
<polygon fill="none" stroke="#000000" stroke-width="2" points="682,-.5 682,-117.3 736,-117.3 736,-.5 682,-.5"/>
<text text-anchor="middle" x="708.7769" y="-100.7" font-family="Times,serif" font-size="14.00" fill="#000000">l</text>
<polyline fill="none" stroke="#000000" stroke-width="2" points="682,-92.5 735.5538,-92.5 "/>
<text text-anchor="middle" x="708.7769" y="-75.9" font-family="Times,serif" font-size="14.00" fill="#000000">+son</text>
<text text-anchor="middle" x="708.7769" y="-59.1" font-family="Times,serif" font-size="14.00" fill="#000000">+cons</text>
<text text-anchor="middle" x="708.7769" y="-42.3" font-family="Times,serif" font-size="14.00" fill="#000000">+cor</text>
<text text-anchor="middle" x="708.7769" y="-25.5" font-family="Times,serif" font-size="14.00" fill="#000000">&#45;nas</text>
<text text-anchor="middle" x="708.7769" y="-8.7" font-family="Times,serif" font-size="14.00" fill="#000000">+lat</text>
</g>
<!-- LIQD&#45;&gt;L -->
<g id="edge10" class="edge">
<title>LIQD&#45;&gt;L</title>
<path fill="none" stroke="#ff0000" d="M671.837,-170.7761C674.6097,-159.2177 677.7626,-147.0273 681.1096,-135.8 681.9743,-132.8994 682.8883,-129.9488 683.8375,-126.9766"/>
<polygon fill="#ff0000" stroke="#ff0000" points="687.1726,-128.0386 686.9709,-117.4456 680.5228,-125.8523 687.1726,-128.0386"/>
<text text-anchor="middle" x="691.9452" y="-140" font-family="Times,serif" font-size="14.00" fill="#ff0000">+lat</text>
</g>
<!-- R -->
<g id="node14" class="node">
<title>R</title>
<polygon fill="none" stroke="#000000" stroke-width="2" points="610,-.5 610,-117.3 664,-117.3 664,-.5 610,-.5"/>
<text text-anchor="middle" x="636.7769" y="-100.7" font-family="Times,serif" font-size="14.00" fill="#000000">r</text>
<polyline fill="none" stroke="#000000" stroke-width="2" points="610,-92.5 663.5538,-92.5 "/>
<text text-anchor="middle" x="636.7769" y="-75.9" font-family="Times,serif" font-size="14.00" fill="#000000">+son</text>
<text text-anchor="middle" x="636.7769" y="-59.1" font-family="Times,serif" font-size="14.00" fill="#000000">+cons</text>
<text text-anchor="middle" x="636.7769" y="-42.3" font-family="Times,serif" font-size="14.00" fill="#000000">+cor</text>
<text text-anchor="middle" x="636.7769" y="-25.5" font-family="Times,serif" font-size="14.00" fill="#000000">&#45;nas</text>
<text text-anchor="middle" x="636.7769" y="-8.7" font-family="Times,serif" font-size="14.00" fill="#000000">&#45;lat</text>
</g>
<!-- LIQD&#45;&gt;R -->
<g id="edge11" class="edge">
<title>LIQD&#45;&gt;R</title>
<path fill="none" stroke="#0000ff" d="M643.3963,-170.9917C641.7663,-164.8579 640.3511,-158.6279 639.3436,-152.6 638.0086,-144.6127 637.1041,-136.1899 636.5131,-127.8027"/>
<polygon fill="#0000ff" stroke="#0000ff" points="639.9966,-127.409 635.94,-117.6215 633.0077,-127.8025 639.9966,-127.409"/>
<text text-anchor="middle" x="648.3282" y="-140" font-family="Times,serif" font-size="14.00" fill="#0000ff">&#45;lat</text>
</g>
<!-- SONCONS&#45;&gt;NAS -->
<g id="edge15" class="edge">
<title>SONCONS&#45;&gt;NAS</title>
<path fill="none" stroke="#ff0000" d="M604.9418,-562.8345C609.6451,-556.1748 615.3027,-550.0295 622,-545.6 667.7153,-515.365 701.3779,-562.0587 744,-527.6 785.6635,-493.9163 790.4702,-429.3432 787.759,-383.5511"/>
<polygon fill="#ff0000" stroke="#ff0000" points="791.2446,-383.2245 787.0276,-373.5051 784.2631,-383.7329 791.2446,-383.2245"/>
<text text-anchor="middle" x="772.2769" y="-515" font-family="Times,serif" font-size="14.00" fill="#ff0000">+nas</text>
</g>
<!-- SONCONS&#45;&gt;LIQD -->
<g id="edge14" class="edge">
<title>SONCONS&#45;&gt;LIQD</title>
<path fill="none" stroke="#0000ff" d="M607.1258,-562.8019C611.4762,-556.5421 616.4497,-550.5401 622,-545.6 636.2601,-532.9077 645.2486,-538.386 661,-527.6 679.3612,-515.0269 688.31,-513.2866 697,-492.8 726.1574,-424.0611 706.0426,-337.5043 686.1054,-280.8015"/>
<polygon fill="#0000ff" stroke="#0000ff" points="689.3501,-279.4821 682.6565,-271.2695 682.7677,-281.8637 689.3501,-279.4821"/>
<text text-anchor="middle" x="722.6599" y="-438.1" font-family="Times,serif" font-size="14.00" fill="#0000ff">&#45;nas</text>
</g>
<!-- SONCONS&#45;&gt;M -->
<g id="edge25" class="edge">
<title>SONCONS&#45;&gt;M</title>
<path fill="none" stroke="#000000" stroke-dasharray="1,5" d="M578.8569,-562.5936C562.0661,-464.088 520.1272,-218.0465 501.8018,-110.5371"/>
<polygon fill="#000000" stroke="#000000" points="505.2343,-109.8447 500.1037,-100.575 498.3339,-111.021 505.2343,-109.8447"/>
</g>
<!-- SONCONS&#45;&gt;CORSONCONS -->
<g id="edge26" class="edge">
<title>SONCONS&#45;&gt;CORSONCONS</title>
<path fill="none" stroke="#000000" stroke-dasharray="1,5" d="M609.0979,-562.7044C613.0878,-556.7294 617.4331,-550.8402 622,-545.6 630.3003,-536.0758 637.495,-538.43 644,-527.6 648.5758,-519.9818 651.9462,-511.3583 654.4235,-502.5943"/>
<polygon fill="#000000" stroke="#000000" points="657.8708,-503.2322 656.8578,-492.6859 651.073,-501.5621 657.8708,-503.2322"/>
</g>
<!-- SONCONS&#45;&gt;NG -->
<g id="edge30" class="edge">
<title>SONCONS&#45;&gt;NG</title>
<path fill="none" stroke="#000000" stroke-dasharray="1,5" d="M588.2688,-562.6422C592.1216,-480.5033 597.9794,-292.5494 581,-135.8 580.1126,-127.6074 578.7525,-118.9976 577.1925,-110.6241"/>
<polygon fill="#000000" stroke="#000000" points="580.5786,-109.7045 575.2087,-100.5713 573.7111,-111.0598 580.5786,-109.7045"/>
</g>
<!-- LABOBSTR&#45;&gt;P -->
<g id="edge35" class="edge">
<title>LABOBSTR&#45;&gt;P</title>
<path fill="none" stroke="#000000" stroke-dasharray="1,5" d="M58.0084,-170.668C53.4576,-154.265 48.3623,-135.8992 43.6377,-118.8695"/>
<polygon fill="#000000" stroke="#000000" points="46.9517,-117.7224 40.9056,-109.022 40.2065,-119.5938 46.9517,-117.7224"/>
</g>
<!-- LABOBSTR&#45;&gt;B -->
<g id="edge43" class="edge">
<title>LABOBSTR&#45;&gt;B</title>
<path fill="none" stroke="#000000" stroke-dasharray="1,5" d="M80.395,-170.668C83.0999,-154.4183 86.1255,-136.2423 88.9379,-119.3473"/>
<polygon fill="#000000" stroke="#000000" points="92.467,-119.461 90.6566,-109.022 85.562,-118.3116 92.467,-119.461"/>
</g>
<!-- COROBSTR&#45;&gt;T -->
<g id="edge38" class="edge">
<title>COROBSTR&#45;&gt;T</title>
<path fill="none" stroke="#000000" stroke-dasharray="1,5" d="M379.0582,-170.9809C381.4012,-164.7923 383.7588,-158.5521 386,-152.6 390.1592,-141.5542 394.5771,-129.7687 398.8231,-118.415"/>
<polygon fill="#000000" stroke="#000000" points="402.1175,-119.5976 402.3398,-109.0051 395.5604,-117.147 402.1175,-119.5976"/>
</g>
<!-- COROBSTR&#45;&gt;D -->
<g id="edge45" class="edge">
<title>COROBSTR&#45;&gt;D</title>
<path fill="none" stroke="#000000" stroke-dasharray="1,5" d="M332.8505,-173.749C322.2979,-155.3442 310.1269,-134.117 299.1414,-114.9574"/>
<polygon fill="#000000" stroke="#000000" points="302.0328,-112.9637 294.0224,-106.0294 295.9602,-116.4456 302.0328,-112.9637"/>
</g>
<!-- DOROBSTR&#45;&gt;K -->
<g id="edge41" class="edge">
<title>DOROBSTR&#45;&gt;K</title>
<path fill="none" stroke="#000000" stroke-dasharray="1,5" d="M315.16,-176.0293C318.9268,-168.4053 322.3925,-160.4218 325,-152.6 328.5047,-142.087 331.1343,-130.6175 333.1068,-119.4232"/>
<polygon fill="#000000" stroke="#000000" points="336.6097,-119.6839 334.7397,-109.2554 329.6983,-118.5738 336.6097,-119.6839"/>
</g>
<!-- DOROBSTR&#45;&gt;G -->
<g id="edge47" class="edge">
<title>DOROBSTR&#45;&gt;G</title>
<path fill="none" stroke="#000000" stroke-dasharray="1,5" d="M260.9599,-179.3295C247.0589,-157.8557 230.0157,-131.5281 215.4137,-108.9714"/>
<polygon fill="#000000" stroke="#000000" points="218.3209,-107.0216 209.9485,-100.529 212.4446,-110.8256 218.3209,-107.0216"/>
</g>
<!-- CORSONCONS&#45;&gt;LIQD -->
<g id="edge28" class="edge">
<title>CORSONCONS&#45;&gt;LIQD</title>
<path fill="none" stroke="#00ff00" stroke-dasharray="1,5" d="M661,-392.1063C661,-359.274 661,-316.1969 661,-281.4922"/>
<polygon fill="#00ff00" stroke="#00ff00" points="664.5001,-281.4774 661,-271.4774 657.5001,-281.4775 664.5001,-281.4774"/>
</g>
<!-- CORSONCONS&#45;&gt;N -->
<g id="edge31" class="edge">
<title>CORSONCONS&#45;&gt;N</title>
<path fill="none" stroke="#000000" stroke-dasharray="1,5" d="M676.6879,-392.1771C698.6976,-321.8561 738.6815,-194.1075 762.2378,-118.8452"/>
<polygon fill="#000000" stroke="#000000" points="765.6614,-119.6241 765.3082,-109.0352 758.981,-117.5332 765.6614,-119.6241"/>
</g>
</g>
</svg>
