<?xml version="1.0" encoding="UTF-8" standalone="no"?>
<!DOCTYPE svg PUBLIC "-//W3C//DTD SVG 1.1//EN"
 "http://www.w3.org/Graphics/SVG/1.1/DTD/svg11.dtd">
<!-- Generated by graphviz version 2.40.1 (20161225.0304)
 -->
<!-- Title: %3 Pages: 1 -->
<svg width="505pt" height="486pt"
 viewBox="0.00 0.00 505.00 486.40" xmlns="http://www.w3.org/2000/svg" xmlns:xlink="http://www.w3.org/1999/xlink">
<g id="graph0" class="graph" transform="scale(1 1) rotate(0) translate(4 482.4)">
<title>%3</title>
<polygon fill="#ffffff" stroke="transparent" points="-4,4 -4,-482.4 501,-482.4 501,4 -4,4"/>
<!-- SIGMA -->
<g id="node1" class="node">
<title>SIGMA</title>
<polygon fill="none" stroke="#000000" points="234,-394.7 234,-477.9 288,-477.9 288,-394.7 234,-394.7"/>
<text text-anchor="middle" x="260.5803" y="-461.3" font-family="Times,serif" font-size="14.00" fill="#000000">i y u</text>
<text text-anchor="middle" x="260.5803" y="-444.5" font-family="Times,serif" font-size="14.00" fill="#000000">ɛ œ o</text>
<text text-anchor="middle" x="260.5803" y="-427.7" font-family="Times,serif" font-size="14.00" fill="#000000"> a</text>
<polyline fill="none" stroke="#000000" points="234,-419.5 287.1606,-419.5 "/>
<text text-anchor="middle" x="260.5803" y="-402.9" font-family="Times,serif" font-size="14.00" fill="#000000"> </text>
</g>
<!-- HIGH -->
<g id="node2" class="node">
<title>HIGH</title>
<polygon fill="none" stroke="#ff0000" points="118,-282.9 118,-332.5 172,-332.5 172,-282.9 118,-282.9"/>
<text text-anchor="middle" x="144.8926" y="-315.9" font-family="Times,serif" font-size="14.00" fill="#000000">i y u</text>
<polyline fill="none" stroke="#ff0000" points="118,-307.7 171.7852,-307.7 "/>
<text text-anchor="middle" x="144.8926" y="-291.1" font-family="Times,serif" font-size="14.00" fill="#000000">+high</text>
</g>
<!-- SIGMA&#45;&gt;HIGH -->
<g id="edge1" class="edge">
<title>SIGMA&#45;&gt;HIGH</title>
<path fill="none" stroke="#000000" d="M233.785,-411.2924C222.7335,-400.7667 210.0448,-388.1959 199.2148,-376.2 189.1556,-365.0579 178.7706,-352.292 169.8155,-340.8235"/>
<polygon fill="#000000" stroke="#000000" points="172.4563,-338.5169 163.5725,-332.7438 166.9171,-342.7968 172.4563,-338.5169"/>
<text text-anchor="middle" x="216.3926" y="-363.6" font-family="Times,serif" font-size="14.00" fill="#000000">+high</text>
</g>
<!-- FRONT -->
<g id="node3" class="node">
<title>FRONT</title>
<polygon fill="none" stroke="#ff0000" points="193,-274.5 193,-340.9 247,-340.9 247,-274.5 193,-274.5"/>
<text text-anchor="middle" x="219.5532" y="-324.3" font-family="Times,serif" font-size="14.00" fill="#000000">i y</text>
<text text-anchor="middle" x="219.5532" y="-307.5" font-family="Times,serif" font-size="14.00" fill="#000000">ɛ œ</text>
<polyline fill="none" stroke="#ff0000" points="193,-299.3 246.1064,-299.3 "/>
<text text-anchor="middle" x="219.5532" y="-282.7" font-family="Times,serif" font-size="14.00" fill="#000000">+front</text>
</g>
<!-- SIGMA&#45;&gt;FRONT -->
<g id="edge2" class="edge">
<title>SIGMA&#45;&gt;FRONT</title>
<path fill="none" stroke="#000000" d="M246.0547,-394.6933C243.9313,-388.5118 241.8177,-382.2027 239.8936,-376.2 237.2582,-367.9783 234.5828,-359.1542 232.0846,-350.6656"/>
<polygon fill="#000000" stroke="#000000" points="235.4009,-349.5351 229.2464,-340.9111 228.6797,-351.4908 235.4009,-349.5351"/>
<text text-anchor="middle" x="257.5532" y="-363.6" font-family="Times,serif" font-size="14.00" fill="#000000">+front</text>
</g>
<!-- ROUND -->
<g id="node4" class="node">
<title>ROUND</title>
<polygon fill="none" stroke="#ff0000" points="270.7224,-274.5 270.7224,-340.9 327.2776,-340.9 327.2776,-274.5 270.7224,-274.5"/>
<text text-anchor="middle" x="299" y="-324.3" font-family="Times,serif" font-size="14.00" fill="#000000">y u</text>
<text text-anchor="middle" x="299" y="-307.5" font-family="Times,serif" font-size="14.00" fill="#000000">œ o</text>
<polyline fill="none" stroke="#ff0000" points="270.7224,-299.3 327.2776,-299.3 "/>
<text text-anchor="middle" x="299" y="-282.7" font-family="Times,serif" font-size="14.00" fill="#000000">+round</text>
</g>
<!-- SIGMA&#45;&gt;ROUND -->
<g id="edge3" class="edge">
<title>SIGMA&#45;&gt;ROUND</title>
<path fill="none" stroke="#000000" d="M273.3375,-394.5473C277.453,-380.6194 282.0461,-365.0756 286.1962,-351.0306"/>
<polygon fill="#000000" stroke="#000000" points="289.6494,-351.6951 289.1268,-341.1131 282.9364,-349.7114 289.6494,-351.6951"/>
<text text-anchor="middle" x="304.2776" y="-363.6" font-family="Times,serif" font-size="14.00" fill="#000000">+round</text>
</g>
<!-- A -->
<g id="node14" class="node">
<title>A</title>
<polygon fill="none" stroke="#ff0000" points="443,-17.3 443,-66.9 497,-66.9 497,-17.3 443,-17.3"/>
<text text-anchor="middle" x="469.5006" y="-50.3" font-family="Times,serif" font-size="14.00" fill="#000000">a</text>
<polyline fill="none" stroke="#ff0000" points="443,-42.1 496.0012,-42.1 "/>
<text text-anchor="middle" x="469.5006" y="-25.5" font-family="Times,serif" font-size="14.00" fill="#000000">+A</text>
</g>
<!-- SIGMA&#45;&gt;A -->
<g id="edge18" class="edge">
<title>SIGMA&#45;&gt;A</title>
<path fill="none" stroke="#000000" d="M288.168,-416.9685C301.8124,-406.1899 317.7819,-391.8088 329,-376.2 399.1324,-278.6187 443.0681,-140.8175 460.8836,-77.02"/>
<polygon fill="#000000" stroke="#000000" points="464.3421,-77.6428 463.6161,-67.0729 457.5921,-75.7885 464.3421,-77.6428"/>
<text text-anchor="middle" x="413.0006" y="-243.4" font-family="Times,serif" font-size="14.00" fill="#000000">+A</text>
</g>
<!-- HIGHFRONT -->
<g id="node5" class="node">
<title>HIGHFRONT</title>
<polygon fill="none" stroke="#000000" points="74,-145.9 74,-212.3 128,-212.3 128,-145.9 74,-145.9"/>
<text text-anchor="middle" x="100.5532" y="-195.7" font-family="Times,serif" font-size="14.00" fill="#000000">i y</text>
<polyline fill="none" stroke="#000000" points="74,-187.5 127.1064,-187.5 "/>
<text text-anchor="middle" x="100.5532" y="-170.9" font-family="Times,serif" font-size="14.00" fill="#000000">+high</text>
<text text-anchor="middle" x="100.5532" y="-154.1" font-family="Times,serif" font-size="14.00" fill="#000000">+front</text>
</g>
<!-- HIGH&#45;&gt;HIGHFRONT -->
<g id="edge4" class="edge">
<title>HIGH&#45;&gt;HIGHFRONT</title>
<path fill="none" stroke="#000000" stroke-dasharray="1,5" d="M123.9238,-282.8443C118.1423,-274.7613 112.5066,-265.4316 109,-256 105.0963,-245.5005 102.8876,-233.6744 101.6836,-222.5023"/>
<polygon fill="#000000" stroke="#000000" points="105.1668,-222.1543 100.8406,-212.483 98.1915,-222.7413 105.1668,-222.1543"/>
</g>
<!-- HIGHROUND -->
<g id="node6" class="node">
<title>HIGHROUND</title>
<polygon fill="none" stroke="#000000" points="201.7224,-145.9 201.7224,-212.3 258.2776,-212.3 258.2776,-145.9 201.7224,-145.9"/>
<text text-anchor="middle" x="230" y="-195.7" font-family="Times,serif" font-size="14.00" fill="#000000">y u</text>
<polyline fill="none" stroke="#000000" points="201.7224,-187.5 258.2776,-187.5 "/>
<text text-anchor="middle" x="230" y="-170.9" font-family="Times,serif" font-size="14.00" fill="#000000">+high</text>
<text text-anchor="middle" x="230" y="-154.1" font-family="Times,serif" font-size="14.00" fill="#000000">+round</text>
</g>
<!-- HIGH&#45;&gt;HIGHROUND -->
<g id="edge6" class="edge">
<title>HIGH&#45;&gt;HIGHROUND</title>
<path fill="none" stroke="#000000" stroke-dasharray="1,5" d="M161.5906,-282.5993C173.1738,-265.0747 188.9091,-241.2681 202.3682,-220.9053"/>
<polygon fill="#000000" stroke="#000000" points="205.384,-222.69 207.9782,-212.4176 199.5443,-218.8301 205.384,-222.69"/>
</g>
<!-- FRONT&#45;&gt;HIGHFRONT -->
<g id="edge5" class="edge">
<title>FRONT&#45;&gt;HIGHFRONT</title>
<path fill="none" stroke="#000000" stroke-dasharray="1,5" d="M192.9838,-283.8182C189.0116,-280.4646 184.933,-277.1053 181,-274 170.2541,-265.5158 165.666,-265.6966 156,-256 145.5563,-245.5232 135.6493,-232.8922 127.1955,-220.9222"/>
<polygon fill="#000000" stroke="#000000" points="129.86,-218.6199 121.3098,-212.3633 124.0922,-222.5863 129.86,-218.6199"/>
</g>
<!-- FRONTROUND -->
<g id="node7" class="node">
<title>FRONTROUND</title>
<polygon fill="none" stroke="#000000" points="276.7224,-137.5 276.7224,-220.7 333.2776,-220.7 333.2776,-137.5 276.7224,-137.5"/>
<text text-anchor="middle" x="305" y="-204.1" font-family="Times,serif" font-size="14.00" fill="#000000">y</text>
<text text-anchor="middle" x="305" y="-187.3" font-family="Times,serif" font-size="14.00" fill="#000000">œ</text>
<polyline fill="none" stroke="#000000" points="276.7224,-179.1 333.2776,-179.1 "/>
<text text-anchor="middle" x="305" y="-162.5" font-family="Times,serif" font-size="14.00" fill="#000000">+front</text>
<text text-anchor="middle" x="305" y="-145.7" font-family="Times,serif" font-size="14.00" fill="#000000">+round</text>
</g>
<!-- FRONT&#45;&gt;FRONTROUND -->
<g id="edge8" class="edge">
<title>FRONT&#45;&gt;FRONTROUND</title>
<path fill="none" stroke="#000000" stroke-dasharray="1,5" d="M242.1109,-274.2476C251.0749,-260.6855 261.6249,-244.724 271.4963,-229.7892"/>
<polygon fill="#000000" stroke="#000000" points="274.6186,-231.4126 277.2129,-221.1403 268.7789,-227.5528 274.6186,-231.4126"/>
</g>
<!-- E -->
<g id="node11" class="node">
<title>E</title>
<polygon fill="none" stroke="#ff0000" points="72,-8.9 72,-75.3 126,-75.3 126,-8.9 72,-8.9"/>
<text text-anchor="middle" x="98.5532" y="-58.7" font-family="Times,serif" font-size="14.00" fill="#000000">ɛ</text>
<polyline fill="none" stroke="#ff0000" points="72,-50.5 125.1064,-50.5 "/>
<text text-anchor="middle" x="98.5532" y="-33.9" font-family="Times,serif" font-size="14.00" fill="#000000">+front</text>
<text text-anchor="middle" x="98.5532" y="-17.1" font-family="Times,serif" font-size="14.00" fill="#000000">+E</text>
</g>
<!-- FRONT&#45;&gt;E -->
<g id="edge15" class="edge">
<title>FRONT&#45;&gt;E</title>
<path fill="none" stroke="#000000" d="M202.6337,-274.2322C194.4984,-258.2779 184.8041,-238.8617 176.5528,-221.2 154.9613,-174.9841 131.9445,-121.1867 116.6457,-84.7075"/>
<polygon fill="#000000" stroke="#000000" points="119.8238,-83.2353 112.7357,-75.3607 113.3661,-85.9368 119.8238,-83.2353"/>
<text text-anchor="middle" x="185.2236" y="-174.9" font-family="Times,serif" font-size="14.00" fill="#000000">+E</text>
</g>
<!-- ROUND&#45;&gt;HIGHROUND -->
<g id="edge7" class="edge">
<title>ROUND&#45;&gt;HIGHROUND</title>
<path fill="none" stroke="#000000" stroke-dasharray="1,5" d="M281.0512,-274.2476C272.4262,-258.1726 261.9925,-238.7267 252.8113,-221.615"/>
<polygon fill="#000000" stroke="#000000" points="255.671,-219.5419 247.8589,-212.3849 249.5028,-222.8515 255.671,-219.5419"/>
</g>
<!-- ROUND&#45;&gt;FRONTROUND -->
<g id="edge9" class="edge">
<title>ROUND&#45;&gt;FRONTROUND</title>
<path fill="none" stroke="#000000" stroke-dasharray="1,5" d="M300.5608,-274.2476C301.1699,-261.1925 301.8827,-245.914 302.5567,-231.4682"/>
<polygon fill="#000000" stroke="#000000" points="306.0686,-231.2926 303.0386,-221.1403 299.0762,-230.9663 306.0686,-231.2926"/>
</g>
<!-- O -->
<g id="node13" class="node">
<title>O</title>
<polygon fill="none" stroke="#ff0000" points="368.7224,-8.9 368.7224,-75.3 425.2776,-75.3 425.2776,-8.9 368.7224,-8.9"/>
<text text-anchor="middle" x="397" y="-58.7" font-family="Times,serif" font-size="14.00" fill="#000000">o</text>
<polyline fill="none" stroke="#ff0000" points="368.7224,-50.5 425.2776,-50.5 "/>
<text text-anchor="middle" x="397" y="-33.9" font-family="Times,serif" font-size="14.00" fill="#000000">+round</text>
<text text-anchor="middle" x="397" y="-17.1" font-family="Times,serif" font-size="14.00" fill="#000000">+O</text>
</g>
<!-- ROUND&#45;&gt;O -->
<g id="edge17" class="edge">
<title>ROUND&#45;&gt;O</title>
<path fill="none" stroke="#000000" d="M317.2596,-274.186C325.4496,-258.3877 334.8528,-239.1129 342,-221.2 360.1249,-175.7739 375.9325,-121.9232 385.8922,-85.2157"/>
<polygon fill="#000000" stroke="#000000" points="389.3314,-85.9037 388.5433,-75.3382 382.5706,-84.0891 389.3314,-85.9037"/>
<text text-anchor="middle" x="380.0006" y="-174.9" font-family="Times,serif" font-size="14.00" fill="#000000">+O</text>
</g>
<!-- I -->
<g id="node8" class="node">
<title>I</title>
<polygon fill="none" stroke="#ff0000" points="0,-.5 0,-83.7 54,-83.7 54,-.5 0,-.5"/>
<text text-anchor="middle" x="26.5532" y="-67.1" font-family="Times,serif" font-size="14.00" fill="#000000">i</text>
<polyline fill="none" stroke="#ff0000" points="0,-58.9 53.1064,-58.9 "/>
<text text-anchor="middle" x="26.5532" y="-42.3" font-family="Times,serif" font-size="14.00" fill="#000000">+high</text>
<text text-anchor="middle" x="26.5532" y="-25.5" font-family="Times,serif" font-size="14.00" fill="#000000">+front</text>
<text text-anchor="middle" x="26.5532" y="-8.7" font-family="Times,serif" font-size="14.00" fill="#000000">+I</text>
</g>
<!-- HIGHFRONT&#45;&gt;I -->
<g id="edge10" class="edge">
<title>HIGHFRONT&#45;&gt;I</title>
<path fill="none" stroke="#000000" d="M82.8976,-145.586C74.3349,-129.7335 63.9264,-110.4638 54.4232,-92.8699"/>
<polygon fill="#000000" stroke="#000000" points="57.3827,-90.9843 49.5506,-83.8491 51.2237,-94.3111 57.3827,-90.9843"/>
<text text-anchor="middle" x="75.2776" y="-106.4" font-family="Times,serif" font-size="14.00" fill="#000000">+I</text>
</g>
<!-- Y -->
<g id="node9" class="node">
<title>Y</title>
<polygon fill="none" stroke="#000000" points="143.7224,-.5 143.7224,-83.7 200.2776,-83.7 200.2776,-.5 143.7224,-.5"/>
<text text-anchor="middle" x="172" y="-67.1" font-family="Times,serif" font-size="14.00" fill="#000000">y</text>
<polyline fill="none" stroke="#000000" points="143.7224,-58.9 200.2776,-58.9 "/>
<text text-anchor="middle" x="172" y="-42.3" font-family="Times,serif" font-size="14.00" fill="#000000">+high</text>
<text text-anchor="middle" x="172" y="-25.5" font-family="Times,serif" font-size="14.00" fill="#000000">+front</text>
<text text-anchor="middle" x="172" y="-8.7" font-family="Times,serif" font-size="14.00" fill="#000000">+round</text>
</g>
<!-- HIGHFRONT&#45;&gt;Y -->
<g id="edge11" class="edge">
<title>HIGHFRONT&#45;&gt;Y</title>
<path fill="none" stroke="#000000" stroke-dasharray="1,5" d="M118.3686,-145.586C126.5841,-129.7335 136.5706,-110.4638 145.6886,-92.8699"/>
<polygon fill="#000000" stroke="#000000" points="148.8697,-94.3381 150.3636,-83.8491 142.6548,-91.1172 148.8697,-94.3381"/>
</g>
<!-- HIGHROUND&#45;&gt;Y -->
<g id="edge12" class="edge">
<title>HIGHROUND&#45;&gt;Y</title>
<path fill="none" stroke="#000000" stroke-dasharray="1,5" d="M215.8116,-145.586C209.1619,-129.879 201.0919,-110.8171 193.699,-93.3546"/>
<polygon fill="#000000" stroke="#000000" points="196.7965,-91.6934 189.6748,-83.8491 190.3504,-94.4224 196.7965,-91.6934"/>
</g>
<!-- U -->
<g id="node10" class="node">
<title>U</title>
<polygon fill="none" stroke="#ff0000" points="218.7224,-.5 218.7224,-83.7 275.2776,-83.7 275.2776,-.5 218.7224,-.5"/>
<text text-anchor="middle" x="247" y="-67.1" font-family="Times,serif" font-size="14.00" fill="#000000">u</text>
<polyline fill="none" stroke="#ff0000" points="218.7224,-58.9 275.2776,-58.9 "/>
<text text-anchor="middle" x="247" y="-42.3" font-family="Times,serif" font-size="14.00" fill="#000000">+high</text>
<text text-anchor="middle" x="247" y="-25.5" font-family="Times,serif" font-size="14.00" fill="#000000">+round</text>
<text text-anchor="middle" x="247" y="-8.7" font-family="Times,serif" font-size="14.00" fill="#000000">+U</text>
</g>
<!-- HIGHROUND&#45;&gt;U -->
<g id="edge14" class="edge">
<title>HIGHROUND&#45;&gt;U</title>
<path fill="none" stroke="#000000" d="M234.1587,-145.586C236.0897,-130.0244 238.4293,-111.1698 240.5797,-93.84"/>
<polygon fill="#000000" stroke="#000000" points="244.0613,-94.2041 241.8194,-83.8491 237.1146,-93.342 244.0613,-94.2041"/>
<text text-anchor="middle" x="249.0006" y="-106.4" font-family="Times,serif" font-size="14.00" fill="#000000">+U</text>
</g>
<!-- FRONTROUND&#45;&gt;Y -->
<g id="edge13" class="edge">
<title>FRONTROUND&#45;&gt;Y</title>
<path fill="none" stroke="#000000" stroke-dasharray="1,5" d="M288.5897,-137.1796C281.9353,-124.5241 273.1413,-111.529 262,-102.2 243.2489,-86.4991 230.3912,-97.7027 210,-84.2 209.4869,-83.8602 208.9762,-83.512 208.4681,-83.1558"/>
<polygon fill="#000000" stroke="#000000" points="210.4933,-80.2942 200.4935,-76.7936 206.1278,-85.7661 210.4933,-80.2942"/>
</g>
<!-- OE -->
<g id="node12" class="node">
<title>OE</title>
<polygon fill="none" stroke="#ff0000" points="293.7224,-.5 293.7224,-83.7 350.2776,-83.7 350.2776,-.5 293.7224,-.5"/>
<text text-anchor="middle" x="322" y="-67.1" font-family="Times,serif" font-size="14.00" fill="#000000">œ</text>
<polyline fill="none" stroke="#ff0000" points="293.7224,-58.9 350.2776,-58.9 "/>
<text text-anchor="middle" x="322" y="-42.3" font-family="Times,serif" font-size="14.00" fill="#000000">+front</text>
<text text-anchor="middle" x="322" y="-25.5" font-family="Times,serif" font-size="14.00" fill="#000000">+round</text>
<text text-anchor="middle" x="322" y="-8.7" font-family="Times,serif" font-size="14.00" fill="#000000">+OE</text>
</g>
<!-- FRONTROUND&#45;&gt;OE -->
<g id="edge16" class="edge">
<title>FRONTROUND&#45;&gt;OE</title>
<path fill="none" stroke="#000000" d="M310.1929,-137.2511C311.8744,-123.7004 313.7604,-108.5013 315.5232,-94.2955"/>
<polygon fill="#000000" stroke="#000000" points="319.0221,-94.5197 316.7803,-84.1647 312.0754,-93.6576 319.0221,-94.5197"/>
<text text-anchor="middle" x="328.2769" y="-106.4" font-family="Times,serif" font-size="14.00" fill="#000000">+OE</text>
</g>
</g>
</svg>
