<?xml version="1.0" encoding="UTF-8" standalone="no"?>
<!DOCTYPE svg PUBLIC "-//W3C//DTD SVG 1.1//EN"
 "http://www.w3.org/Graphics/SVG/1.1/DTD/svg11.dtd">
<!-- Generated by graphviz version 2.40.1 (20161225.0304)
 -->
<!-- Title: %3 Pages: 1 -->
<svg width="779pt" height="576pt"
 viewBox="0.00 0.00 779.33 576.00" xmlns="http://www.w3.org/2000/svg" xmlns:xlink="http://www.w3.org/1999/xlink">
<g id="graph0" class="graph" transform="scale(1 1) rotate(0) translate(4 572)">
<title>%3</title>
<polygon fill="#ffffff" stroke="transparent" points="-4,4 -4,-572 775.3289,-572 775.3289,4 -4,4"/>
<!-- SIGMA -->
<g id="node1" class="node">
<title>SIGMA</title>
<polygon fill="none" stroke="#000000" points="306.196,-517.9 306.196,-567.5 410.4618,-567.5 410.4618,-517.9 306.196,-517.9"/>
<text text-anchor="middle" x="358.3289" y="-550.9" font-family="Times,serif" font-size="14.00" fill="#000000">i, œ, a, y, u, o, ɛ</text>
<polyline fill="none" stroke="#000000" points="306.196,-542.7 410.4618,-542.7 "/>
<text text-anchor="middle" x="358.3289" y="-526.1" font-family="Times,serif" font-size="14.00" fill="#000000"> </text>
</g>
<!-- LOW -->
<g id="node2" class="node">
<title>LOW</title>
<polygon fill="none" stroke="#000000" points="0,-364.1 0,-464.1 62.6578,-464.1 62.6578,-364.1 0,-364.1"/>
<text text-anchor="middle" x="31.3289" y="-447.5" font-family="Times,serif" font-size="14.00" fill="#000000">a</text>
<polyline fill="none" stroke="#000000" points="0,-439.3 62.6578,-439.3 "/>
<text text-anchor="middle" x="31.3289" y="-422.7" font-family="Times,serif" font-size="14.00" fill="#000000">&#45;nonlow</text>
<text text-anchor="middle" x="31.3289" y="-405.9" font-family="Times,serif" font-size="14.00" fill="#000000">&#45;front</text>
<text text-anchor="middle" x="31.3289" y="-389.1" font-family="Times,serif" font-size="14.00" fill="#000000">&#45;round</text>
<text text-anchor="middle" x="31.3289" y="-372.3" font-family="Times,serif" font-size="14.00" fill="#000000">&#45;high</text>
</g>
<!-- SIGMA&#45;&gt;LOW -->
<g id="edge2" class="edge">
<title>SIGMA&#45;&gt;LOW</title>
<path fill="none" stroke="#000000" d="M306.0729,-539.4444C218.6582,-533.4651 50.5385,-519.4794 32.6711,-499.4 26.4529,-492.412 23.2212,-483.6804 21.8808,-474.4907"/>
<polygon fill="#000000" stroke="#000000" points="25.3619,-474.1072 21.1168,-464.4 18.3818,-474.6357 25.3619,-474.1072"/>
<text text-anchor="middle" x="56.6578" y="-486.8" font-family="Times,serif" font-size="14.00" fill="#0000ff">&#45;nonlow</text>
</g>
<!-- NONLOW -->
<g id="node3" class="node">
<title>NONLOW</title>
<polygon fill="none" stroke="#000000" points="361.8033,-389.3 361.8033,-438.9 452.8545,-438.9 452.8545,-389.3 361.8033,-389.3"/>
<text text-anchor="middle" x="407.3289" y="-422.3" font-family="Times,serif" font-size="14.00" fill="#000000">i, œ, u, y, o, ɛ</text>
<polyline fill="none" stroke="#000000" points="361.8033,-414.1 452.8545,-414.1 "/>
<text text-anchor="middle" x="407.3289" y="-397.5" font-family="Times,serif" font-size="14.00" fill="#000000">+nonlow</text>
</g>
<!-- SIGMA&#45;&gt;NONLOW -->
<g id="edge1" class="edge">
<title>SIGMA&#45;&gt;NONLOW</title>
<path fill="none" stroke="#000000" d="M367.8929,-517.5993C375.3801,-497.9492 385.8768,-470.4009 394.1585,-448.6656"/>
<polygon fill="#000000" stroke="#000000" points="397.499,-449.7282 397.789,-439.1374 390.9578,-447.2358 397.499,-449.7282"/>
<text text-anchor="middle" x="404.2748" y="-486.8" font-family="Times,serif" font-size="14.00" fill="#ff0000">+nonlow</text>
</g>
<!-- FRONT -->
<g id="node4" class="node">
<title>FRONT</title>
<polygon fill="none" stroke="#000000" points="191.383,-259.7 191.383,-326.1 257.2748,-326.1 257.2748,-259.7 191.383,-259.7"/>
<text text-anchor="middle" x="224.3289" y="-309.5" font-family="Times,serif" font-size="14.00" fill="#000000">y, i, ɛ, œ</text>
<polyline fill="none" stroke="#000000" points="191.383,-301.3 257.2748,-301.3 "/>
<text text-anchor="middle" x="224.3289" y="-284.7" font-family="Times,serif" font-size="14.00" fill="#000000">+nonlow</text>
<text text-anchor="middle" x="224.3289" y="-267.9" font-family="Times,serif" font-size="14.00" fill="#000000">+front</text>
</g>
<!-- SIGMA&#45;&gt;FRONT -->
<g id="edge6" class="edge">
<title>SIGMA&#45;&gt;FRONT</title>
<path fill="none" stroke="#000000" d="M344.9906,-517.835C322.1342,-475.2266 275.233,-387.7944 247.1105,-335.3691"/>
<polygon fill="#000000" stroke="#000000" points="250.0688,-333.4795 242.2574,-326.3219 243.9002,-336.7885 250.0688,-333.4795"/>
<text text-anchor="middle" x="276.0081" y="-426.1616" font-family="Times,serif" font-size="14.00" fill="#ff0000">+front</text>
</g>
<!-- ROUND -->
<g id="node5" class="node">
<title>ROUND</title>
<polygon fill="none" stroke="#000000" points="557.2486,-259.7 557.2486,-326.1 623.4092,-326.1 623.4092,-259.7 557.2486,-259.7"/>
<text text-anchor="middle" x="590.3289" y="-309.5" font-family="Times,serif" font-size="14.00" fill="#000000">y, u, o, œ</text>
<polyline fill="none" stroke="#000000" points="557.2486,-301.3 623.4092,-301.3 "/>
<text text-anchor="middle" x="590.3289" y="-284.7" font-family="Times,serif" font-size="14.00" fill="#000000">+nonlow</text>
<text text-anchor="middle" x="590.3289" y="-267.9" font-family="Times,serif" font-size="14.00" fill="#000000">+round</text>
</g>
<!-- SIGMA&#45;&gt;ROUND -->
<g id="edge7" class="edge">
<title>SIGMA&#45;&gt;ROUND</title>
<path fill="none" stroke="#000000" d="M410.8564,-535.4204C454.2493,-526.4883 513.8151,-506.9205 546.3289,-464.6 574.861,-427.4621 585.0194,-373.7975 588.5663,-336.3819"/>
<polygon fill="#000000" stroke="#000000" points="592.0649,-336.5414 589.4011,-326.2869 585.0887,-335.9644 592.0649,-336.5414"/>
<text text-anchor="middle" x="604.6065" y="-409.9" font-family="Times,serif" font-size="14.00" fill="#ff0000">+round</text>
</g>
<!-- HIGH -->
<g id="node6" class="node">
<title>HIGH</title>
<polygon fill="none" stroke="#000000" points="313.383,-259.7 313.383,-326.1 379.2748,-326.1 379.2748,-259.7 313.383,-259.7"/>
<text text-anchor="middle" x="346.3289" y="-309.5" font-family="Times,serif" font-size="14.00" fill="#000000">y, u, i</text>
<polyline fill="none" stroke="#000000" points="313.383,-301.3 379.2748,-301.3 "/>
<text text-anchor="middle" x="346.3289" y="-284.7" font-family="Times,serif" font-size="14.00" fill="#000000">+nonlow</text>
<text text-anchor="middle" x="346.3289" y="-267.9" font-family="Times,serif" font-size="14.00" fill="#000000">+high</text>
</g>
<!-- SIGMA&#45;&gt;HIGH -->
<g id="edge8" class="edge">
<title>SIGMA&#45;&gt;HIGH</title>
<path fill="none" stroke="#000000" d="M356.145,-517.7448C354.8703,-502.421 353.3225,-482.3869 352.3289,-464.6 349.8941,-421.013 348.2822,-371.143 347.3481,-336.421"/>
<polygon fill="#000000" stroke="#000000" points="350.8399,-336.0604 347.0798,-326.1553 343.8423,-336.2434 350.8399,-336.0604"/>
<text text-anchor="middle" x="333.8677" y="-426.2182" font-family="Times,serif" font-size="14.00" fill="#ff0000">+high</text>
</g>
<!-- NONFRONT -->
<g id="node7" class="node">
<title>NONFRONT</title>
<polygon fill="none" stroke="#000000" points="688.3289,-389.3 688.3289,-438.9 742.3289,-438.9 742.3289,-389.3 688.3289,-389.3"/>
<text text-anchor="middle" x="714.9362" y="-422.3" font-family="Times,serif" font-size="14.00" fill="#000000">a, u, o</text>
<polyline fill="none" stroke="#000000" points="688.3289,-414.1 741.5435,-414.1 "/>
<text text-anchor="middle" x="714.9362" y="-397.5" font-family="Times,serif" font-size="14.00" fill="#000000">&#45;front</text>
</g>
<!-- SIGMA&#45;&gt;NONFRONT -->
<g id="edge3" class="edge">
<title>SIGMA&#45;&gt;NONFRONT</title>
<path fill="none" stroke="#000000" d="M410.675,-539.0042C481.6832,-533.2735 604.1744,-520.6344 643.3289,-499.4 665.2413,-487.5164 683.311,-466.0397 695.8674,-447.6103"/>
<polygon fill="#000000" stroke="#000000" points="698.8669,-449.4185 701.4117,-439.1338 693.0087,-445.5868 698.8669,-449.4185"/>
<text text-anchor="middle" x="680.2651" y="-486.8" font-family="Times,serif" font-size="14.00" fill="#0000ff">&#45;front</text>
</g>
<!-- NONROUND -->
<g id="node8" class="node">
<title>NONROUND</title>
<polygon fill="none" stroke="#000000" points="36.3289,-268.1 36.3289,-317.7 90.3289,-317.7 90.3289,-268.1 36.3289,-268.1"/>
<text text-anchor="middle" x="62.9895" y="-301.1" font-family="Times,serif" font-size="14.00" fill="#000000">a, i, ɛ</text>
<polyline fill="none" stroke="#000000" points="36.3289,-292.9 89.6501,-292.9 "/>
<text text-anchor="middle" x="62.9895" y="-276.3" font-family="Times,serif" font-size="14.00" fill="#000000">&#45;round</text>
</g>
<!-- SIGMA&#45;&gt;NONROUND -->
<g id="edge4" class="edge">
<title>SIGMA&#45;&gt;NONROUND</title>
<path fill="none" stroke="#000000" d="M321.9079,-517.7871C271.2791,-482.3593 177.9044,-414.0906 107.3289,-345.6 100.9967,-339.4549 94.6472,-332.4567 88.82,-325.6128"/>
<polygon fill="#000000" stroke="#000000" points="91.3352,-323.1633 82.2516,-317.7099 85.9518,-327.6376 91.3352,-323.1633"/>
<text text-anchor="middle" x="178.3631" y="-428.3876" font-family="Times,serif" font-size="14.00" fill="#0000ff">&#45;round</text>
</g>
<!-- NONHIGH -->
<g id="node9" class="node">
<title>NONHIGH</title>
<polygon fill="none" stroke="#000000" points="471.6413,-389.3 471.6413,-438.9 537.0165,-438.9 537.0165,-389.3 471.6413,-389.3"/>
<text text-anchor="middle" x="504.3289" y="-422.3" font-family="Times,serif" font-size="14.00" fill="#000000">a, o, ɛ, œ</text>
<polyline fill="none" stroke="#000000" points="471.6413,-414.1 537.0165,-414.1 "/>
<text text-anchor="middle" x="504.3289" y="-397.5" font-family="Times,serif" font-size="14.00" fill="#000000">&#45;high</text>
</g>
<!-- SIGMA&#45;&gt;NONHIGH -->
<g id="edge5" class="edge">
<title>SIGMA&#45;&gt;NONHIGH</title>
<path fill="none" stroke="#000000" d="M407.2171,-517.8371C416.2867,-512.3073 425.3931,-506.0818 433.3289,-499.4 451.2771,-484.2879 468.2153,-464.252 481.0432,-447.396"/>
<polygon fill="#000000" stroke="#000000" points="484.1941,-449.0249 487.3603,-438.9142 478.5801,-444.8436 484.1941,-449.0249"/>
<text text-anchor="middle" x="465.1045" y="-486.8" font-family="Times,serif" font-size="14.00" fill="#0000ff">&#45;high</text>
</g>
<!-- FRONTROUND -->
<g id="node10" class="node">
<title>FRONTROUND</title>
<polygon fill="none" stroke="#000000" points="375.383,-138.5 375.383,-221.7 441.2748,-221.7 441.2748,-138.5 375.383,-138.5"/>
<text text-anchor="middle" x="408.3289" y="-205.1" font-family="Times,serif" font-size="14.00" fill="#000000">y, œ</text>
<polyline fill="none" stroke="#000000" points="375.383,-196.9 441.2748,-196.9 "/>
<text text-anchor="middle" x="408.3289" y="-180.3" font-family="Times,serif" font-size="14.00" fill="#000000">+nonlow</text>
<text text-anchor="middle" x="408.3289" y="-163.5" font-family="Times,serif" font-size="14.00" fill="#000000">+front</text>
<text text-anchor="middle" x="408.3289" y="-146.7" font-family="Times,serif" font-size="14.00" fill="#000000">+round</text>
</g>
<!-- NONLOW&#45;&gt;FRONTROUND -->
<g id="edge9" class="edge">
<title>NONLOW&#45;&gt;FRONTROUND</title>
<path fill="none" stroke="#000000" stroke-dasharray="5,2" d="M407.4359,-389.0579C407.5954,-351.7434 407.8989,-280.7177 408.1075,-231.9151"/>
<polygon fill="#000000" stroke="#000000" points="411.6076,-231.8735 408.1504,-221.8586 404.6076,-231.8435 411.6076,-231.8735"/>
</g>
<!-- HIGHFRONT -->
<g id="node11" class="node">
<title>HIGHFRONT</title>
<polygon fill="none" stroke="#000000" points="207.383,-138.5 207.383,-221.7 273.2748,-221.7 273.2748,-138.5 207.383,-138.5"/>
<text text-anchor="middle" x="240.3289" y="-205.1" font-family="Times,serif" font-size="14.00" fill="#000000">y, i</text>
<polyline fill="none" stroke="#000000" points="207.383,-196.9 273.2748,-196.9 "/>
<text text-anchor="middle" x="240.3289" y="-180.3" font-family="Times,serif" font-size="14.00" fill="#000000">+nonlow</text>
<text text-anchor="middle" x="240.3289" y="-163.5" font-family="Times,serif" font-size="14.00" fill="#000000">+front</text>
<text text-anchor="middle" x="240.3289" y="-146.7" font-family="Times,serif" font-size="14.00" fill="#000000">+high</text>
</g>
<!-- NONLOW&#45;&gt;HIGHFRONT -->
<g id="edge12" class="edge">
<title>NONLOW&#45;&gt;HIGHFRONT</title>
<path fill="none" stroke="#000000" stroke-dasharray="5,2" d="M370.2604,-389.1659C348.8025,-373.2613 322.5259,-351.0799 304.3289,-326.6 283.0557,-297.9818 267.0155,-261.1901 256.3139,-231.6368"/>
<polygon fill="#000000" stroke="#000000" points="259.5128,-230.1834 252.8894,-221.9141 252.9103,-232.5089 259.5128,-230.1834"/>
</g>
<!-- HIGHROUND -->
<g id="node12" class="node">
<title>HIGHROUND</title>
<polygon fill="none" stroke="#000000" points="459.383,-138.5 459.383,-221.7 525.2748,-221.7 525.2748,-138.5 459.383,-138.5"/>
<text text-anchor="middle" x="492.3289" y="-205.1" font-family="Times,serif" font-size="14.00" fill="#000000">y, u</text>
<polyline fill="none" stroke="#000000" points="459.383,-196.9 525.2748,-196.9 "/>
<text text-anchor="middle" x="492.3289" y="-180.3" font-family="Times,serif" font-size="14.00" fill="#000000">+nonlow</text>
<text text-anchor="middle" x="492.3289" y="-163.5" font-family="Times,serif" font-size="14.00" fill="#000000">+round</text>
<text text-anchor="middle" x="492.3289" y="-146.7" font-family="Times,serif" font-size="14.00" fill="#000000">+high</text>
</g>
<!-- NONLOW&#45;&gt;HIGHROUND -->
<g id="edge15" class="edge">
<title>NONLOW&#45;&gt;HIGHROUND</title>
<path fill="none" stroke="#000000" stroke-dasharray="5,2" d="M416.4254,-389.0579C430.0365,-351.5873 455.9959,-280.1227 473.7293,-231.3037"/>
<polygon fill="#000000" stroke="#000000" points="477.0356,-232.4527 477.1602,-221.8586 470.4562,-230.0627 477.0356,-232.4527"/>
</g>
<!-- NONFRONTROUND -->
<g id="node13" class="node">
<title>NONFRONTROUND</title>
<polygon fill="none" stroke="#000000" points="627.383,-138.5 627.383,-221.7 693.2748,-221.7 693.2748,-138.5 627.383,-138.5"/>
<text text-anchor="middle" x="660.3289" y="-205.1" font-family="Times,serif" font-size="14.00" fill="#000000">u, o</text>
<polyline fill="none" stroke="#000000" points="627.383,-196.9 693.2748,-196.9 "/>
<text text-anchor="middle" x="660.3289" y="-180.3" font-family="Times,serif" font-size="14.00" fill="#000000">+nonlow</text>
<text text-anchor="middle" x="660.3289" y="-163.5" font-family="Times,serif" font-size="14.00" fill="#000000">&#45;front</text>
<text text-anchor="middle" x="660.3289" y="-146.7" font-family="Times,serif" font-size="14.00" fill="#000000">+round</text>
</g>
<!-- NONLOW&#45;&gt;NONFRONTROUND -->
<g id="edge18" class="edge">
<title>NONLOW&#45;&gt;NONFRONTROUND</title>
<path fill="none" stroke="#000000" stroke-dasharray="5,2" d="M429.0228,-389.183C438.388,-379.8573 450.0164,-369.9871 462.3289,-363.6 530.9674,-327.9936 578.3526,-381.9681 632.3289,-326.6 656.2826,-302.0287 662.9398,-263.6392 663.7891,-232.322"/>
<polygon fill="#000000" stroke="#000000" points="667.2914,-232.0301 663.871,-222.0026 660.2916,-231.9745 667.2914,-232.0301"/>
</g>
<!-- FRONTNONROUND -->
<g id="node14" class="node">
<title>FRONTNONROUND</title>
<polygon fill="none" stroke="#000000" points="51.383,-138.5 51.383,-221.7 117.2748,-221.7 117.2748,-138.5 51.383,-138.5"/>
<text text-anchor="middle" x="84.3289" y="-205.1" font-family="Times,serif" font-size="14.00" fill="#000000">i, ɛ</text>
<polyline fill="none" stroke="#000000" points="51.383,-196.9 117.2748,-196.9 "/>
<text text-anchor="middle" x="84.3289" y="-180.3" font-family="Times,serif" font-size="14.00" fill="#000000">+nonlow</text>
<text text-anchor="middle" x="84.3289" y="-163.5" font-family="Times,serif" font-size="14.00" fill="#000000">&#45;round</text>
<text text-anchor="middle" x="84.3289" y="-146.7" font-family="Times,serif" font-size="14.00" fill="#000000">+front</text>
</g>
<!-- NONLOW&#45;&gt;FRONTNONROUND -->
<g id="edge21" class="edge">
<title>NONLOW&#45;&gt;FRONTNONROUND</title>
<path fill="none" stroke="#000000" stroke-dasharray="5,2" d="M361.6274,-409.7397C305.2157,-402.1007 209.3997,-381.4599 149.3289,-326.6 121.9827,-301.626 105.5018,-263.0211 95.98,-231.7093"/>
<polygon fill="#000000" stroke="#000000" points="99.2634,-230.4636 93.1281,-221.8259 92.5378,-232.4043 99.2634,-230.4636"/>
</g>
<!-- MID -->
<g id="node17" class="node">
<title>MID</title>
<polygon fill="none" stroke="#000000" points="473.383,-259.7 473.383,-326.1 539.2748,-326.1 539.2748,-259.7 473.383,-259.7"/>
<text text-anchor="middle" x="506.3289" y="-309.5" font-family="Times,serif" font-size="14.00" fill="#000000">œ, ɛ, o</text>
<polyline fill="none" stroke="#000000" points="473.383,-301.3 539.2748,-301.3 "/>
<text text-anchor="middle" x="506.3289" y="-284.7" font-family="Times,serif" font-size="14.00" fill="#000000">+nonlow</text>
<text text-anchor="middle" x="506.3289" y="-267.9" font-family="Times,serif" font-size="14.00" fill="#000000">&#45;high</text>
</g>
<!-- NONLOW&#45;&gt;MID -->
<g id="edge28" class="edge">
<title>NONLOW&#45;&gt;MID</title>
<path fill="none" stroke="#000000" stroke-dasharray="5,2" d="M427.6019,-389.2809C440.4548,-373.5459 457.4034,-352.7966 472.2818,-334.5818"/>
<polygon fill="#000000" stroke="#000000" points="475.3346,-336.3772 478.95,-326.4184 469.9132,-331.9489 475.3346,-336.3772"/>
</g>
<!-- FRONT&#45;&gt;FRONTROUND -->
<g id="edge10" class="edge">
<title>FRONT&#45;&gt;FRONTROUND</title>
<path fill="none" stroke="#000000" stroke-dasharray="5,2" d="M257.3139,-280.0996C287.2322,-267.6721 331.8056,-247.0698 366.3289,-222.2 366.7059,-221.9284 367.0826,-221.6534 367.4589,-221.3752"/>
<polygon fill="#000000" stroke="#000000" points="369.6492,-224.1051 375.2686,-215.1233 365.2745,-218.6404 369.6492,-224.1051"/>
</g>
<!-- FRONT&#45;&gt;HIGHFRONT -->
<g id="edge13" class="edge">
<title>FRONT&#45;&gt;HIGHFRONT</title>
<path fill="none" stroke="#000000" stroke-dasharray="5,2" d="M229.0429,-259.6664C230.2749,-250.9805 231.6328,-241.4074 232.9669,-232.0021"/>
<polygon fill="#000000" stroke="#000000" points="236.4589,-232.3047 234.3981,-221.9122 229.5283,-231.3215 236.4589,-232.3047"/>
</g>
<!-- FRONT&#45;&gt;FRONTNONROUND -->
<g id="edge22" class="edge">
<title>FRONT&#45;&gt;FRONTNONROUND</title>
<path fill="none" stroke="#000000" stroke-dasharray="5,2" d="M191.1113,-270.9248C171.6504,-257.569 146.927,-239.7539 126.3289,-222.2 125.8623,-221.8024 125.3948,-221.4006 124.9267,-220.995"/>
<polygon fill="#000000" stroke="#000000" points="127.105,-218.2466 117.3314,-214.1566 122.4212,-223.4488 127.105,-218.2466"/>
</g>
<!-- MIDFRONT -->
<g id="node18" class="node">
<title>MIDFRONT</title>
<polygon fill="none" stroke="#000000" points="291.383,-138.5 291.383,-221.7 357.2748,-221.7 357.2748,-138.5 291.383,-138.5"/>
<text text-anchor="middle" x="324.3289" y="-205.1" font-family="Times,serif" font-size="14.00" fill="#000000">œ, ɛ</text>
<polyline fill="none" stroke="#000000" points="291.383,-196.9 357.2748,-196.9 "/>
<text text-anchor="middle" x="324.3289" y="-180.3" font-family="Times,serif" font-size="14.00" fill="#000000">+nonlow</text>
<text text-anchor="middle" x="324.3289" y="-163.5" font-family="Times,serif" font-size="14.00" fill="#000000">&#45;high</text>
<text text-anchor="middle" x="324.3289" y="-146.7" font-family="Times,serif" font-size="14.00" fill="#000000">+front</text>
</g>
<!-- FRONT&#45;&gt;MIDFRONT -->
<g id="edge30" class="edge">
<title>FRONT&#45;&gt;MIDFRONT</title>
<path fill="none" stroke="#000000" stroke-dasharray="5,2" d="M253.7913,-259.6664C263.4324,-248.7913 274.3065,-236.5252 284.5777,-224.9393"/>
<polygon fill="#000000" stroke="#000000" points="287.2065,-227.2501 291.2213,-217.4454 281.9685,-222.6064 287.2065,-227.2501"/>
</g>
<!-- ROUND&#45;&gt;FRONTROUND -->
<g id="edge11" class="edge">
<title>ROUND&#45;&gt;FRONTROUND</title>
<path fill="none" stroke="#000000" stroke-dasharray="5,2" d="M557.0632,-264.7078C554.1834,-262.7336 551.2519,-260.8682 548.3289,-259.2 507.8939,-236.1237 489.4292,-247.472 450.3289,-222.2 450.1446,-222.0809 449.9606,-221.9609 449.7766,-221.84"/>
<polygon fill="#000000" stroke="#000000" points="451.7832,-218.9711 441.6522,-215.8707 447.6385,-224.6122 451.7832,-218.9711"/>
</g>
<!-- ROUND&#45;&gt;HIGHROUND -->
<g id="edge16" class="edge">
<title>ROUND&#45;&gt;HIGHROUND</title>
<path fill="none" stroke="#000000" stroke-dasharray="5,2" d="M561.4557,-259.6664C552.2809,-249.106 541.9667,-237.2342 532.1605,-225.947"/>
<polygon fill="#000000" stroke="#000000" points="534.6737,-223.5031 525.4731,-218.2496 529.3894,-228.094 534.6737,-223.5031"/>
</g>
<!-- ROUND&#45;&gt;NONFRONTROUND -->
<g id="edge19" class="edge">
<title>ROUND&#45;&gt;NONFRONTROUND</title>
<path fill="none" stroke="#000000" stroke-dasharray="5,2" d="M610.9526,-259.6664C616.6295,-250.5185 622.9171,-240.3864 629.0505,-230.5028"/>
<polygon fill="#000000" stroke="#000000" points="632.0826,-232.2546 634.3816,-221.9122 626.1348,-228.5636 632.0826,-232.2546"/>
</g>
<!-- MIDROUND -->
<g id="node19" class="node">
<title>MIDROUND</title>
<polygon fill="none" stroke="#000000" points="543.383,-138.5 543.383,-221.7 609.2748,-221.7 609.2748,-138.5 543.383,-138.5"/>
<text text-anchor="middle" x="576.3289" y="-205.1" font-family="Times,serif" font-size="14.00" fill="#000000">œ, o</text>
<polyline fill="none" stroke="#000000" points="543.383,-196.9 609.2748,-196.9 "/>
<text text-anchor="middle" x="576.3289" y="-180.3" font-family="Times,serif" font-size="14.00" fill="#000000">+nonlow</text>
<text text-anchor="middle" x="576.3289" y="-163.5" font-family="Times,serif" font-size="14.00" fill="#000000">&#45;high</text>
<text text-anchor="middle" x="576.3289" y="-146.7" font-family="Times,serif" font-size="14.00" fill="#000000">+round</text>
</g>
<!-- ROUND&#45;&gt;MIDROUND -->
<g id="edge32" class="edge">
<title>ROUND&#45;&gt;MIDROUND</title>
<path fill="none" stroke="#000000" stroke-dasharray="5,2" d="M586.2042,-259.6664C585.1261,-250.9805 583.938,-241.4074 582.7706,-232.0021"/>
<polygon fill="#000000" stroke="#000000" points="586.2235,-231.405 581.5184,-221.9122 579.2768,-232.2672 586.2235,-231.405"/>
</g>
<!-- HIGH&#45;&gt;HIGHFRONT -->
<g id="edge14" class="edge">
<title>HIGH&#45;&gt;HIGHFRONT</title>
<path fill="none" stroke="#000000" stroke-dasharray="5,2" d="M315.0987,-259.6664C304.2761,-248.1495 291.9877,-235.0728 280.5448,-222.8958"/>
<polygon fill="#000000" stroke="#000000" points="282.9485,-220.3427 273.5499,-215.4522 277.8474,-225.1363 282.9485,-220.3427"/>
</g>
<!-- HIGH&#45;&gt;HIGHROUND -->
<g id="edge17" class="edge">
<title>HIGH&#45;&gt;HIGHROUND</title>
<path fill="none" stroke="#000000" stroke-dasharray="5,2" d="M379.3252,-272.7497C400.3609,-259.3593 427.7994,-240.8633 450.3289,-222.2 450.6867,-221.9036 451.0449,-221.6047 451.4033,-221.3033"/>
<polygon fill="#000000" stroke="#000000" points="453.732,-223.9163 458.9285,-214.6833 449.1084,-218.6605 453.732,-223.9163"/>
</g>
<!-- NONFRONT&#45;&gt;NONFRONTROUND -->
<g id="edge20" class="edge">
<title>NONFRONT&#45;&gt;NONFRONTROUND</title>
<path fill="none" stroke="#000000" stroke-dasharray="5,2" d="M709.4429,-389.0579C700.6541,-351.6654 683.9085,-280.4204 672.4357,-231.6091"/>
<polygon fill="#000000" stroke="#000000" points="675.8393,-230.7925 670.144,-221.8586 669.025,-232.3942 675.8393,-230.7925"/>
</g>
<!-- NONFRONTNONHIGH -->
<g id="node15" class="node">
<title>NONFRONTNONHIGH</title>
<polygon fill="none" stroke="#000000" points="717.3289,-259.7 717.3289,-326.1 771.3289,-326.1 771.3289,-259.7 717.3289,-259.7"/>
<text text-anchor="middle" x="744.2651" y="-309.5" font-family="Times,serif" font-size="14.00" fill="#000000">a, o</text>
<polyline fill="none" stroke="#000000" points="717.3289,-301.3 771.2013,-301.3 "/>
<text text-anchor="middle" x="744.2651" y="-284.7" font-family="Times,serif" font-size="14.00" fill="#000000">&#45;front</text>
<text text-anchor="middle" x="744.2651" y="-267.9" font-family="Times,serif" font-size="14.00" fill="#000000">&#45;high</text>
</g>
<!-- NONFRONT&#45;&gt;NONFRONTNONHIGH -->
<g id="edge24" class="edge">
<title>NONFRONT&#45;&gt;NONFRONTNONHIGH</title>
<path fill="none" stroke="#000000" stroke-dasharray="5,2" d="M721.2675,-389.2809C724.8968,-374.1129 729.6409,-354.2856 733.8821,-336.5605"/>
<polygon fill="#000000" stroke="#000000" points="737.3856,-336.9583 736.3088,-326.4184 730.5778,-335.3293 737.3856,-336.9583"/>
</g>
<!-- NONROUND&#45;&gt;FRONTNONROUND -->
<g id="edge23" class="edge">
<title>NONROUND&#45;&gt;FRONTNONROUND</title>
<path fill="none" stroke="#000000" stroke-dasharray="5,2" d="M67.9895,-267.866C69.9727,-257.2134 72.3634,-244.3717 74.6966,-231.8391"/>
<polygon fill="#000000" stroke="#000000" points="78.1571,-232.3739 76.5466,-221.9022 71.2754,-231.0927 78.1571,-232.3739"/>
</g>
<!-- NONROUNDNONHIGH -->
<g id="node16" class="node">
<title>NONROUNDNONHIGH</title>
<polygon fill="none" stroke="#000000" points="135.3289,-146.9 135.3289,-213.3 189.3289,-213.3 189.3289,-146.9 135.3289,-146.9"/>
<text text-anchor="middle" x="161.9895" y="-196.7" font-family="Times,serif" font-size="14.00" fill="#000000">a, ɛ</text>
<polyline fill="none" stroke="#000000" points="135.3289,-188.5 188.6501,-188.5 "/>
<text text-anchor="middle" x="161.9895" y="-171.9" font-family="Times,serif" font-size="14.00" fill="#000000">&#45;round</text>
<text text-anchor="middle" x="161.9895" y="-155.1" font-family="Times,serif" font-size="14.00" fill="#000000">&#45;high</text>
</g>
<!-- NONROUND&#45;&gt;NONROUNDNONHIGH -->
<g id="edge26" class="edge">
<title>NONROUND&#45;&gt;NONROUNDNONHIGH</title>
<path fill="none" stroke="#000000" stroke-dasharray="5,2" d="M85.9055,-267.8153C97.9676,-254.3501 113.0306,-237.434 126.3289,-222.2 127.0562,-221.3668 127.7908,-220.5236 128.5306,-219.6728"/>
<polygon fill="#000000" stroke="#000000" points="131.3744,-221.7351 135.2711,-211.8829 126.081,-217.1548 131.3744,-221.7351"/>
</g>
<!-- NONHIGH&#45;&gt;NONFRONTNONHIGH -->
<g id="edge25" class="edge">
<title>NONHIGH&#45;&gt;NONFRONTNONHIGH</title>
<path fill="none" stroke="#000000" stroke-dasharray="5,2" d="M537.1966,-397.5018C581.8755,-374.939 661.5178,-334.7196 707.9486,-311.2721"/>
<polygon fill="#000000" stroke="#000000" points="709.7011,-314.3081 717.0497,-306.676 706.5456,-308.0596 709.7011,-314.3081"/>
</g>
<!-- NONHIGH&#45;&gt;NONROUNDNONHIGH -->
<g id="edge27" class="edge">
<title>NONHIGH&#45;&gt;NONROUNDNONHIGH</title>
<path fill="none" stroke="#000000" stroke-dasharray="5,2" d="M489.4525,-389.2092C482.4413,-379.6514 473.2117,-369.6049 462.3289,-363.6 352.4234,-302.9566 271.2799,-415.1695 182.3289,-326.6 155.9024,-300.2869 153.0286,-256.6591 155.4861,-223.8424"/>
<polygon fill="#000000" stroke="#000000" points="158.9972,-223.8868 156.4482,-213.6032 152.0279,-223.2319 158.9972,-223.8868"/>
</g>
<!-- NONHIGH&#45;&gt;MID -->
<g id="edge29" class="edge">
<title>NONHIGH&#45;&gt;MID</title>
<path fill="none" stroke="#000000" stroke-dasharray="5,2" d="M504.7385,-389.2809C504.9888,-374.1129 505.3159,-354.2856 505.6084,-336.5605"/>
<polygon fill="#000000" stroke="#000000" points="509.1102,-336.4748 505.7758,-326.4184 502.1112,-336.3592 509.1102,-336.4748"/>
</g>
<!-- YY -->
<g id="node21" class="node">
<title>YY</title>
<polygon fill="none" stroke="#000000" points="375.383,-.5 375.383,-100.5 441.2748,-100.5 441.2748,-.5 375.383,-.5"/>
<text text-anchor="middle" x="408.3289" y="-83.9" font-family="Times,serif" font-size="14.00" fill="#000000">y</text>
<polyline fill="none" stroke="#000000" points="375.383,-75.7 441.2748,-75.7 "/>
<text text-anchor="middle" x="408.3289" y="-59.1" font-family="Times,serif" font-size="14.00" fill="#000000">+nonlow</text>
<text text-anchor="middle" x="408.3289" y="-42.3" font-family="Times,serif" font-size="14.00" fill="#000000">+front</text>
<text text-anchor="middle" x="408.3289" y="-25.5" font-family="Times,serif" font-size="14.00" fill="#000000">+round</text>
<text text-anchor="middle" x="408.3289" y="-8.7" font-family="Times,serif" font-size="14.00" fill="#000000">+high</text>
</g>
<!-- FRONTROUND&#45;&gt;YY -->
<g id="edge36" class="edge">
<title>FRONTROUND&#45;&gt;YY</title>
<path fill="none" stroke="#000000" stroke-dasharray="5,2" d="M408.3289,-138.3804C408.3289,-129.5771 408.3289,-120.1201 408.3289,-110.7885"/>
<polygon fill="#000000" stroke="#000000" points="411.829,-110.7487 408.3289,-100.7488 404.829,-110.7488 411.829,-110.7487"/>
</g>
<!-- II -->
<g id="node20" class="node">
<title>II</title>
<polygon fill="none" stroke="#000000" points="51.383,-.5 51.383,-100.5 117.2748,-100.5 117.2748,-.5 51.383,-.5"/>
<text text-anchor="middle" x="84.3289" y="-83.9" font-family="Times,serif" font-size="14.00" fill="#000000">i</text>
<polyline fill="none" stroke="#000000" points="51.383,-75.7 117.2748,-75.7 "/>
<text text-anchor="middle" x="84.3289" y="-59.1" font-family="Times,serif" font-size="14.00" fill="#000000">+nonlow</text>
<text text-anchor="middle" x="84.3289" y="-42.3" font-family="Times,serif" font-size="14.00" fill="#000000">&#45;round</text>
<text text-anchor="middle" x="84.3289" y="-25.5" font-family="Times,serif" font-size="14.00" fill="#000000">+front</text>
<text text-anchor="middle" x="84.3289" y="-8.7" font-family="Times,serif" font-size="14.00" fill="#000000">+high</text>
</g>
<!-- HIGHFRONT&#45;&gt;II -->
<g id="edge34" class="edge">
<title>HIGHFRONT&#45;&gt;II</title>
<path fill="none" stroke="#000000" stroke-dasharray="5,2" d="M207.2378,-145.1192C204.3188,-142.5994 201.3307,-140.1916 198.3289,-138 169.2713,-116.7851 154.3978,-123.5069 126.3289,-101 125.8563,-100.621 125.3852,-100.236 124.9158,-99.8454"/>
<polygon fill="#000000" stroke="#000000" points="127.2352,-97.2239 117.4791,-93.0924 122.5294,-102.4062 127.2352,-97.2239"/>
</g>
<!-- HIGHFRONT&#45;&gt;YY -->
<g id="edge37" class="edge">
<title>HIGHFRONT&#45;&gt;YY</title>
<path fill="none" stroke="#000000" stroke-dasharray="5,2" d="M273.2819,-145.9848C276.2792,-143.2157 279.3202,-140.5178 282.3289,-138 309.095,-115.6018 341.476,-93.2058 366.709,-76.6792"/>
<polygon fill="#000000" stroke="#000000" points="368.8364,-79.471 375.3153,-71.088 365.0228,-73.601 368.8364,-79.471"/>
</g>
<!-- HIGHROUND&#45;&gt;YY -->
<g id="edge38" class="edge">
<title>HIGHROUND&#45;&gt;YY</title>
<path fill="none" stroke="#000000" stroke-dasharray="5,2" d="M465.2884,-138.3804C459.2791,-129.1088 452.7998,-119.1122 446.4404,-109.3006"/>
<polygon fill="#000000" stroke="#000000" points="449.2736,-107.2366 440.8975,-100.7488 443.3995,-111.0439 449.2736,-107.2366"/>
</g>
<!-- UU -->
<g id="node22" class="node">
<title>UU</title>
<polygon fill="none" stroke="#000000" points="543.383,-.5 543.383,-100.5 609.2748,-100.5 609.2748,-.5 543.383,-.5"/>
<text text-anchor="middle" x="576.3289" y="-83.9" font-family="Times,serif" font-size="14.00" fill="#000000">u</text>
<polyline fill="none" stroke="#000000" points="543.383,-75.7 609.2748,-75.7 "/>
<text text-anchor="middle" x="576.3289" y="-59.1" font-family="Times,serif" font-size="14.00" fill="#000000">+nonlow</text>
<text text-anchor="middle" x="576.3289" y="-42.3" font-family="Times,serif" font-size="14.00" fill="#000000">&#45;front</text>
<text text-anchor="middle" x="576.3289" y="-25.5" font-family="Times,serif" font-size="14.00" fill="#000000">+round</text>
<text text-anchor="middle" x="576.3289" y="-8.7" font-family="Times,serif" font-size="14.00" fill="#000000">+high</text>
</g>
<!-- HIGHROUND&#45;&gt;UU -->
<g id="edge39" class="edge">
<title>HIGHROUND&#45;&gt;UU</title>
<path fill="none" stroke="#000000" stroke-dasharray="5,2" d="M519.3694,-138.3804C525.3787,-129.1088 531.858,-119.1122 538.2174,-109.3006"/>
<polygon fill="#000000" stroke="#000000" points="541.2583,-111.0439 543.7603,-100.7488 535.3842,-107.2366 541.2583,-111.0439"/>
</g>
<!-- NONFRONTROUND&#45;&gt;UU -->
<g id="edge40" class="edge">
<title>NONFRONTROUND&#45;&gt;UU</title>
<path fill="none" stroke="#000000" stroke-dasharray="5,2" d="M633.2884,-138.3804C627.2791,-129.1088 620.7998,-119.1122 614.4404,-109.3006"/>
<polygon fill="#000000" stroke="#000000" points="617.2736,-107.2366 608.8975,-100.7488 611.3995,-111.0439 617.2736,-107.2366"/>
</g>
<!-- OO -->
<g id="node25" class="node">
<title>OO</title>
<polygon fill="none" stroke="#000000" points="627.383,-.5 627.383,-100.5 693.2748,-100.5 693.2748,-.5 627.383,-.5"/>
<text text-anchor="middle" x="660.3289" y="-83.9" font-family="Times,serif" font-size="14.00" fill="#000000">o</text>
<polyline fill="none" stroke="#000000" points="627.383,-75.7 693.2748,-75.7 "/>
<text text-anchor="middle" x="660.3289" y="-59.1" font-family="Times,serif" font-size="14.00" fill="#000000">+nonlow</text>
<text text-anchor="middle" x="660.3289" y="-42.3" font-family="Times,serif" font-size="14.00" fill="#000000">&#45;front</text>
<text text-anchor="middle" x="660.3289" y="-25.5" font-family="Times,serif" font-size="14.00" fill="#000000">&#45;high</text>
<text text-anchor="middle" x="660.3289" y="-8.7" font-family="Times,serif" font-size="14.00" fill="#000000">+round</text>
</g>
<!-- NONFRONTROUND&#45;&gt;OO -->
<g id="edge46" class="edge">
<title>NONFRONTROUND&#45;&gt;OO</title>
<path fill="none" stroke="#000000" stroke-dasharray="5,2" d="M660.3289,-138.3804C660.3289,-129.5771 660.3289,-120.1201 660.3289,-110.7885"/>
<polygon fill="#000000" stroke="#000000" points="663.829,-110.7487 660.3289,-100.7488 656.829,-110.7488 663.829,-110.7487"/>
</g>
<!-- FRONTNONROUND&#45;&gt;II -->
<g id="edge35" class="edge">
<title>FRONTNONROUND&#45;&gt;II</title>
<path fill="none" stroke="#000000" stroke-dasharray="5,2" d="M84.3289,-138.3804C84.3289,-129.5771 84.3289,-120.1201 84.3289,-110.7885"/>
<polygon fill="#000000" stroke="#000000" points="87.829,-110.7487 84.3289,-100.7488 80.829,-110.7488 87.829,-110.7487"/>
</g>
<!-- EH -->
<g id="node23" class="node">
<title>EH</title>
<polygon fill="none" stroke="#000000" points="135.383,-.5 135.383,-100.5 201.2748,-100.5 201.2748,-.5 135.383,-.5"/>
<text text-anchor="middle" x="168.3289" y="-83.9" font-family="Times,serif" font-size="14.00" fill="#000000">ɛ</text>
<polyline fill="none" stroke="#000000" points="135.383,-75.7 201.2748,-75.7 "/>
<text text-anchor="middle" x="168.3289" y="-59.1" font-family="Times,serif" font-size="14.00" fill="#000000">+nonlow</text>
<text text-anchor="middle" x="168.3289" y="-42.3" font-family="Times,serif" font-size="14.00" fill="#000000">&#45;round</text>
<text text-anchor="middle" x="168.3289" y="-25.5" font-family="Times,serif" font-size="14.00" fill="#000000">&#45;high</text>
<text text-anchor="middle" x="168.3289" y="-8.7" font-family="Times,serif" font-size="14.00" fill="#000000">+front</text>
</g>
<!-- FRONTNONROUND&#45;&gt;EH -->
<g id="edge43" class="edge">
<title>FRONTNONROUND&#45;&gt;EH</title>
<path fill="none" stroke="#000000" stroke-dasharray="5,2" d="M111.3694,-138.3804C117.3787,-129.1088 123.858,-119.1122 130.2174,-109.3006"/>
<polygon fill="#000000" stroke="#000000" points="133.2583,-111.0439 135.7603,-100.7488 127.3842,-107.2366 133.2583,-111.0439"/>
</g>
<!-- NONFRONTNONHIGH&#45;&gt;OO -->
<g id="edge47" class="edge">
<title>NONFRONTNONHIGH&#45;&gt;OO</title>
<path fill="none" stroke="#000000" stroke-dasharray="5,2" d="M737.1171,-259.4117C729.844,-227.6594 717.5329,-178.8697 702.3289,-138 698.8919,-128.7611 694.8326,-119.1755 690.6147,-109.8841"/>
<polygon fill="#000000" stroke="#000000" points="693.7443,-108.3132 686.3612,-100.7145 687.3942,-111.2588 693.7443,-108.3132"/>
</g>
<!-- NONROUNDNONHIGH&#45;&gt;EH -->
<g id="edge44" class="edge">
<title>NONROUNDNONHIGH&#45;&gt;EH</title>
<path fill="none" stroke="#000000" stroke-dasharray="5,2" d="M163.874,-146.7248C164.3786,-135.8265 164.9556,-123.3634 165.5233,-111.1017"/>
<polygon fill="#000000" stroke="#000000" points="169.0298,-111.0391 165.9961,-100.8879 162.0373,-110.7153 169.0298,-111.0391"/>
</g>
<!-- MID&#45;&gt;MIDFRONT -->
<g id="edge31" class="edge">
<title>MID&#45;&gt;MIDFRONT</title>
<path fill="none" stroke="#000000" stroke-dasharray="5,2" d="M473.2468,-279.7696C443.7647,-267.2593 400.1726,-246.7266 366.3289,-222.2 365.9527,-221.9274 365.5768,-221.6513 365.2012,-221.3721"/>
<polygon fill="#000000" stroke="#000000" points="367.3901,-218.641 357.403,-215.1043 363.0048,-224.0971 367.3901,-218.641"/>
</g>
<!-- MID&#45;&gt;MIDROUND -->
<g id="edge33" class="edge">
<title>MID&#45;&gt;MIDROUND</title>
<path fill="none" stroke="#000000" stroke-dasharray="5,2" d="M526.9526,-259.6664C532.6295,-250.5185 538.9171,-240.3864 545.0505,-230.5028"/>
<polygon fill="#000000" stroke="#000000" points="548.0826,-232.2546 550.3816,-221.9122 542.1348,-228.5636 548.0826,-232.2546"/>
</g>
<!-- MIDFRONT&#45;&gt;EH -->
<g id="edge45" class="edge">
<title>MIDFRONT&#45;&gt;EH</title>
<path fill="none" stroke="#000000" stroke-dasharray="5,2" d="M291.2435,-146.1391C288.275,-143.3365 285.2768,-140.5887 282.3289,-138 259.1393,-117.636 231.7436,-96.5224 209.6207,-80.1381"/>
<polygon fill="#000000" stroke="#000000" points="211.5482,-77.211 201.4199,-74.1016 207.3986,-82.8484 211.5482,-77.211"/>
</g>
<!-- OE -->
<g id="node24" class="node">
<title>OE</title>
<polygon fill="none" stroke="#000000" points="459.383,-.5 459.383,-100.5 525.2748,-100.5 525.2748,-.5 459.383,-.5"/>
<text text-anchor="middle" x="492.3289" y="-83.9" font-family="Times,serif" font-size="14.00" fill="#000000">œ</text>
<polyline fill="none" stroke="#000000" points="459.383,-75.7 525.2748,-75.7 "/>
<text text-anchor="middle" x="492.3289" y="-59.1" font-family="Times,serif" font-size="14.00" fill="#000000">+nonlow</text>
<text text-anchor="middle" x="492.3289" y="-42.3" font-family="Times,serif" font-size="14.00" fill="#000000">&#45;high</text>
<text text-anchor="middle" x="492.3289" y="-25.5" font-family="Times,serif" font-size="14.00" fill="#000000">+front</text>
<text text-anchor="middle" x="492.3289" y="-8.7" font-family="Times,serif" font-size="14.00" fill="#000000">+round</text>
</g>
<!-- MIDFRONT&#45;&gt;OE -->
<g id="edge41" class="edge">
<title>MIDFRONT&#45;&gt;OE</title>
<path fill="none" stroke="#000000" stroke-dasharray="5,2" d="M357.2779,-144.9182C360.2287,-142.4435 363.2629,-140.1009 366.3289,-138 399.9809,-114.9405 417.7537,-125.5572 450.3289,-101 450.8126,-100.6353 451.2944,-100.264 451.774,-99.8866"/>
<polygon fill="#000000" stroke="#000000" points="454.0962,-102.5055 459.3392,-93.2989 449.4992,-97.2264 454.0962,-102.5055"/>
</g>
<!-- MIDROUND&#45;&gt;OE -->
<g id="edge42" class="edge">
<title>MIDROUND&#45;&gt;OE</title>
<path fill="none" stroke="#000000" stroke-dasharray="5,2" d="M549.2884,-138.3804C543.2791,-129.1088 536.7998,-119.1122 530.4404,-109.3006"/>
<polygon fill="#000000" stroke="#000000" points="533.2736,-107.2366 524.8975,-100.7488 527.3995,-111.0439 533.2736,-107.2366"/>
</g>
<!-- MIDROUND&#45;&gt;OO -->
<g id="edge48" class="edge">
<title>MIDROUND&#45;&gt;OO</title>
<path fill="none" stroke="#000000" stroke-dasharray="5,2" d="M603.3694,-138.3804C609.3787,-129.1088 615.858,-119.1122 622.2174,-109.3006"/>
<polygon fill="#000000" stroke="#000000" points="625.2583,-111.0439 627.7603,-100.7488 619.3842,-107.2366 625.2583,-111.0439"/>
</g>
</g>
</svg>
