<?xml version="1.0" encoding="UTF-8" standalone="no"?>
<!DOCTYPE svg PUBLIC "-//W3C//DTD SVG 1.1//EN"
 "http://www.w3.org/Graphics/SVG/1.1/DTD/svg11.dtd">
<!-- Generated by graphviz version 2.40.1 (20161225.0304)
 -->
<!-- Title: %3 Pages: 1 -->
<svg width="722pt" height="541pt"
 viewBox="0.00 0.00 721.95 541.40" xmlns="http://www.w3.org/2000/svg" xmlns:xlink="http://www.w3.org/1999/xlink">
<g id="graph0" class="graph" transform="scale(1 1) rotate(0) translate(4 537.4)">
<title>%3</title>
<polygon fill="#ffffff" stroke="transparent" points="-4,4 -4,-537.4 717.9459,-537.4 717.9459,4 -4,4"/>
<!-- 0 -->
<g id="node1" class="node">
<title>0</title>
<polygon fill="none" stroke="#000000" points="406.813,-483.3 406.813,-532.9 511.0788,-532.9 511.0788,-483.3 406.813,-483.3"/>
<text text-anchor="middle" x="458.9459" y="-516.3" font-family="Times,serif" font-size="14.00" fill="#000000">i, œ, a, y, u, o, ɛ</text>
<polyline fill="none" stroke="#000000" points="406.813,-508.1 511.0788,-508.1 "/>
<text text-anchor="middle" x="458.9459" y="-491.5" font-family="Times,serif" font-size="14.00" fill="#000000"> </text>
</g>
<!-- 1 -->
<g id="node2" class="node">
<title>1</title>
<polygon fill="none" stroke="#000000" points="268.4203,-379.9 268.4203,-429.5 359.4715,-429.5 359.4715,-379.9 268.4203,-379.9"/>
<text text-anchor="middle" x="313.9459" y="-412.9" font-family="Times,serif" font-size="14.00" fill="#000000">i, œ, u, y, o, ɛ</text>
<polyline fill="none" stroke="#000000" points="268.4203,-404.7 359.4715,-404.7 "/>
<text text-anchor="middle" x="313.9459" y="-388.1" font-family="Times,serif" font-size="14.00" fill="#000000">+nonlow</text>
</g>
<!-- 0&#45;&gt;1 -->
<g id="edge1" class="edge">
<title>0&#45;&gt;1</title>
<path fill="none" stroke="#000000" d="M423.8454,-483.0697C403.7934,-468.7706 378.4852,-450.7232 357.2111,-435.5526"/>
<polygon fill="#000000" stroke="#000000" points="359.1481,-432.6351 348.9741,-429.6787 355.0839,-438.3345 359.1481,-432.6351"/>
<text text-anchor="middle" x="361.1863" y="-460.3763" font-family="Times,serif" font-size="14.00" fill="#ff0000">+nonlow</text>
</g>
<!-- 15 -->
<g id="node16" class="node">
<title>15</title>
<polygon fill="none" stroke="#000000" points="608.9459,-268.1 608.9459,-317.7 662.9459,-317.7 662.9459,-268.1 608.9459,-268.1"/>
<text text-anchor="middle" x="635.5532" y="-301.1" font-family="Times,serif" font-size="14.00" fill="#000000">a, u, o</text>
<polyline fill="none" stroke="#000000" points="608.9459,-292.9 662.1605,-292.9 "/>
<text text-anchor="middle" x="635.5532" y="-276.3" font-family="Times,serif" font-size="14.00" fill="#000000">&#45;front</text>
</g>
<!-- 0&#45;&gt;15 -->
<g id="edge2" class="edge">
<title>0&#45;&gt;15</title>
<path fill="none" stroke="#000000" d="M499.0808,-483.2743C507.5326,-477.5252 516.2222,-471.205 523.9459,-464.8 569.6957,-426.8609 603.3882,-365.3495 621.305,-327.1123"/>
<polygon fill="#000000" stroke="#000000" points="624.5329,-328.4698 625.518,-317.9209 618.1695,-325.5531 624.5329,-328.4698"/>
<text text-anchor="middle" x="607.8821" y="-400.5" font-family="Times,serif" font-size="14.00" fill="#0000ff">&#45;front</text>
</g>
<!-- 17 -->
<g id="node18" class="node">
<title>17</title>
<polygon fill="none" stroke="#000000" points="364.9459,-268.1 364.9459,-317.7 418.9459,-317.7 418.9459,-268.1 364.9459,-268.1"/>
<text text-anchor="middle" x="391.6065" y="-301.1" font-family="Times,serif" font-size="14.00" fill="#000000">a, i, ɛ</text>
<polyline fill="none" stroke="#000000" points="364.9459,-292.9 418.2671,-292.9 "/>
<text text-anchor="middle" x="391.6065" y="-276.3" font-family="Times,serif" font-size="14.00" fill="#000000">&#45;round</text>
</g>
<!-- 0&#45;&gt;17 -->
<g id="edge3" class="edge">
<title>0&#45;&gt;17</title>
<path fill="none" stroke="#000000" d="M451.129,-482.9927C439.1518,-444.5225 416.2281,-370.893 402.6949,-327.4252"/>
<polygon fill="#000000" stroke="#000000" points="406.0275,-326.3549 399.713,-317.8474 399.3439,-328.4358 406.0275,-326.3549"/>
<text text-anchor="middle" x="406.7419" y="-404.5607" font-family="Times,serif" font-size="14.00" fill="#0000ff">&#45;round</text>
</g>
<!-- 19 -->
<g id="node20" class="node">
<title>19</title>
<polygon fill="none" stroke="#000000" points="483.2583,-379.9 483.2583,-429.5 548.6335,-429.5 548.6335,-379.9 483.2583,-379.9"/>
<text text-anchor="middle" x="515.9459" y="-412.9" font-family="Times,serif" font-size="14.00" fill="#000000">a, o, ɛ, œ</text>
<polyline fill="none" stroke="#000000" points="483.2583,-404.7 548.6335,-404.7 "/>
<text text-anchor="middle" x="515.9459" y="-388.1" font-family="Times,serif" font-size="14.00" fill="#000000">&#45;high</text>
</g>
<!-- 0&#45;&gt;19 -->
<g id="edge4" class="edge">
<title>0&#45;&gt;19</title>
<path fill="none" stroke="#000000" d="M472.744,-483.0697C480.0414,-469.8319 489.1098,-453.3817 497.0513,-438.9755"/>
<polygon fill="#000000" stroke="#000000" points="500.3147,-440.3053 502.0773,-429.8581 494.1845,-436.926 500.3147,-440.3053"/>
<text text-anchor="middle" x="504.7215" y="-452.2" font-family="Times,serif" font-size="14.00" fill="#0000ff">&#45;high</text>
</g>
<!-- 2 -->
<g id="node3" class="node">
<title>2</title>
<polygon fill="none" stroke="#000000" points="197,-259.7 197,-326.1 262.8918,-326.1 262.8918,-259.7 197,-259.7"/>
<text text-anchor="middle" x="229.9459" y="-309.5" font-family="Times,serif" font-size="14.00" fill="#000000">y, i, ɛ, œ</text>
<polyline fill="none" stroke="#000000" points="197,-301.3 262.8918,-301.3 "/>
<text text-anchor="middle" x="229.9459" y="-284.7" font-family="Times,serif" font-size="14.00" fill="#000000">+nonlow</text>
<text text-anchor="middle" x="229.9459" y="-267.9" font-family="Times,serif" font-size="14.00" fill="#000000">+front</text>
</g>
<!-- 1&#45;&gt;2 -->
<g id="edge5" class="edge">
<title>1&#45;&gt;2</title>
<path fill="none" stroke="#000000" d="M295.3036,-379.888C285.2712,-366.5354 272.6318,-349.7129 261.1478,-334.4282"/>
<polygon fill="#000000" stroke="#000000" points="263.7157,-332.0193 254.9106,-326.1268 258.1193,-336.2241 263.7157,-332.0193"/>
<text text-anchor="middle" x="257.6338" y="-357.3138" font-family="Times,serif" font-size="14.00" fill="#ff0000">+front</text>
</g>
<!-- 3 -->
<g id="node4" class="node">
<title>3</title>
<polygon fill="none" stroke="#000000" points="280.8656,-259.7 280.8656,-326.1 347.0262,-326.1 347.0262,-259.7 280.8656,-259.7"/>
<text text-anchor="middle" x="313.9459" y="-309.5" font-family="Times,serif" font-size="14.00" fill="#000000">y, u, o, œ</text>
<polyline fill="none" stroke="#000000" points="280.8656,-301.3 347.0262,-301.3 "/>
<text text-anchor="middle" x="313.9459" y="-284.7" font-family="Times,serif" font-size="14.00" fill="#000000">+nonlow</text>
<text text-anchor="middle" x="313.9459" y="-267.9" font-family="Times,serif" font-size="14.00" fill="#000000">+round</text>
</g>
<!-- 1&#45;&gt;3 -->
<g id="edge6" class="edge">
<title>1&#45;&gt;3</title>
<path fill="none" stroke="#000000" d="M313.9459,-379.888C313.9459,-367.0299 313.9459,-350.9542 313.9459,-336.1326"/>
<polygon fill="#000000" stroke="#000000" points="317.446,-336.1268 313.9459,-326.1268 310.446,-336.1269 317.446,-336.1268"/>
<text text-anchor="middle" x="334.2235" y="-348.8" font-family="Times,serif" font-size="14.00" fill="#ff0000">+round</text>
</g>
<!-- 4 -->
<g id="node5" class="node">
<title>4</title>
<polygon fill="none" stroke="#000000" points="113,-259.7 113,-326.1 178.8918,-326.1 178.8918,-259.7 113,-259.7"/>
<text text-anchor="middle" x="145.9459" y="-309.5" font-family="Times,serif" font-size="14.00" fill="#000000">y, u, i</text>
<polyline fill="none" stroke="#000000" points="113,-301.3 178.8918,-301.3 "/>
<text text-anchor="middle" x="145.9459" y="-284.7" font-family="Times,serif" font-size="14.00" fill="#000000">+nonlow</text>
<text text-anchor="middle" x="145.9459" y="-267.9" font-family="Times,serif" font-size="14.00" fill="#000000">+high</text>
</g>
<!-- 1&#45;&gt;4 -->
<g id="edge7" class="edge">
<title>1&#45;&gt;4</title>
<path fill="none" stroke="#000000" d="M270.8276,-379.7424C246.0963,-364.9934 214.7373,-345.5466 187.9459,-326.6 187.7646,-326.4718 187.5831,-326.3431 187.4013,-326.2139"/>
<polygon fill="#000000" stroke="#000000" points="189.2632,-323.2384 179.1344,-320.1305 185.1143,-328.8764 189.2632,-323.2384"/>
<text text-anchor="middle" x="207.7309" y="-355.0881" font-family="Times,serif" font-size="14.00" fill="#ff0000">+high</text>
</g>
<!-- 20 -->
<g id="node21" class="node">
<title>20</title>
<polygon fill="none" stroke="#000000" points="437,-259.7 437,-326.1 502.8918,-326.1 502.8918,-259.7 437,-259.7"/>
<text text-anchor="middle" x="469.9459" y="-309.5" font-family="Times,serif" font-size="14.00" fill="#000000">œ, ɛ, o</text>
<polyline fill="none" stroke="#000000" points="437,-301.3 502.8918,-301.3 "/>
<text text-anchor="middle" x="469.9459" y="-284.7" font-family="Times,serif" font-size="14.00" fill="#000000">+nonlow</text>
<text text-anchor="middle" x="469.9459" y="-267.9" font-family="Times,serif" font-size="14.00" fill="#000000">&#45;high</text>
</g>
<!-- 1&#45;&gt;20 -->
<g id="edge8" class="edge">
<title>1&#45;&gt;20</title>
<path fill="none" stroke="#000000" stroke-dasharray="5,2" d="M351.6683,-379.8986C374.1175,-364.8826 402.997,-345.1143 427.9459,-326.6 428.1242,-326.4677 428.3028,-326.3349 428.4817,-326.2017"/>
<polygon fill="#000000" stroke="#000000" points="430.8124,-328.8264 436.6536,-319.9873 426.5752,-323.2545 430.8124,-328.8264"/>
</g>
<!-- 12 -->
<g id="node13" class="node">
<title>12</title>
<polygon fill="none" stroke="#000000" points="84,-138.5 84,-221.7 149.8918,-221.7 149.8918,-138.5 84,-138.5"/>
<text text-anchor="middle" x="116.9459" y="-205.1" font-family="Times,serif" font-size="14.00" fill="#000000">y, œ</text>
<polyline fill="none" stroke="#000000" points="84,-196.9 149.8918,-196.9 "/>
<text text-anchor="middle" x="116.9459" y="-180.3" font-family="Times,serif" font-size="14.00" fill="#000000">+nonlow</text>
<text text-anchor="middle" x="116.9459" y="-163.5" font-family="Times,serif" font-size="14.00" fill="#000000">+front</text>
<text text-anchor="middle" x="116.9459" y="-146.7" font-family="Times,serif" font-size="14.00" fill="#000000">+round</text>
</g>
<!-- 2&#45;&gt;12 -->
<g id="edge10" class="edge">
<title>2&#45;&gt;12</title>
<path fill="none" stroke="#000000" stroke-dasharray="5,2" d="M196.6924,-259.8322C184.7777,-247.9721 171.252,-234.4947 158.9459,-222.2 158.3981,-221.6527 157.8464,-221.1014 157.2914,-220.5467"/>
<polygon fill="#000000" stroke="#000000" points="159.496,-217.8014 149.9506,-213.2039 154.5455,-222.7505 159.496,-217.8014"/>
</g>
<!-- 13 -->
<g id="node14" class="node">
<title>13</title>
<polygon fill="none" stroke="#000000" points="0,-138.5 0,-221.7 65.8918,-221.7 65.8918,-138.5 0,-138.5"/>
<text text-anchor="middle" x="32.9459" y="-205.1" font-family="Times,serif" font-size="14.00" fill="#000000">y, i</text>
<polyline fill="none" stroke="#000000" points="0,-196.9 65.8918,-196.9 "/>
<text text-anchor="middle" x="32.9459" y="-180.3" font-family="Times,serif" font-size="14.00" fill="#000000">+nonlow</text>
<text text-anchor="middle" x="32.9459" y="-163.5" font-family="Times,serif" font-size="14.00" fill="#000000">+front</text>
<text text-anchor="middle" x="32.9459" y="-146.7" font-family="Times,serif" font-size="14.00" fill="#000000">+high</text>
</g>
<!-- 2&#45;&gt;13 -->
<g id="edge11" class="edge">
<title>2&#45;&gt;13</title>
<path fill="none" stroke="#000000" stroke-dasharray="5,2" d="M196.761,-264.5626C193.8631,-262.6209 190.9054,-260.8026 187.9459,-259.2 141.4761,-234.0356 119.9566,-249.8899 74.9459,-222.2 74.6574,-222.0225 74.3693,-221.8426 74.0818,-221.6605"/>
<polygon fill="#000000" stroke="#000000" points="76.093,-218.7958 65.9243,-215.8212 72.0186,-224.4879 76.093,-218.7958"/>
</g>
<!-- 18 -->
<g id="node19" class="node">
<title>18</title>
<polygon fill="none" stroke="#000000" points="252,-138.5 252,-221.7 317.8918,-221.7 317.8918,-138.5 252,-138.5"/>
<text text-anchor="middle" x="284.9459" y="-205.1" font-family="Times,serif" font-size="14.00" fill="#000000">i, ɛ</text>
<polyline fill="none" stroke="#000000" points="252,-196.9 317.8918,-196.9 "/>
<text text-anchor="middle" x="284.9459" y="-180.3" font-family="Times,serif" font-size="14.00" fill="#000000">+nonlow</text>
<text text-anchor="middle" x="284.9459" y="-163.5" font-family="Times,serif" font-size="14.00" fill="#000000">&#45;round</text>
<text text-anchor="middle" x="284.9459" y="-146.7" font-family="Times,serif" font-size="14.00" fill="#000000">+front</text>
</g>
<!-- 2&#45;&gt;18 -->
<g id="edge12" class="edge">
<title>2&#45;&gt;18</title>
<path fill="none" stroke="#000000" stroke-dasharray="5,2" d="M246.1502,-259.6664C250.5205,-250.7033 255.3515,-240.7954 260.0778,-231.1021"/>
<polygon fill="#000000" stroke="#000000" points="263.322,-232.4346 264.5587,-221.9122 257.0301,-229.3667 263.322,-232.4346"/>
</g>
<!-- 21 -->
<g id="node22" class="node">
<title>21</title>
<polygon fill="none" stroke="#000000" points="336,-138.5 336,-221.7 401.8918,-221.7 401.8918,-138.5 336,-138.5"/>
<text text-anchor="middle" x="368.9459" y="-205.1" font-family="Times,serif" font-size="14.00" fill="#000000">œ, ɛ</text>
<polyline fill="none" stroke="#000000" points="336,-196.9 401.8918,-196.9 "/>
<text text-anchor="middle" x="368.9459" y="-180.3" font-family="Times,serif" font-size="14.00" fill="#000000">+nonlow</text>
<text text-anchor="middle" x="368.9459" y="-163.5" font-family="Times,serif" font-size="14.00" fill="#000000">&#45;high</text>
<text text-anchor="middle" x="368.9459" y="-146.7" font-family="Times,serif" font-size="14.00" fill="#000000">+front</text>
</g>
<!-- 2&#45;&gt;21 -->
<g id="edge13" class="edge">
<title>2&#45;&gt;21</title>
<path fill="none" stroke="#000000" stroke-dasharray="5,2" d="M263.2187,-265.7864C266.1466,-263.5275 269.0842,-261.305 271.9459,-259.2 295.6783,-241.7436 304.2127,-240.9391 326.9459,-222.2 327.3044,-221.9045 327.6633,-221.6064 328.0224,-221.3058"/>
<polygon fill="#000000" stroke="#000000" points="330.3464,-223.923 335.5582,-214.6987 325.7316,-218.6595 330.3464,-223.923"/>
</g>
<!-- 3&#45;&gt;12 -->
<g id="edge14" class="edge">
<title>3&#45;&gt;12</title>
<path fill="none" stroke="#000000" stroke-dasharray="5,2" d="M280.761,-264.5626C277.8631,-262.6209 274.9054,-260.8026 271.9459,-259.2 225.4761,-234.0356 203.9566,-249.8899 158.9459,-222.2 158.6574,-222.0225 158.3693,-221.8426 158.0818,-221.6605"/>
<polygon fill="#000000" stroke="#000000" points="160.093,-218.7958 149.9243,-215.8212 156.0186,-224.4879 160.093,-218.7958"/>
</g>
<!-- 14 -->
<g id="node15" class="node">
<title>14</title>
<polygon fill="none" stroke="#000000" points="168,-138.5 168,-221.7 233.8918,-221.7 233.8918,-138.5 168,-138.5"/>
<text text-anchor="middle" x="200.9459" y="-205.1" font-family="Times,serif" font-size="14.00" fill="#000000">y, u</text>
<polyline fill="none" stroke="#000000" points="168,-196.9 233.8918,-196.9 "/>
<text text-anchor="middle" x="200.9459" y="-180.3" font-family="Times,serif" font-size="14.00" fill="#000000">+nonlow</text>
<text text-anchor="middle" x="200.9459" y="-163.5" font-family="Times,serif" font-size="14.00" fill="#000000">+round</text>
<text text-anchor="middle" x="200.9459" y="-146.7" font-family="Times,serif" font-size="14.00" fill="#000000">+high</text>
</g>
<!-- 3&#45;&gt;14 -->
<g id="edge15" class="edge">
<title>3&#45;&gt;14</title>
<path fill="none" stroke="#000000" stroke-dasharray="5,2" d="M290.9784,-259.4902C285.5011,-252.6919 279.3665,-245.8886 272.9459,-240.2 261.3075,-229.8885 255.1962,-231.7765 242.9459,-222.2 242.5799,-221.9139 242.2137,-221.6248 241.8476,-221.3329"/>
<polygon fill="#000000" stroke="#000000" points="244.0957,-218.6503 234.2002,-214.8649 239.5753,-223.9951 244.0957,-218.6503"/>
</g>
<!-- 16 -->
<g id="node17" class="node">
<title>16</title>
<polygon fill="none" stroke="#000000" points="504,-138.5 504,-221.7 569.8918,-221.7 569.8918,-138.5 504,-138.5"/>
<text text-anchor="middle" x="536.9459" y="-205.1" font-family="Times,serif" font-size="14.00" fill="#000000">u, o</text>
<polyline fill="none" stroke="#000000" points="504,-196.9 569.8918,-196.9 "/>
<text text-anchor="middle" x="536.9459" y="-180.3" font-family="Times,serif" font-size="14.00" fill="#000000">+nonlow</text>
<text text-anchor="middle" x="536.9459" y="-163.5" font-family="Times,serif" font-size="14.00" fill="#000000">&#45;front</text>
<text text-anchor="middle" x="536.9459" y="-146.7" font-family="Times,serif" font-size="14.00" fill="#000000">+round</text>
</g>
<!-- 3&#45;&gt;16 -->
<g id="edge16" class="edge">
<title>3&#45;&gt;16</title>
<path fill="none" stroke="#000000" stroke-dasharray="5,2" d="M347.0335,-264.3767C349.9532,-262.4767 352.9425,-260.7187 355.9459,-259.2 370.2084,-251.9879 481.1031,-230.188 494.9459,-222.2 495.1359,-222.0903 495.3257,-221.9796 495.5152,-221.8678"/>
<polygon fill="#000000" stroke="#000000" points="497.5309,-224.7297 503.8308,-216.2114 493.5939,-218.9418 497.5309,-224.7297"/>
</g>
<!-- 22 -->
<g id="node23" class="node">
<title>22</title>
<polygon fill="none" stroke="#000000" points="420,-138.5 420,-221.7 485.8918,-221.7 485.8918,-138.5 420,-138.5"/>
<text text-anchor="middle" x="452.9459" y="-205.1" font-family="Times,serif" font-size="14.00" fill="#000000">œ, o</text>
<polyline fill="none" stroke="#000000" points="420,-196.9 485.8918,-196.9 "/>
<text text-anchor="middle" x="452.9459" y="-180.3" font-family="Times,serif" font-size="14.00" fill="#000000">+nonlow</text>
<text text-anchor="middle" x="452.9459" y="-163.5" font-family="Times,serif" font-size="14.00" fill="#000000">&#45;high</text>
<text text-anchor="middle" x="452.9459" y="-146.7" font-family="Times,serif" font-size="14.00" fill="#000000">+round</text>
</g>
<!-- 3&#45;&gt;22 -->
<g id="edge17" class="edge">
<title>3&#45;&gt;22</title>
<path fill="none" stroke="#000000" stroke-dasharray="5,2" d="M347.2287,-263.487C356.8541,-255.5413 367.5694,-247.2095 377.9459,-240.2 391.7898,-230.8481 397.5753,-232.2168 410.9459,-222.2 411.3177,-221.9214 411.6894,-221.6397 412.061,-221.3549"/>
<polygon fill="#000000" stroke="#000000" points="414.291,-224.0526 419.7944,-214.9992 409.8464,-218.6446 414.291,-224.0526"/>
</g>
<!-- 4&#45;&gt;13 -->
<g id="edge18" class="edge">
<title>4&#45;&gt;13</title>
<path fill="none" stroke="#000000" stroke-dasharray="5,2" d="M112.907,-261.6628C105.9356,-254.9618 98.6598,-247.8853 91.9459,-241.2 85.8625,-235.1425 79.4947,-228.6802 73.2864,-222.3105"/>
<polygon fill="#000000" stroke="#000000" points="75.5748,-219.643 66.0982,-214.9053 70.552,-224.5186 75.5748,-219.643"/>
</g>
<!-- 4&#45;&gt;14 -->
<g id="edge19" class="edge">
<title>4&#45;&gt;14</title>
<path fill="none" stroke="#000000" stroke-dasharray="5,2" d="M162.1502,-259.6664C166.5205,-250.7033 171.3515,-240.7954 176.0778,-231.1021"/>
<polygon fill="#000000" stroke="#000000" points="179.322,-232.4346 180.5587,-221.9122 173.0301,-229.3667 179.322,-232.4346"/>
</g>
<!-- 5 -->
<g id="node6" class="node">
<title>5</title>
<polygon fill="none" stroke="#000000" points="168,-.5 168,-100.5 233.8918,-100.5 233.8918,-.5 168,-.5"/>
<text text-anchor="middle" x="200.9459" y="-83.9" font-family="Times,serif" font-size="14.00" fill="#000000">i</text>
<polyline fill="none" stroke="#000000" points="168,-75.7 233.8918,-75.7 "/>
<text text-anchor="middle" x="200.9459" y="-59.1" font-family="Times,serif" font-size="14.00" fill="#000000">+nonlow</text>
<text text-anchor="middle" x="200.9459" y="-42.3" font-family="Times,serif" font-size="14.00" fill="#000000">&#45;round</text>
<text text-anchor="middle" x="200.9459" y="-25.5" font-family="Times,serif" font-size="14.00" fill="#000000">+front</text>
<text text-anchor="middle" x="200.9459" y="-8.7" font-family="Times,serif" font-size="14.00" fill="#000000">+high</text>
</g>
<!-- 6 -->
<g id="node7" class="node">
<title>6</title>
<polygon fill="none" stroke="#000000" points="84,-.5 84,-100.5 149.8918,-100.5 149.8918,-.5 84,-.5"/>
<text text-anchor="middle" x="116.9459" y="-83.9" font-family="Times,serif" font-size="14.00" fill="#000000">y</text>
<polyline fill="none" stroke="#000000" points="84,-75.7 149.8918,-75.7 "/>
<text text-anchor="middle" x="116.9459" y="-59.1" font-family="Times,serif" font-size="14.00" fill="#000000">+nonlow</text>
<text text-anchor="middle" x="116.9459" y="-42.3" font-family="Times,serif" font-size="14.00" fill="#000000">+front</text>
<text text-anchor="middle" x="116.9459" y="-25.5" font-family="Times,serif" font-size="14.00" fill="#000000">+round</text>
<text text-anchor="middle" x="116.9459" y="-8.7" font-family="Times,serif" font-size="14.00" fill="#000000">+high</text>
</g>
<!-- 7 -->
<g id="node8" class="node">
<title>7</title>
<polygon fill="none" stroke="#000000" points="336,-.5 336,-100.5 401.8918,-100.5 401.8918,-.5 336,-.5"/>
<text text-anchor="middle" x="368.9459" y="-83.9" font-family="Times,serif" font-size="14.00" fill="#000000">u</text>
<polyline fill="none" stroke="#000000" points="336,-75.7 401.8918,-75.7 "/>
<text text-anchor="middle" x="368.9459" y="-59.1" font-family="Times,serif" font-size="14.00" fill="#000000">+nonlow</text>
<text text-anchor="middle" x="368.9459" y="-42.3" font-family="Times,serif" font-size="14.00" fill="#000000">&#45;front</text>
<text text-anchor="middle" x="368.9459" y="-25.5" font-family="Times,serif" font-size="14.00" fill="#000000">+round</text>
<text text-anchor="middle" x="368.9459" y="-8.7" font-family="Times,serif" font-size="14.00" fill="#000000">+high</text>
</g>
<!-- 8 -->
<g id="node9" class="node">
<title>8</title>
<polygon fill="none" stroke="#000000" points="420,-.5 420,-100.5 485.8918,-100.5 485.8918,-.5 420,-.5"/>
<text text-anchor="middle" x="452.9459" y="-83.9" font-family="Times,serif" font-size="14.00" fill="#000000">ɛ</text>
<polyline fill="none" stroke="#000000" points="420,-75.7 485.8918,-75.7 "/>
<text text-anchor="middle" x="452.9459" y="-59.1" font-family="Times,serif" font-size="14.00" fill="#000000">+nonlow</text>
<text text-anchor="middle" x="452.9459" y="-42.3" font-family="Times,serif" font-size="14.00" fill="#000000">&#45;round</text>
<text text-anchor="middle" x="452.9459" y="-25.5" font-family="Times,serif" font-size="14.00" fill="#000000">&#45;high</text>
<text text-anchor="middle" x="452.9459" y="-8.7" font-family="Times,serif" font-size="14.00" fill="#000000">+front</text>
</g>
<!-- 9 -->
<g id="node10" class="node">
<title>9</title>
<polygon fill="none" stroke="#000000" points="252,-.5 252,-100.5 317.8918,-100.5 317.8918,-.5 252,-.5"/>
<text text-anchor="middle" x="284.9459" y="-83.9" font-family="Times,serif" font-size="14.00" fill="#000000">œ</text>
<polyline fill="none" stroke="#000000" points="252,-75.7 317.8918,-75.7 "/>
<text text-anchor="middle" x="284.9459" y="-59.1" font-family="Times,serif" font-size="14.00" fill="#000000">+nonlow</text>
<text text-anchor="middle" x="284.9459" y="-42.3" font-family="Times,serif" font-size="14.00" fill="#000000">&#45;high</text>
<text text-anchor="middle" x="284.9459" y="-25.5" font-family="Times,serif" font-size="14.00" fill="#000000">+front</text>
<text text-anchor="middle" x="284.9459" y="-8.7" font-family="Times,serif" font-size="14.00" fill="#000000">+round</text>
</g>
<!-- 10 -->
<g id="node11" class="node">
<title>10</title>
<polygon fill="none" stroke="#000000" points="504,-.5 504,-100.5 569.8918,-100.5 569.8918,-.5 504,-.5"/>
<text text-anchor="middle" x="536.9459" y="-83.9" font-family="Times,serif" font-size="14.00" fill="#000000">o</text>
<polyline fill="none" stroke="#000000" points="504,-75.7 569.8918,-75.7 "/>
<text text-anchor="middle" x="536.9459" y="-59.1" font-family="Times,serif" font-size="14.00" fill="#000000">+nonlow</text>
<text text-anchor="middle" x="536.9459" y="-42.3" font-family="Times,serif" font-size="14.00" fill="#000000">&#45;front</text>
<text text-anchor="middle" x="536.9459" y="-25.5" font-family="Times,serif" font-size="14.00" fill="#000000">&#45;high</text>
<text text-anchor="middle" x="536.9459" y="-8.7" font-family="Times,serif" font-size="14.00" fill="#000000">+round</text>
</g>
<!-- 11 -->
<g id="node12" class="node">
<title>11</title>
<polygon fill="none" stroke="#000000" points="621.617,-.5 621.617,-100.5 684.2748,-100.5 684.2748,-.5 621.617,-.5"/>
<text text-anchor="middle" x="652.9459" y="-83.9" font-family="Times,serif" font-size="14.00" fill="#000000">a</text>
<polyline fill="none" stroke="#000000" points="621.617,-75.7 684.2748,-75.7 "/>
<text text-anchor="middle" x="652.9459" y="-59.1" font-family="Times,serif" font-size="14.00" fill="#000000">&#45;nonlow</text>
<text text-anchor="middle" x="652.9459" y="-42.3" font-family="Times,serif" font-size="14.00" fill="#000000">&#45;front</text>
<text text-anchor="middle" x="652.9459" y="-25.5" font-family="Times,serif" font-size="14.00" fill="#000000">&#45;round</text>
<text text-anchor="middle" x="652.9459" y="-8.7" font-family="Times,serif" font-size="14.00" fill="#000000">&#45;high</text>
</g>
<!-- 12&#45;&gt;6 -->
<g id="edge22" class="edge">
<title>12&#45;&gt;6</title>
<path fill="none" stroke="#000000" stroke-dasharray="5,2" d="M116.9459,-138.3804C116.9459,-129.5771 116.9459,-120.1201 116.9459,-110.7885"/>
<polygon fill="#000000" stroke="#000000" points="120.446,-110.7487 116.9459,-100.7488 113.446,-110.7488 120.446,-110.7487"/>
</g>
<!-- 12&#45;&gt;9 -->
<g id="edge30" class="edge">
<title>12&#45;&gt;9</title>
<path fill="none" stroke="#000000" stroke-dasharray="5,2" d="M149.8949,-144.9182C152.8457,-142.4435 155.8799,-140.1009 158.9459,-138 192.5979,-114.9405 210.3707,-125.5572 242.9459,-101 243.4296,-100.6353 243.9114,-100.264 244.391,-99.8866"/>
<polygon fill="#000000" stroke="#000000" points="246.7132,-102.5055 251.9562,-93.2989 242.1162,-97.2264 246.7132,-102.5055"/>
</g>
<!-- 13&#45;&gt;5 -->
<g id="edge20" class="edge">
<title>13&#45;&gt;5</title>
<path fill="none" stroke="#000000" stroke-dasharray="5,2" d="M65.8949,-144.9182C68.8457,-142.4435 71.8799,-140.1009 74.9459,-138 108.5979,-114.9405 126.3707,-125.5572 158.9459,-101 159.4296,-100.6353 159.9114,-100.264 160.391,-99.8866"/>
<polygon fill="#000000" stroke="#000000" points="162.7132,-102.5055 167.9562,-93.2989 158.1162,-97.2264 162.7132,-102.5055"/>
</g>
<!-- 13&#45;&gt;6 -->
<g id="edge23" class="edge">
<title>13&#45;&gt;6</title>
<path fill="none" stroke="#000000" stroke-dasharray="5,2" d="M57.7081,-138.4909C61.7371,-131.9304 65.9124,-125.2525 69.9459,-119 72.6616,-114.7904 75.5056,-110.462 78.393,-106.1247"/>
<polygon fill="#000000" stroke="#000000" points="81.3122,-108.0557 83.9772,-97.8015 75.4993,-104.1557 81.3122,-108.0557"/>
</g>
<!-- 14&#45;&gt;6 -->
<g id="edge24" class="edge">
<title>14&#45;&gt;6</title>
<path fill="none" stroke="#000000" stroke-dasharray="5,2" d="M173.9054,-138.3804C167.8961,-129.1088 161.4168,-119.1122 155.0574,-109.3006"/>
<polygon fill="#000000" stroke="#000000" points="157.8906,-107.2366 149.5145,-100.7488 152.0165,-111.0439 157.8906,-107.2366"/>
</g>
<!-- 14&#45;&gt;7 -->
<g id="edge25" class="edge">
<title>14&#45;&gt;7</title>
<path fill="none" stroke="#000000" stroke-dasharray="5,2" d="M233.8949,-144.9182C236.8457,-142.4435 239.8799,-140.1009 242.9459,-138 276.5979,-114.9405 294.3707,-125.5572 326.9459,-101 327.4296,-100.6353 327.9114,-100.264 328.391,-99.8866"/>
<polygon fill="#000000" stroke="#000000" points="330.7132,-102.5055 335.9562,-93.2989 326.1162,-97.2264 330.7132,-102.5055"/>
</g>
<!-- 15&#45;&gt;16 -->
<g id="edge38" class="edge">
<title>15&#45;&gt;16</title>
<path fill="none" stroke="#000000" stroke-dasharray="5,2" d="M613.9746,-267.866C603.112,-255.4893 589.6561,-240.1577 577.0453,-225.789"/>
<polygon fill="#000000" stroke="#000000" points="579.3751,-223.1375 570.1481,-217.9304 574.1139,-227.755 579.3751,-223.1375"/>
</g>
<!-- 23 -->
<g id="node24" class="node">
<title>23</title>
<polygon fill="none" stroke="#000000" points="659.9459,-146.9 659.9459,-213.3 713.9459,-213.3 713.9459,-146.9 659.9459,-146.9"/>
<text text-anchor="middle" x="686.8821" y="-196.7" font-family="Times,serif" font-size="14.00" fill="#000000">a, o</text>
<polyline fill="none" stroke="#000000" points="659.9459,-188.5 713.8183,-188.5 "/>
<text text-anchor="middle" x="686.8821" y="-171.9" font-family="Times,serif" font-size="14.00" fill="#000000">&#45;front</text>
<text text-anchor="middle" x="686.8821" y="-155.1" font-family="Times,serif" font-size="14.00" fill="#000000">&#45;high</text>
</g>
<!-- 15&#45;&gt;23 -->
<g id="edge39" class="edge">
<title>15&#45;&gt;23</title>
<path fill="none" stroke="#000000" stroke-dasharray="5,2" d="M647.2645,-267.866C653.2427,-254.6435 660.7458,-238.0485 667.6138,-222.858"/>
<polygon fill="#000000" stroke="#000000" points="670.8581,-224.1779 671.7888,-213.624 664.4798,-221.294 670.8581,-224.1779"/>
</g>
<!-- 16&#45;&gt;7 -->
<g id="edge26" class="edge">
<title>16&#45;&gt;7</title>
<path fill="none" stroke="#000000" stroke-dasharray="5,2" d="M503.9969,-144.9182C501.0461,-142.4435 498.0119,-140.1009 494.9459,-138 461.2939,-114.9405 443.5211,-125.5572 410.9459,-101 410.4622,-100.6353 409.9804,-100.264 409.5008,-99.8866"/>
<polygon fill="#000000" stroke="#000000" points="411.7756,-97.2264 401.9356,-93.2989 407.1786,-102.5055 411.7756,-97.2264"/>
</g>
<!-- 16&#45;&gt;10 -->
<g id="edge33" class="edge">
<title>16&#45;&gt;10</title>
<path fill="none" stroke="#000000" stroke-dasharray="5,2" d="M536.9459,-138.3804C536.9459,-129.5771 536.9459,-120.1201 536.9459,-110.7885"/>
<polygon fill="#000000" stroke="#000000" points="540.446,-110.7487 536.9459,-100.7488 533.446,-110.7488 540.446,-110.7487"/>
</g>
<!-- 17&#45;&gt;18 -->
<g id="edge40" class="edge">
<title>17&#45;&gt;18</title>
<path fill="none" stroke="#000000" stroke-dasharray="5,2" d="M368.1991,-267.866C355.5006,-254.4792 339.523,-237.6355 324.9689,-222.2924"/>
<polygon fill="#000000" stroke="#000000" points="327.3804,-219.749 317.959,-214.9026 322.3018,-224.5665 327.3804,-219.749"/>
</g>
<!-- 24 -->
<g id="node25" class="node">
<title>24</title>
<polygon fill="none" stroke="#000000" points="587.9459,-146.9 587.9459,-213.3 641.9459,-213.3 641.9459,-146.9 587.9459,-146.9"/>
<text text-anchor="middle" x="614.6065" y="-196.7" font-family="Times,serif" font-size="14.00" fill="#000000">a, ɛ</text>
<polyline fill="none" stroke="#000000" points="587.9459,-188.5 641.2671,-188.5 "/>
<text text-anchor="middle" x="614.6065" y="-171.9" font-family="Times,serif" font-size="14.00" fill="#000000">&#45;round</text>
<text text-anchor="middle" x="614.6065" y="-155.1" font-family="Times,serif" font-size="14.00" fill="#000000">&#45;high</text>
</g>
<!-- 17&#45;&gt;24 -->
<g id="edge41" class="edge">
<title>17&#45;&gt;24</title>
<path fill="none" stroke="#000000" stroke-dasharray="5,2" d="M415.4038,-267.8494C419.344,-264.5877 423.5796,-261.5647 427.9459,-259.2 458.325,-242.7473 549.5256,-240.3115 578.9459,-222.2 580.0515,-221.5194 581.1406,-220.7935 582.2118,-220.029"/>
<polygon fill="#000000" stroke="#000000" points="584.5927,-222.6014 590.0533,-213.5222 580.1226,-217.2145 584.5927,-222.6014"/>
</g>
<!-- 18&#45;&gt;5 -->
<g id="edge21" class="edge">
<title>18&#45;&gt;5</title>
<path fill="none" stroke="#000000" stroke-dasharray="5,2" d="M257.9054,-138.3804C251.8961,-129.1088 245.4168,-119.1122 239.0574,-109.3006"/>
<polygon fill="#000000" stroke="#000000" points="241.8906,-107.2366 233.5145,-100.7488 236.0165,-111.0439 241.8906,-107.2366"/>
</g>
<!-- 18&#45;&gt;8 -->
<g id="edge27" class="edge">
<title>18&#45;&gt;8</title>
<path fill="none" stroke="#000000" stroke-dasharray="5,2" d="M317.8949,-144.9182C320.8457,-142.4435 323.8799,-140.1009 326.9459,-138 360.5979,-114.9405 378.3707,-125.5572 410.9459,-101 411.4296,-100.6353 411.9114,-100.264 412.391,-99.8866"/>
<polygon fill="#000000" stroke="#000000" points="414.7132,-102.5055 419.9562,-93.2989 410.1162,-97.2264 414.7132,-102.5055"/>
</g>
<!-- 19&#45;&gt;20 -->
<g id="edge9" class="edge">
<title>19&#45;&gt;20</title>
<path fill="none" stroke="#000000" stroke-dasharray="5,2" d="M505.737,-379.888C500.3957,-366.9063 493.7049,-350.6448 487.5581,-335.7054"/>
<polygon fill="#000000" stroke="#000000" points="490.6588,-334.0429 483.617,-326.1268 484.1854,-336.7064 490.6588,-334.0429"/>
</g>
<!-- 19&#45;&gt;23 -->
<g id="edge42" class="edge">
<title>19&#45;&gt;23</title>
<path fill="none" stroke="#000000" stroke-dasharray="5,2" d="M529.9688,-379.7914C552.6646,-339.567 595.3821,-264.2652 599.9459,-259.2 618.6908,-238.3956 630.3701,-241.1956 650.9459,-222.2 651.5024,-221.6863 652.0586,-221.1643 652.6142,-220.6351"/>
<polygon fill="#000000" stroke="#000000" points="655.2031,-222.9951 659.7565,-213.4286 650.2312,-218.0675 655.2031,-222.9951"/>
</g>
<!-- 19&#45;&gt;24 -->
<g id="edge43" class="edge">
<title>19&#45;&gt;24</title>
<path fill="none" stroke="#000000" stroke-dasharray="5,2" d="M520.6147,-379.8865C527.525,-346.6713 542.376,-286.5671 566.9459,-240.2 569.4097,-235.5504 574.9059,-228.0674 581.3338,-219.9364"/>
<polygon fill="#000000" stroke="#000000" points="584.1679,-221.9974 587.7136,-212.0134 578.7157,-217.6071 584.1679,-221.9974"/>
</g>
<!-- 20&#45;&gt;21 -->
<g id="edge44" class="edge">
<title>20&#45;&gt;21</title>
<path fill="none" stroke="#000000" stroke-dasharray="5,2" d="M440.1888,-259.6664C430.3559,-248.6846 419.253,-236.2846 408.7896,-224.5988"/>
<polygon fill="#000000" stroke="#000000" points="411.304,-222.16 402.0258,-217.0447 406.089,-226.8295 411.304,-222.16"/>
</g>
<!-- 20&#45;&gt;22 -->
<g id="edge45" class="edge">
<title>20&#45;&gt;22</title>
<path fill="none" stroke="#000000" stroke-dasharray="5,2" d="M464.9373,-259.6664C463.6282,-250.9805 462.1855,-241.4074 460.768,-232.0021"/>
<polygon fill="#000000" stroke="#000000" points="464.1986,-231.2789 459.2474,-221.9122 457.2768,-232.3222 464.1986,-231.2789"/>
</g>
<!-- 21&#45;&gt;8 -->
<g id="edge28" class="edge">
<title>21&#45;&gt;8</title>
<path fill="none" stroke="#000000" stroke-dasharray="5,2" d="M395.9864,-138.3804C401.9957,-129.1088 408.475,-119.1122 414.8344,-109.3006"/>
<polygon fill="#000000" stroke="#000000" points="417.8753,-111.0439 420.3773,-100.7488 412.0012,-107.2366 417.8753,-111.0439"/>
</g>
<!-- 21&#45;&gt;9 -->
<g id="edge31" class="edge">
<title>21&#45;&gt;9</title>
<path fill="none" stroke="#000000" stroke-dasharray="5,2" d="M341.9054,-138.3804C335.8961,-129.1088 329.4168,-119.1122 323.0574,-109.3006"/>
<polygon fill="#000000" stroke="#000000" points="325.8906,-107.2366 317.5145,-100.7488 320.0165,-111.0439 325.8906,-107.2366"/>
</g>
<!-- 22&#45;&gt;9 -->
<g id="edge32" class="edge">
<title>22&#45;&gt;9</title>
<path fill="none" stroke="#000000" stroke-dasharray="5,2" d="M419.9969,-144.9182C417.0461,-142.4435 414.0119,-140.1009 410.9459,-138 377.2939,-114.9405 359.5211,-125.5572 326.9459,-101 326.4622,-100.6353 325.9804,-100.264 325.5008,-99.8866"/>
<polygon fill="#000000" stroke="#000000" points="327.7756,-97.2264 317.9356,-93.2989 323.1786,-102.5055 327.7756,-97.2264"/>
</g>
<!-- 22&#45;&gt;10 -->
<g id="edge34" class="edge">
<title>22&#45;&gt;10</title>
<path fill="none" stroke="#000000" stroke-dasharray="5,2" d="M479.9864,-138.3804C485.9957,-129.1088 492.475,-119.1122 498.8344,-109.3006"/>
<polygon fill="#000000" stroke="#000000" points="501.8753,-111.0439 504.3773,-100.7488 496.0012,-107.2366 501.8753,-111.0439"/>
</g>
<!-- 23&#45;&gt;10 -->
<g id="edge35" class="edge">
<title>23&#45;&gt;10</title>
<path fill="none" stroke="#000000" stroke-dasharray="5,2" d="M659.6783,-146.8549C656.8143,-143.7804 653.8764,-140.7797 650.9459,-138 628.3942,-116.609 600.7932,-95.3151 578.3985,-79.09"/>
<polygon fill="#000000" stroke="#000000" points="580.2573,-76.1159 570.0918,-73.1301 576.1765,-81.8034 580.2573,-76.1159"/>
</g>
<!-- 23&#45;&gt;11 -->
<g id="edge36" class="edge">
<title>23&#45;&gt;11</title>
<path fill="none" stroke="#000000" stroke-dasharray="5,2" d="M678.1901,-146.7248C675.3023,-135.7175 671.9959,-123.114 668.748,-110.7339"/>
<polygon fill="#000000" stroke="#000000" points="672.0881,-109.6724 666.165,-100.8879 665.3172,-111.4488 672.0881,-109.6724"/>
</g>
<!-- 24&#45;&gt;8 -->
<g id="edge29" class="edge">
<title>24&#45;&gt;8</title>
<path fill="none" stroke="#000000" stroke-dasharray="5,2" d="M588.758,-146.4964C585.6344,-143.4241 582.3421,-140.524 578.9459,-138 546.2034,-113.6663 527.5211,-125.5572 494.9459,-101 494.4622,-100.6353 493.9804,-100.264 493.5008,-99.8866"/>
<polygon fill="#000000" stroke="#000000" points="495.7756,-97.2264 485.9356,-93.2989 491.1786,-102.5055 495.7756,-97.2264"/>
</g>
<!-- 24&#45;&gt;11 -->
<g id="edge37" class="edge">
<title>24&#45;&gt;11</title>
<path fill="none" stroke="#000000" stroke-dasharray="5,2" d="M624.7318,-146.7248C627.9593,-135.7175 631.6548,-123.114 635.2847,-110.7339"/>
<polygon fill="#000000" stroke="#000000" points="638.7166,-111.4687 638.1717,-100.8879 631.9993,-109.4991 638.7166,-111.4687"/>
</g>
</g>
</svg>
